<!-- by TradingView --><svg xmlns="http://www.w3.org/2000/svg" width="56" height="56"><path fill="#CC171F" d="M0 0h56v56H0z"/><path d="M15.98 25.18h.1c0-2.62 2.46-5.45 3.96-6.72a12.51 12.51 0 017.96-2.9v-2.29c-3.33 0-7.06 1.61-8.71 3.25-2.37 2.35-3.31 4.04-3.31 8.66z" fill="#fff"/><path d="M18.4 25.08c.38-.53.66-1.98 1.32-2.88A10.25 10.25 0 0128 17.84v-1.59c-1.35.3-2.64.24-3.87.76-1.26.54-1.91.93-2.92 1.7-1.53 1.17-2.8 3.66-2.8 6.37zm-5.35.19c0-3.88 2.8-7.03 4.87-9 1.84-1.74 6.46-3.79 10.08-3.79V10c-4.02 0-8.8 2.43-10.83 4.44-2.47 2.42-4.22 6.02-4.22 10.83h.1zm12.38 14.55v-.1c-2.66 0-5.54-2.41-6.84-3.9A12.07 12.07 0 0115.65 28h-2.32c0 3.27 1.63 6.95 3.3 8.57 2.39 2.33 4.1 3.25 8.8 3.25z" fill="#fff"/><path d="M25.32 37.44c-.53-.37-2-.65-2.92-1.3a10.82 10.82 0 01-2.2-2A9.87 9.87 0 0117.97 28h-1.6c.3 1.32.23 2.6.77 3.8.54 1.25.94 1.89 1.72 2.88 1.2 1.5 3.73 2.76 6.47 2.76zm.21 5.26c-3.95 0-7.16-2.75-9.15-4.79-1.78-1.8-3.86-6.35-3.86-9.91H10c0 3.96 2.47 8.65 4.51 10.65 2.46 2.43 6.13 4.15 11.02 4.15v-.1zM40 30.78h-.1c0 2.61-2.44 5.46-3.95 6.74a12.51 12.51 0 01-7.94 2.93v2.28c3.33-.01 7.06-1.64 8.7-3.28 2.37-2.36 3.3-4.05 3.28-8.67z" fill="#fff"/><path d="M37.57 30.9c-.37.52-.65 1.97-1.3 2.87a10.24 10.24 0 01-8.27 4.4v1.58c1.35-.31 2.64-.25 3.88-.77 1.26-.54 1.9-.94 2.9-1.71 1.53-1.18 2.8-3.68 2.79-6.38zm5.35-.23c.01 3.88-2.78 7.05-4.84 9.02-1.83 1.75-6.44 3.82-10.06 3.83V46c4.03-.02 8.8-2.46 10.83-4.47 2.45-2.43 4.19-6.05 4.17-10.86h-.1zM30.53 16.2v.1c2.66-.01 5.55 2.4 6.85 3.88a12.07 12.07 0 012.97 7.81h2.32c-.01-3.28-1.66-6.95-3.33-8.57-2.4-2.32-4.12-3.24-8.8-3.22z" fill="#fff"/><path d="M30.64 18.58c.53.37 2 .65 2.93 1.29.92.63 1.46 1.16 2.2 2A9.88 9.88 0 0138.03 28h1.62c-.32-1.33-.25-2.6-.8-3.81a11.08 11.08 0 00-1.73-2.86c-1.2-1.5-3.73-2.75-6.48-2.75zm-.22-5.26c3.95-.01 7.16 2.73 9.17 4.76 1.78 1.8 3.88 6.34 3.89 9.9l2.52-.01c-.02-3.96-2.5-8.64-4.55-10.64-2.47-2.41-6.14-4.13-11.03-4.1v.1zM25 27.93c0-1.4 1.26-2.93 2.67-2.93h.66c3.56 0 3.46 6 .14 6h-.94c-1.2 0-2.53-1.62-2.53-3.07zm-2 .41c0 2.2 2.17 4.66 4.13 4.66h1.34c1.12 0 2.11-.56 2.53-.78V33h2v-4.93c0-2.44-1.73-5.07-4.13-5.07h-1.74C25.21 23 23 25.42 23 27.38v.96z" fill="#fff"/></svg>