<svg width="56" height="56" xmlns="http://www.w3.org/2000/svg"><path fill="#F0F3FA" d="M0 0h56v56H0z"/><path d="M22.223 17L9.01 38.368c-.005-.096-.01-.152-.01-.208V17.232C9 17 9 17 9.238 17h12.985zm11.576.006H47v21.197L33.799 17.006z" fill="#42735C"/><path d="M37.7 39h-19c.028-.06.046-.107.072-.151.514-.902 1.03-1.803 1.541-2.707.061-.107.128-.142.245-.142 5.047.003 10.094.002 15.14.007.076 0 .184.044.222.105.586.93 1.162 1.866 1.74 2.8.013.021.02.044.04.088zm-9.622-15.487c.922 1.553 1.693 2.943 2.61 4.487h-5.312c.943-1.538 1.747-2.93 2.702-4.487zm6.797 11.388v.175H21.183l-.01-.175h13.702zm-17.61-6.828l-.173-.107 6.614-10.883.174.104-6.615 10.886zM32.26 17.191l.172-.107 6.61 10.877c-.052.038-.1.07-.166.117A78523.73 78523.73 0 0032.26 17.19zM22.07 33.69c-.053-.152.003-.194.15-.194.91.005 1.82.003 2.73.003h9.048v.192H22.071zm9.474-15.23l.173-.106 5.804 9.607-.167.116-5.81-9.616zm-7.124-.104c.04.021.067.033.09.05.024.015.046.035.08.063l-5.802 9.603-.171-.107 5.803-9.609zm-1.507 13.941v-.175H33.14l.014.175h-10.24zm12.954-4.331l-.173.107-5.092-8.354.173-.105 5.092 8.352zm-10.502-8.353l.173.106-5.09 8.352-.174-.106 5.091-8.352zm6.975 11.172v.181h-8.618l-.01-.18h8.629zm-10.237-2.71l-.17-.11 4.221-6.968.177.099-4.228 6.979zm12.105-.108l-.172.107-4.225-6.973.172-.108 4.225 6.974zm-10.295.105l-.175-.102 3.422-5.779.173.106-3.42 5.775zm8.487-.102l-.176.1-3.418-5.77.17-.111 3.424 5.78zm-.777 1.433v.173h-7.187l-.011-.173h7.198zm-16.145 9.41l-.174-.104 1.533-2.529.174.104c-.512.843-1.018 1.678-1.533 2.53zm-4.836.001l-.172-.107 1.534-2.523.177.098-1.54 2.532zm28.388-2.526l.171-.108 1.53 2.524-.166.115-1.535-2.53zm-23.836-.108l.174.104-1.54 2.528-.175-.102 1.541-2.53zm28.665.106l.172-.106 1.537 2.526-.172.107-1.537-2.527zm.193 2.424l-.175.1-1.525-2.524.174-.103 1.526 2.527zm-30.536-2.533l.171.108-1.53 2.531-.17-.11c.511-.844 1.015-1.68 1.53-2.529zm28.87 2.531l-.174.104-1.537-2.52.167-.115 1.544 2.531zm-5.111-2.423l.174-.103 1.495 2.524-.17.109-1.5-2.53zM17.268 38.81l-.176-.1 1.497-2.528.175.102-1.496 2.526zm21.559-8.051h.337v.313h-.337v-.313zm-1.771.309v-.307h.338v.307h-.338zm-19.876.005h-.342v-.31h.342v.31zm1.765.001h-.336v-.315h.336v.315zm21.505-.315h.333l.014.308h-.348v-.308zm-6.668.311v-.309h.334v.308h-.334zm-13.159.004h-.334v-.314h.334v.314zm-5.403-.316h.339v.314h-.339v-.314zm13.065-9.5h-.333v-.312h.333v.312zm-6.069 9.814h-.325v-.313h.326v.313zm17.42-1.732h.337v.31h-.337v-.31zm-4.254 1.42h.332v.313h-.332v-.313zm-15.627-1.417v.3h-.338v-.3h.338zm16.838.001v.301h-.335v-.301h.335zm-20.224.001v.309h-.328v-.309h.328zm12.718-9.776v.297h-.337v-.297h.337zm-1.638.305h-.339v-.309h.339v.31zM21.1 29.648v-.305h.337v.305H21.1zm-5.153 2.509h.334v.305h-.334v-.305zm1.764-.002h.339v.309h-.339v-.309zm2.019.315h-.327v-.31h.327v.31zm1.604-.004h-.335v-.306h.335v.306zm13.678-.002h-.338v-.302h.338v.302zm1.596-.302v.297h-.338v-.297h.338zm1.347.297v-.302h.336v.302h-.336zm1.772-.306h.331v.311h-.33v-.311zm1.947.008v.298h-.339v-.298h.339zM17.648 29.65v-.31h.337v.31h-.337zm-4.128 3.906h.334v.306h-.333v-.306zm1.624-.003h.334v.312h-.334v-.312zm1.766.307v-.306h.336v.305h-.336zm1.68-.308h.329v.31h-.328v-.31zm7.245-16.241h-.338v-.305h.338v.305zm-2.792 12.033v.298h-.342v-.298h.342zM29.57 18.19h.336v.311h-.337v-.31zm9.527 15.677h-.335v-.312h.335v.312zm1.432-.005v-.302h.34v.302h-.34zm1.622.003v-.31h.335v.31h-.335zm-8.838-4.213h-.34v-.31h.34v.31zm-18.695 5.481h-.328v-.31h.328v.31zm1.428-.012v-.295h.342v.295h-.342zm2.028-.296v.305h-.335v-.305h.335zm1.597.305h-.336v-.311h.336v.311zm16.669-.312h.333v.31h-.332v-.31zm1.585.303v-.295h.342v.295h-.342zm2.031.012h-.334v-.31h.334v.31zm-12.474-17.82h-.334v-.31h.334v.31zm15.513 17.811v-.3h.335v.3h-.335zM28.752 17.003h.333v.307h-.333v-.307zM26.315 18.5v-.3h.339v.3h-.339zm4.512-1.499v.31h-.335v-.31h.335zm4.083 12.347v.297h-.343v-.297h.343zm-22.239 5.775v-.3h.33v.3h-.33zm7.849-1.563v.299h-.331v-.299h.33zm16.563.302v-.305h.333v.305h-.333zM28.3 18.504h-.336V18.2h.335v.304zM41.711 35.13h-.325v-.305h.325v.306zm-6.223-1.577h.328v.31h-.328v-.31zm-20.82-1.393v.305h-.333v-.305h.333zm23.687-2.815v.299h-.337v-.299h.337z" fill="#000"/></svg>