<svg xmlns="http://www.w3.org/2000/svg" width="56" height="56" viewBox="0 0 56 56"><path fill="#F0F3FA" d="M0 0h56v56H0z"/><path d="M31.95 17v.22a5.7 5.7 0 0 1-1.84 3.99l-1.17 1.26c-.97 1.04-1.95 2.1-2.99 3.07a23 23 0 0 0-1.97 2.16c-.7.86-1.19 1.68-1.68 2.53a17.83 17.83 0 0 0-1.72 3.96c-.15.52-.3 1.54-.3 2.24-.02.6.12 1.2.23 1.79.36 1.95 1.35 4.9 4.05 6.63a9.28 9.28 0 0 1-5.4-5.97 9.33 9.33 0 0 1-.37-2.64 11 11 0 0 1 .96-4.27c.2-.47 1.6-3.96 4.37-6.71l3.03-3.03a22.42 22.42 0 0 0 2.35-2.6 4.16 4.16 0 0 0 .72-3.95 4.17 4.17 0 0 0-1.01-1.64L28 12.9a49.9 49.9 0 0 0-5.9 6.29l-.08.1c-1.06 1.4-2 2.8-2.77 4.17a25.48 25.48 0 0 0-1.58 3.32c-.4 1.02-.72 2.08-.93 3.15-.12.63-.2 1.26-.23 1.9a24.7 24.7 0 0 0 .46 4.9 18.25 18.25 0 0 0 1.2 3.87l.22.45c.07.13.14.32.23.42a13.07 13.07 0 0 1-3.61-9.02c-.01-.12-.05-.64.04-1.5a18.5 18.5 0 0 1 1.2-4.72 31.73 31.73 0 0 1 4.66-7.99 52.14 52.14 0 0 1 6.82-7.15h.01c.01-.02.02-.03.04-.03l.03-.02.03-.02.04-.01.04-.01h.04L28 11h.08l.04.02.04.01a.3.3 0 0 1 .03.02c.01 0 .02 0 .03.02l.04.02a16.48 16.48 0 0 1 .83.74 61.79 61.79 0 0 1 1.35 1.3 5.71 5.71 0 0 1 1.5 3.87z" fill="#8B6F4C"/><path d="M25.96 35.94c-.5 1.51-.67 3.21.06 4.7.2.41.47.73.72 1.1.07.09 2.57 3.29 6.63 2.6a6.46 6.46 0 0 1-6.14-.23 6.62 6.62 0 0 1-2.98-3.83 6.7 6.7 0 0 1-.07-.28c-.47-1.95.09-3.99.88-5.76a18.07 18.07 0 0 1 4.04-5.72c.68-.67 1.24-1.32 1.75-1.85 2.36-2.42 2.82-3.63 2.83-3.68 1.61-2.73.32-6.05.32-6.05a5.72 5.72 0 0 1 1.07 6.7c-.27.59-1.15 2.09-5.02 5.88a18.23 18.23 0 0 0-4.1 6.42z" fill="#8B6F4C"/><path d="M41 32.38v.26a13.08 13.08 0 0 1-4.37 9.57 1.03 1.03 0 0 1-.07.05 3.49 3.49 0 0 1-5.53-1.74c-.02-.04-1.45-3.24 1.74-7.6.66-.9 1.22-1.7 1.69-2.4a21.43 21.43 0 0 0 2.2-3.88c.33-.7 1.33-3.05.73-4.97a5.72 5.72 0 0 1 .56 5.8c-.58 1.35-2.1 3.39-4.3 6.9a9.97 9.97 0 0 0-1 2.03 6.6 6.6 0 0 0-.39 2.48c.04.84.27 1.3.27 1.3a2 2 0 0 0 2.76 1.09c.13-.07.25-.15.36-.24l.06-.06.1-.09a11.6 11.6 0 0 0 2.99-4.51c.15-.4.3-.8.42-1.2.05-.16 1.2-4.68.61-8.72A16.61 16.61 0 0 1 41 32.38z" fill="#8B6F4C"/></svg>