<svg width="56" height="56" xmlns="http://www.w3.org/2000/svg">
    <path fill="#F0F3FA" d="M0 0h56v56H0z" />
    <ellipse cx="28" cy="28.5" rx="21.905" ry="11.5" fill="#000" />
    <path d="M45.524 29.048c0 4.839-8.581 8.762-19.167 8.762-10.585 0-19.167-3.923-19.167-8.762 0-4.84 8.582-8.762 19.167-8.762 10.586 0 19.167 3.923 19.167 8.762z" fill="#F0F3FA" />
    <path d="M19.881 32c-2.574-1.937-2.169-5.277-.792-7l.792 1.479c-.652.891-.705 2.698.412 3.777l2.857-1.646.85 1.162L19.881 32zm6.954-6.103c.038-.03-1.305-.897-1.305-.897-2.837 2.692-1.204 5.302.681 7l1.205-.897c-.49-.293-2.233-2.048-1.318-2.513.35-.178 1.177-.192 1.702 0 1.29.471 2.74 1.998 3.065 2.513L32 30.385c-.227-1.347-2.043-2.244-2.043-2.244s.908-.449 1.816-1.795l-1.249-.718c-1.589 2.064-3.291 2.064-4.653 2.064 0 0-.057-.987.965-1.795zM34.571 25h-1.095s-.563 2.367-.547 3.663c.014 1.161.288 2.364.547 3.337h1.095c.548-2.059 1.096-3.912 0-7zM35 23a1 1 0 11-2 0 1 1 0 012 0zm2.956 9c-3.136-2.24-1.83-5.911-.686-7a4.9 4.9 0 012.157 1.96c.49-.933 1.078-1.493 2.058-1.96 1.143 1.089 2.646 3.827.196 6.627l-.98-.934c.98-.933 1.372-2.52.392-3.64-.882.374-1.176 1.307-1.176 3.174h-.98c0-1.867-.197-2.334-1.177-2.987-.98 1.12 0 2.987.98 3.827l-.784.933z" fill="#D32F2A" />
    <path d="M15.565 32c2.045-2.397 1.84-5.082-.204-7h-3.722c-2.044 1.918-2.249 4.603-.204 7l1.063-.767c-.715-.959-.859-1.439-.859-1.918h3.722c0 .48 0 .959-.511 1.918l.715.767zm-2.76-5.562h1.533c.893 0 1.023 1.918 1.023 1.918h-3.578s.13-1.918 1.022-1.918z" fill="#D32F2A" />
</svg>