<svg width="56" height="56" fill="none" xmlns="http://www.w3.org/2000/svg"><path fill="#F0F3FA" d="M0 0h56v56H0z"/><path d="M27.98 23.512c-.057.96-.478 1.719-.938 2.458-.748 1.22-1.553 2.36-2.28 3.578-.384.62-.595 1.34-.365 2.12.134.5.882.979 1.323.839.114-.04.249-.2.287-.34.077-.28-.038-.46-.402-.48.095-.16.114-.28.21-.36.48-.4 1.495-.3 1.533.5.02.44.135.9.058 1.32-.096.56-.517.96-1.073 1.02-.882.099-1.763.079-2.51-.58-.652-.58-.882-1.28-.767-2.18.153-1.359.67-2.558 1.418-3.638.46-.66 1.035-1.259 1.552-1.879.594-.7 1.207-1.379 1.59-2.239.25-.54.25-.52-.268-.72-1.494-.539-2.414-1.698-3.066-3.137-.67-1.48-.786-3.079-.632-4.658.23-2.379 1.38-4.098 3.564-5.018.441-.18.824-.14 1.227.02 1.974.74 3.258 2.12 3.584 4.338.325 2.18-.211 4.138-1.457 5.897-.364.5-.767 1-1.207 1.44-.422.44-.92.819-1.342 1.179 1.016.98 2.07 1.899 3.028 2.958.767.84 1.495 1.76 2.07 2.759.69 1.22.9 2.599.46 3.978-.383 1.16-1.342 1.959-2.626 1.979h-1.035c.096-.2.154-.38.23-.54.403-.88.595-1.779.403-2.758-.23-1.16-1.284-1.52-2.166-1.38-.364.06-.728.16-1.111.26.421-1.38 1.705-1.759 2.798-1.02.613.42 1.15.94 1.724 1.42.25-.38.077-.78-.038-1.16-.287-.88-.766-1.639-1.303-2.378-.843-1.16-1.648-2.38-2.472-3.598zm-.133-.5c.383-.6.785-1.14 1.092-1.74.843-1.598 1.437-3.258 1.207-5.137a5.299 5.299 0 00-.862-2.398 1.536 1.536 0 00-1.265-.74c-1.265-.04-2.108.76-2.376 2.039-.211 1.02-.096 2.039.153 3.058.422 1.72 1.17 3.299 2.05 4.918zM27.962 46l-3.622-3.778c-.23-.24-.441-.5-.633-.76-.747-1-.824-2.099-.402-3.258.46-1.26 1.265-2.259 2.242-3.178.077.14.153.24.172.34.269 1.479 1.323 2.358 2.645 2.638-.057.36-.364.62-.805.64-.69.04-1.169-.1-2.127-.56-.92.58-.996 1.64-.23 2.619.556.72 1.207 1.359 1.82 2.019l1.189 1.299c1.188-1.14 2.415-2.159 3.373-3.438.383-.52.728-1.06.651-1.78-.038-.46-.421-.759-.977-.759-.48.02-.652.2-.67.74v.62c-.614.16-1.055-.14-1.132-.74-.057-.46-.038-.9.096-1.34.173-.56.518-.94 1.054-1.079.69-.18 1.38-.3 2.051.04.977.5 1.399 1.38 1.514 2.459.134 1.2-.46 2.119-1.188 2.978-.671.8-1.552 1.32-2.396 1.88-.92.679-1.859 1.379-2.625 2.398zM34.4 34.986c.078-.14.173-.28.23-.44 1.227-2.439 2.339-4.918 3.125-7.556.364-1.22.728-2.439.747-3.738 0-.3.02-.62 0-.92-.02-.38-.288-.54-.594-.34-.23.14-.46.32-.594.54-.71 1.14-1.15 2.399-1.514 3.698-.364 1.24-.748 2.499-.977 3.778-.192 1.06-.173 2.14-.23 3.219-.02.22 0 .44 0 .66-.039 0-.058 0-.096.02-.135-.68-.307-1.34-.384-2.02-.095-.96-.21-1.939-.172-2.898.057-1.52.172-3.039.728-4.458.537-1.36 1.4-2.479 2.472-3.418a6.183 6.183 0 012.587-1.32c.135-.04.269-.04.403-.04.23-.02.345.08.345.34-.058 1-.077 2-.173 2.999-.076.9-.249 1.799-.383 2.719a16.91 16.91 0 01-1.13 4.217c-.614 1.46-1.419 2.759-2.55 3.838-.536.5-1.11.92-1.84 1.12zM23.036 35.046c-1.092-.14-1.916-.68-2.664-1.32-1.992-1.679-3.372-3.818-4.446-6.236-.67-1.5-1.111-3.079-1.494-4.698-.058-.28-.077-.56-.135-.86.767-.14 1.476.1 2.128.4 1.494.68 2.644 1.8 3.64 3.079.883 1.139 1.61 2.358 2.281 3.638.058.1.096.2.154.3.019.02 0 .06-.02.14-.248-.34-.46-.66-.69-.98-.9-1.26-1.954-2.359-3.2-3.238-.191-.12-.402-.24-.613-.28-.326-.06-.594.18-.498.52.153.58.326 1.139.536 1.699.096.3.269.42.652.36.651-.1 1.322-.08 1.974-.02.632.08.766.4.46.94-.211.399-.48.759-.71 1.119-.21-.16-.363-.36-.555-.42-.652-.14-.92.52-.805 1 .153.639.422 1.199.824 1.718.805 1.08 1.782 1.96 2.798 2.799.115.12.21.2.383.34z" fill="#174899"/><path d="M15.64 38.524c1.475-.56 2.72-1.4 3.602-2.659-.786-.26-1.61-.44-2.357-.78-1.457-.659-2.492-1.818-3.22-3.298-.364-.76-.67-1.539-.958-2.338-.364-1-.92-1.92-1.399-2.859-.077-.14-.153-.26-.25-.42.518-.14.959 0 1.38.16 1.4.58 2.53 1.54 3.527 2.699a.292.292 0 00-.038.12c-.345-.12-.69-.24-1.016-.38-.288-.12-.575-.4-.882-.12-.306.28-.057.6.058.88 1.015 2.698 2.798 4.617 5.366 5.716.67.28.69.3.345.98-.307.58-.652 1.14-1.016 1.74.383.239.824.379 1.284.279 1.016-.2 1.782-.82 2.357-1.7.115-.199.269-.379.441-.619.23.46.192.9.115 1.28-.192.979-.747 1.779-1.495 2.418-.306.28-.67.4-1.092.26-.115-.04-.288.04-.422.1-.977.46-1.954.56-2.913.04-.594-.3-1.015-.84-1.418-1.5zM44.941 23.552c-.402 1.159-.805 2.298-1.207 3.438-.288.82-.498 1.659-.863 2.439-.92 2.078-2.3 3.658-4.446 4.417-.057.02-.095.06-.172.12.153.62.632.94 1.111 1.24.748.46 1.591.68 2.453.8.364.06.729.1 1.17.139-.116.2-.211.38-.326.54-.652.9-1.38 1.699-2.396 2.139-1.188.52-2.357.44-3.469-.24-.766-.46-1.322-1.14-1.782-1.94 1.648.94 3.316 1.68 5.174.4-.785-.44-1.494-.879-2.031-1.539-.383-.46-.632-1-.48-1.639.02-.1.116-.24.212-.26.881-.22 1.456-.88 1.993-1.559.785-1.02 1.284-2.219 1.686-3.438.288-.82.556-1.64.805-2.459.077-.22.077-.46.077-.7 0-.38-.154-.48-.498-.28-.211.12-.403.26-.594.42-.403.34-.786.68-1.131 1 .038-.48 1.016-1.76 1.84-2.319 1.034-.72 1.667-.82 2.874-.72zM34.228 21.533c-1.111 1.099-.862 2.418-.306 3.838-.652-.22-1.093-.64-1.476-1.16-.46-.64-.594-1.36-.287-2.139a.827.827 0 00.038-.48c-.46-1.179-.172-2.258.44-3.278.767-1.28 1.821-2.259 2.952-3.138.48-.36.958-.7 1.476-1.08.862 1.3 1.629 2.599 1.648 4.198 0 .86-.383 1.74-1.303 1.98 0-.48.019-.96 0-1.44-.039-.66-.211-1.28-.69-1.74-.154-.16-.288-.2-.48-.08-1.13.74-2.05 1.68-2.26 3.1-.077.44.133.899.248 1.419zM18.629 22.292c-.882-.52-1.284-1.36-1.38-2.399-.134-1.359.172-3.218.767-4.457.498.3.996.58 1.475.9.92.619 1.802 1.299 2.549 2.158.767.88 1.36 1.86 1.571 3.059.039.2.039.42 0 .62-.057.34.039.619.192.919.537 1.06.307 2.079-.23 3.058-.153.28-.383.54-.632.78.038-.6.115-1.18.096-1.78 0-.38-.058-.799-.192-1.159-.115-.32-.345-.6-.594-1 .134-1.518-.403-3.577-2.28-4.377-1.036-.44-1.476.08-1.496.98 0 .86.115 1.779.154 2.698z" fill="#174899"/></svg>