<svg xmlns="http://www.w3.org/2000/svg" width="56" height="56"><path fill="#019BD3" d="M0 0h56v56H0z"/><path d="M37.71 22c-2.28 0-3.71.34-3.71.34V34h2v-9.88s.97-.12 1.71-.12c2.06 0 2.29.89 2.29 2.97V34h2v-6.76c-.02-3.65-.74-5.24-4.29-5.24zM8.65 22c-1.49 0-3.32.44-4.18 1.28a27.12 27.12 0 011.46 1.55c.47-.55 1.8-.83 2.72-.83 1.28 0 2.35.4 2.35 1.63V27H8.25C5.31 27.05 4 28.32 4 30.5 4 32.7 5.29 34 8 34h5v-8.27C13 23.06 11.4 22 8.65 22zM11 32H8c-1.42 0-2-.8-2-1.5 0-1 .65-1.5 2.25-1.5H11v3zm36.65-10c-1.48 0-3.31.44-4.18 1.28.82.8 1.46 1.55 1.46 1.55.47-.55 1.8-.83 2.72-.83 1.29 0 2.35.4 2.35 1.63V27h-2.75c-2.94.05-4.25 1.32-4.25 3.5 0 2.2 1.29 3.5 4 3.5h5v-8.27c0-2.67-1.6-3.73-4.35-3.73zM50 32h-3c-1.42 0-2-.8-2-1.5 0-1 .65-1.5 2.25-1.5H50v3zm-18-4.88c0-3.3-2-5.12-4.21-5.12S23 23.11 23 27.61 24.69 34 28.07 34c2.23 0 3.35-.82 3.35-.82s-.18-.92-.45-1.94c0 0-.96.76-2.9.76-1.99 0-3.07-1.2-3.07-3h7v-1.88zM30 27h-5c0-1.74.7-3 2.62-3 1.93 0 2.38 1.26 2.38 3zm-15-1.23V34h2v-8.23c0-1.21.88-1.77 2.08-1.77.86 0 2.11.29 2.55.85 0 0 .6-.76 1.37-1.56-.79-.83-2.53-1.29-3.92-1.29-2.57 0-4.08 1.1-4.08 3.77z" fill="#fff"/></svg>