<svg xmlns="http://www.w3.org/2000/svg" width="56" height="56"><path fill="#F0F3FA" d="M0 0h56v56H0z"/><path d="M17.62 23h.59l3.29 8h-1.08l-2.5-6.08-2.5 6.08h-1.09l3.3-8zm30 0h.59l3.29 8h-1.08l-2.5-6.08-2.5 6.08h-1.09l3.3-8zm-24.2 8H24l3.3-8h-1.1l-2.5 6.08L21.2 23h-1.09l3.3 8zM28 31v-8h2a2 2 0 01.55 3.92L33 31h-1.22l-2.35-4H29v4h-1zm2-5a1 1 0 100-2h-1v2h1z" fill="#555759"/><path fill-rule="evenodd" d="M41 27v4h1v-4h1a2 2 0 100-4h-2v4zm1-3v2h1a1 1 0 100-2h-1z" fill="#555759"/><path d="M35 23h-1v5.68a2.5 2.5 0 005 0V23h-1v5.68a1.5 1.5 0 01-3 0V23z" fill="#555759"/><path d="M51 34H15v-1h36v1zM7.2 23L5 29l2.2-5 2.8 7.5 4-5.1-3.5 3.1L7.2 23z" fill="#D10A11"/></svg>