<svg xmlns="http://www.w3.org/2000/svg" width="56" height="56"><path fill="#BC161D" d="M0 0h56v56H0z"/><circle cx="24.5" cy="29.5" r="6.5" fill="#fff"/><circle cx="24.5" cy="29.5" r="5.5" fill="#BC161D"/><path d="M4 29.6V21h3v8.6H4z" fill="#fff"/><circle cx="10.5" cy="29.5" r="6.5" fill="#fff"/><circle cx="45.5" cy="29.5" r="6.5" fill="#fff"/><circle cx="10.5" cy="29.5" r="5.5" fill="#BC161D"/><circle cx="45.5" cy="29.5" r="5.5" fill="#BC161D"/><circle cx="10.5" cy="29.5" r="4.5" fill="#fff"/><circle cx="45.5" cy="29.5" r="4.5" fill="#fff"/><circle cx="24.5" cy="29.5" r="4.5" fill="#fff"/><circle cx="10.5" cy="29.5" r="3.5" fill="#BC161D"/><circle cx="24.5" cy="29.5" r="3.5" fill="#BC161D"/><circle cx="45.5" cy="29.5" r="3.5" fill="#BC161D"/><path d="M20.99 29h7.05c.37.41.15.84 0 1H21c-.37-.15-.15-.73 0-1z" fill="#fff"/><path d="M5 29.6V21h1v8.6H5zm24.9.4h1.19c0 1.21-.72 2.61-1.08 3.16l-1.07-.73c.5-.69.9-1.98.96-2.43zm-2.35 0h2.08c0 .6-.56 1.82-.83 2.25l-1.77-1.16.52-1.09z" fill="#BC161D"/><path d="M49 36v-1.04c.1-.2.71-.7 1-.92V36h-1z" fill="#fff"/><path d="M50 36v-3.45a9.77 9.77 0 001-3.23V36h-1z" fill="#BC161D"/><path d="M52 36h-1v-6.59h1V36zm-20-6.82V36h1v-6.82A5.64 5.64 0 0138.4 24c.53 0 1.19.14 1.46.21l1.14-.67a5.8 5.8 0 00-2.6-.54 6.34 6.34 0 00-6.4 6.18z" fill="#fff"/><path d="M34 28.98V36h1v-7.02c0-1.6 1.83-2.98 2.53-2.98l.7-1C35.3 25 34 27.8 34 28.98z" fill="#fff"/></svg>