<svg xmlns="http://www.w3.org/2000/svg" width="56" height="56"><path fill="url(#a44wyuny1)" d="M0 0h56v56H0z"/><path fill-rule="evenodd" d="M10.5 18H8v9h2.5a4.5 4.5 0 100-9zm0 2H10v5h.5a2.5 2.5 0 000-5zM0 29h56v1H0v-1zm27 4h.88a2 2 0 110 4H27v-4zm.75.71h.1a1.29 1.29 0 010 2.58h-.1V33.7zM18 20v1.5h4v2h-4V25h4v2h-6v-9h6v2h-4zm26 1.5V20h4v-2h-6v9h6v-2h-4v-1.5h4v-2h-4zM26 18h-2v9h2v-4.99L29 27h2v-9h-2v5.1L26 18zm14 4.5c0 2.49-1.57 4.5-3.5 4.5S33 24.99 33 22.5s1.57-4.5 3.5-4.5c1.52 0 2.82 1.25 3.3 3h-2.1c-.27-.6-.71-1-1.2-1-.83 0-1.5 1.12-1.5 2.5s.67 2.5 1.5 2.5c.49 0 .93-.4 1.2-1h-1.2v-2h3.48l.02.5zM46.5 37c.83 0 1.5-.9 1.5-2v-.2h-1.5v.62h.64c-.1.4-.36.67-.65.67-.39 0-.7-.49-.7-1.09 0-.6.31-1.09.7-1.09.21 0 .4.15.53.38h.87c-.21-.75-.76-1.29-1.4-1.29-.83 0-1.5.9-1.5 2s.67 2 1.5 2zm-13.1-4h.8v.71h-.8V33zm0 1.12h.8V37h-.8v-2.88zM8 33h.8v1.6h1.21V33h.8v4h-.8v-1.6h-1.2V37H8v-4zm13.4 0h.8v3.19h1V37h-1.8v-4zM16 37c.88 0 1.59-.9 1.59-2s-.71-2-1.59-2c-.88 0-1.59.9-1.59 2s.71 2 1.59 2zm0-1.01c.43 0 .78-.44.78-.99s-.35-.99-.78-.99c-.43 0-.78.44-.78.99s.35.99.78.99zM38.31 37v-4h.74l1.54 2.4V33h.8v4h-.8l-1.54-2.41V37h-.74z" fill="#fff"/><defs><linearGradient id="a44wyuny1" x1="28" y1="30.01" x2="28" y2="30.02" gradientUnits="userSpaceOnUse"><stop stop-color="#01407B"/><stop offset="1" stop-color="#958E7E"/></linearGradient></defs></svg>