<svg xmlns="http://www.w3.org/2000/svg" width="56" height="56" viewBox="0 0 56 56"><path fill="#F0F3FA" d="M0 0h56v56H0z"/><path d="M38 28.17V22.6h.15l.15.03c.05.02.09.06.12.1.07.15.13.32.15.5.01.1.03.2.06.29.01.03.05.05.1.05h.16c.07 0 .11-.04.11-.13v-1.32c0-.08-.04-.12-.11-.12l-.26.04-.27.05h-1.44c-.16 0-.33-.02-.5-.05a1.9 1.9 0 0 0-.29-.04c-.09 0-.13.04-.13.14v1.3c0 .08.04.13.13.13h.16c.06 0 .09-.03.09-.08.02-.25.08-.5.17-.72.03-.06.08-.1.13-.13a.3.3 0 0 1 .17-.04H37v5.57c0 .15 0 .26-.13.35a.21.21 0 0 0-.07.07.24.24 0 0 0-.03.1v.22c0 .06.03.09.09.09h1.26c.07 0 .1-.03.1-.1v-.2a.23.23 0 0 0-.02-.1.2.2 0 0 0-.08-.08c-.13-.1-.13-.2-.12-.35Zm-6-2.29v2.28c0 .08 0 .14.02.2.03.06.07.12.13.15l.08.08.03.1v.2c0 .08-.04.11-.11.11H30.8c-.07 0-.1-.03-.1-.1v-.2c0-.04.02-.08.04-.11a.22.22 0 0 1 .07-.08.4.4 0 0 0 .13-.15.43.43 0 0 0 .05-.2v-2.28l-.87-3.05a.55.55 0 0 0-.26-.35.15.15 0 0 1-.07-.06.16.16 0 0 1-.03-.09v-.23c0-.07.03-.1.08-.1h1.39c.08 0 .12.04.12.12v.21c0 .06-.04.1-.12.13-.13.05-.19.12-.19.2 0 .04 0 .07.02.1l.63 2.2.56-2a.85.85 0 0 0 .02-.22.3.3 0 0 0-.05-.16.27.27 0 0 0-.13-.1c-.08-.03-.11-.08-.11-.13v-.25a.1.1 0 0 1 .02-.07.08.08 0 0 1 .08-.03h1.06c.09 0 .13.03.13.1v.23c0 .07-.04.12-.13.16a.62.62 0 0 0-.32.38L32 25.88Zm2.08-2.97-.04-.3v-.06l-.02-.11c0-.02.02-.06.07-.08l.72-.35.04-.01c.04 0 .07.03.08.08l1.16 6.08c.01.08.04.16.08.24.04.06.1.11.17.15.03.01.05.03.07.06.02.02.03.05.03.09v.2c0 .07-.03.1-.08.1h-1.44c-.07 0-.11-.04-.11-.1v-.2c0-.08.04-.13.14-.18a.28.28 0 0 0 .12-.1.3.3 0 0 0 .04-.16v-.1l-.18-.94H33.8l-.18.9-.01.09c0 .09.06.19.19.3.08.06.12.13.12.18v.2c0 .07-.04.1-.12.1h-.9c-.1 0-.15-.03-.15-.1v-.23l.03-.09a.17.17 0 0 1 .06-.06.55.55 0 0 0 .24-.38l1-5.22Zm.3 1.44-.45 2.3h.89l-.44-2.3Zm6.27 3.81a.41.41 0 0 0 .16.35l.08.08c.02.03.03.07.03.1v.2c0 .08-.04.11-.11.11h-1.34c-.06 0-.1-.03-.1-.1v-.2c0-.04.02-.08.04-.11a.22.22 0 0 1 .08-.08.4.4 0 0 0 .12-.15.42.42 0 0 0 .04-.2v-5.33c0-.07 0-.13-.04-.2a.39.39 0 0 0-.12-.15.21.21 0 0 1-.08-.08.23.23 0 0 1-.03-.1v-.2c0-.07.03-.1.1-.1h1.35c.06 0 .1.03.1.1v.2c-.01.04-.02.08-.04.1a.22.22 0 0 1-.08.09.42.42 0 0 0-.16.35v5.32Zm1.83 0v-2.44a.39.39 0 0 1 .29.13c.1.16.17.34.2.53l.59 2.47c0 .04.02.08.05.1.03.04.07.05.1.05h.86a.08.08 0 0 0 .07-.03.09.09 0 0 0 .03-.07v-.26a.1.1 0 0 0-.01-.04.1.1 0 0 0-.03-.04.6.6 0 0 1-.2-.18c-.05-.12-.09-.25-.11-.38L44 26.58a1.67 1.67 0 0 0-.27-.67 1.62 1.62 0 0 0-.54-.4c.8-.27 1.2-.86 1.2-1.76 0-.57-.17-1-.5-1.3-.33-.3-.82-.45-1.45-.45h-1.12c-.07 0-.11.03-.11.1v.2a.21.21 0 0 0 .11.18c.06.04.1.1.13.15.03.07.04.13.03.2v5.33c0 .07 0 .14-.03.2a.4.4 0 0 1-.13.15.22.22 0 0 0-.08.08.23.23 0 0 0-.03.1v.22c0 .06.03.09.1.09h1.33c.08 0 .12-.03.12-.1v-.2a.23.23 0 0 0-.04-.11.21.21 0 0 0-.08-.08.4.4 0 0 1-.12-.15.41.41 0 0 1-.04-.2Zm0-2.98v-2.64a.87.87 0 0 1 .68.24c.15.15.22.48.22 1 0 .53-.07.9-.22 1.1a.8.8 0 0 1-.3.24.76.76 0 0 1-.38.06ZM46 28.16c0 .07.02.14.05.2.03.06.07.11.12.15l.08.08c.02.03.03.07.03.1v.2c0 .08-.03.11-.1.11h-1.35c-.06 0-.1-.03-.1-.1v-.2l.04-.11a.22.22 0 0 1 .08-.08.4.4 0 0 0 .13-.15.41.41 0 0 0 .02-.2v-5.33a.4.4 0 0 0-.02-.2.39.39 0 0 0-.13-.15.21.21 0 0 1-.08-.08.23.23 0 0 1-.03-.1v-.2c0-.07.04-.1.11-.1h1.34c.06 0 .1.03.1.1v.2c0 .04-.02.08-.04.1a.22.22 0 0 1-.08.09.4.4 0 0 0-.12.15.43.43 0 0 0-.05.2v5.32Zm.98-5.33v5.33a.42.42 0 0 1-.15.35.22.22 0 0 0-.08.07.23.23 0 0 0-.03.1v.22c0 .06.03.1.1.1h.95c.07 0 .1-.04.1-.11v-.2a.23.23 0 0 0-.02-.1.21.21 0 0 0-.08-.08.4.4 0 0 1-.13-.15.41.41 0 0 1-.03-.2V22.7l.91 6.3h.34l.93-6.3v5.46c0 .07-.02.14-.05.2a.4.4 0 0 1-.13.15.22.22 0 0 0-.07.07.23.23 0 0 0-.03.1v.22a.09.09 0 0 0 .02.07l.03.02h1.33c.07 0 .11-.03.11-.1v-.2a.23.23 0 0 0-.03-.1.21.21 0 0 0-.08-.08.39.39 0 0 1-.13-.15.4.4 0 0 1-.04-.2v-5.33c0-.07.02-.13.04-.2a.4.4 0 0 1 .13-.15.22.22 0 0 0 .08-.07.24.24 0 0 0 .03-.11v-.2c0-.07-.03-.1-.1-.1h-1.56l-.48 3.28-.49-3.28h-1.55c-.07 0-.11.03-.11.1v.2a.21.21 0 0 0 .11.18c.05.04.1.1.13.15a.4.4 0 0 1 .03.2ZM20 31.83v5.33c0 .06.02.11.05.16l.02.04c.03.06.07.12.13.15l.07.08.04.1v.2c0 .08-.04.11-.12.11h-1.33c-.06 0-.1-.03-.1-.1v-.2c0-.04.02-.08.04-.11a.22.22 0 0 1 .07-.08.4.4 0 0 0 .13-.15c.02-.04.01-.09 0-.14V34.5h-1v2.66c0 .05.03.1.05.14l.04.06c.02.06.07.11.12.15l.08.08c.02.03.03.07.03.1v.2c0 .08-.03.11-.1.11h-1.34c-.07 0-.1-.03-.1-.1v-.2c0-.04.02-.08.04-.11a.22.22 0 0 1 .07-.08c.13-.09.12-.17.11-.28v-5.46c.01-.12.02-.2-.11-.3a.2.2 0 0 1-.08-.07.22.22 0 0 1-.03-.1v-.2c0-.07.03-.1.11-.1h1.34c.06 0 .1.03.1.1v.2c0 .04-.02.08-.04.1a.22.22 0 0 1-.08.09.4.4 0 0 0-.12.15l-.04.05c-.02.05-.05.1-.05.14V34h1v-2.23c.01-.05.02-.1 0-.13a.39.39 0 0 0-.13-.15.2.2 0 0 1-.08-.08.22.22 0 0 1-.03-.11v-.2c0-.07.04-.1.11-.1h1.34c.06 0 .1.03.1.1v.2l-.04.1a.22.22 0 0 1-.07.09.4.4 0 0 0-.13.15l-.02.03c-.02.05-.05.1-.05.16ZM22.3 38c-.6 0-1.05-.3-1.35-.92a5.97 5.97 0 0 1-.45-2.55c0-1.08.15-1.94.45-2.58.3-.63.74-.95 1.3-.95.54 0 .97.3 1.28.88.31.59.47 1.45.47 2.6 0 1.17-.16 2.05-.47 2.64-.3.59-.72.88-1.23.88Zm-.05-.47a.45.45 0 0 0 .36-.26c.11-.17.19-.63.24-1.4.04-.75.07-1.45.06-2.08.01-.48-.02-.95-.1-1.42-.07-.37-.14-.6-.23-.7a.38.38 0 0 0-.3-.17.4.4 0 0 0-.3.12.88.88 0 0 0-.2.44 32.22 32.22 0 0 0-.18 3.16c0 .83.06 1.42.17 1.77.1.36.26.54.48.54Zm2.34-5.7v5.33c0 .07-.01.14-.04.2a.37.37 0 0 1-.13.15.2.2 0 0 0-.08.08.23.23 0 0 0-.04.1v.18c0 .08.04.13.13.13H27v-1.61c0-.07-.04-.1-.1-.1h-.2c-.03 0-.06.01-.07.03l-.04.22c-.03.26-.11.5-.25.72a.6.6 0 0 1-.22.16.54.54 0 0 1-.25.05h-.35v-5.64c0-.07.01-.13.04-.2a.4.4 0 0 1 .11-.14.21.21 0 0 0 .08-.08.25.25 0 0 0 .03-.11v-.2c0-.07-.03-.1-.09-.1h-1.25c-.07 0-.1.03-.1.1v.2c0 .03 0 .07.02.1a.2.2 0 0 0 .08.08c.05.04.09.1.12.15.02.07.03.13.03.2Zm2.59-.53v-.23c0-.05.03-.07.1-.07h1.11c.31 0 .61.07.9.2.27.15.5.35.7.6.43.55.65 1.42.65 2.63a8 8 0 0 1-.2 1.79c-.1.49-.3.94-.63 1.32-.28.3-.77.46-1.45.46h-1.1c-.05 0-.08-.02-.08-.08v-.23a.22.22 0 0 1 .1-.18.43.43 0 0 0 .16-.35v-5.33a.4.4 0 0 0-.02-.18.37.37 0 0 0-.11-.15.25.25 0 0 1-.1-.08.27.27 0 0 1-.03-.12Zm1.26.23v5.95c.24.01.47-.06.66-.22.16-.14.27-.46.34-.95a12.55 12.55 0 0 0 .03-3.3c-.03-.3-.1-.6-.2-.9a.93.93 0 0 0-.3-.42c-.17-.1-.35-.15-.53-.16Zm3.6 5.83a.41.41 0 0 1-.04-.2v-5.33a.42.42 0 0 1 .17-.34.22.22 0 0 0 .08-.08.23.23 0 0 0 .03-.11v-.2c0-.07-.03-.1-.1-.1h-1.33c-.08 0-.12.03-.12.1v.2c0 .03.02.07.04.1.02.04.04.06.08.08.05.04.1.1.12.15a.4.4 0 0 1 .03.2v5.33c0 .07 0 .14-.03.2a.4.4 0 0 1-.12.15.22.22 0 0 0-.08.08.23.23 0 0 0-.04.1v.22c0 .06.04.09.1.09h1.34c.07 0 .11-.03.11-.1v-.2a.23.23 0 0 0-.03-.11.21.21 0 0 0-.08-.08.4.4 0 0 1-.13-.15Zm3.2-2.59v-2.94a.4.4 0 0 0-.04-.2.39.39 0 0 0-.13-.14.21.21 0 0 1-.08-.08.22.22 0 0 1-.03-.1v-.2c0-.08.03-.1.11-.1h.97c.06 0 .1.02.1.08v.21a.23.23 0 0 1-.11.18.4.4 0 0 0-.17.35v6.02c0 .1-.04.15-.13.15h-.19a.18.18 0 0 1-.1-.04.2.2 0 0 1-.08-.1l-1.86-4.89v4.2c0 .04.03.08.07.12l.05.07c.03.07.08.12.13.16.03.01.06.04.08.07.02.03.03.07.03.1v.2c0 .08-.04.11-.11.11h-.96c-.06 0-.1-.03-.1-.1v-.2c0-.04.02-.08.04-.1a.22.22 0 0 1 .08-.08.4.4 0 0 0 .12-.16l.02-.03c.03-.05.05-.1.05-.16v-5.34a.34.34 0 0 0-.05-.17l-.02-.03a.39.39 0 0 0-.12-.15.21.21 0 0 1-.08-.08.22.22 0 0 1-.03-.1v-.2c0-.07.03-.1.1-.1h.91c.05 0 .1 0 .13.03.04.03.06.07.07.11l1.32 3.63Zm3.87.23h-1.09c-.07 0-.1.05-.1.12v.18c0 .03.01.05.03.08l.06.04c.1.03.2.1.26.19.04.11.07.23.06.35v1c0 .37-.13.55-.38.55a.46.46 0 0 1-.3-.1.87.87 0 0 1-.23-.42 5.2 5.2 0 0 1-.17-.89 21.8 21.8 0 0 1 0-3.24c.05-.58.13-.95.25-1.1a.5.5 0 0 1 .42-.25c.35 0 .6.34.75 1.02.01.1.04.19.07.28 0 .01.04.02.1.02h.18c.07 0 .1-.04.1-.13v-1.46c0-.08-.03-.12-.11-.12h-.17a.24.24 0 0 0-.1.03.28.28 0 0 1-.1.04.35.35 0 0 1-.13-.05 1.32 1.32 0 0 0-.58-.14c-.35 0-.67.19-.98.57-.32.42-.55.9-.65 1.42a8.09 8.09 0 0 0-.19 1.77c0 2.16.65 3.24 1.95 3.24.41 0 .82-.11 1.19-.32a.21.21 0 0 0 .1-.17v-.16a.14.14 0 0 0-.05-.12.24.24 0 0 1-.06-.18v-1.28a6.66 6.66 0 0 1 .03-.63c0-.03 0-.07-.02-.1-.05-.02-.1-.05-.14-.04ZM20.37 21.64a.45.45 0 0 0 .04-.18.44.44 0 0 0-.14-.32.46.46 0 0 0-.65 0 .45.45 0 0 0-.1.5c.02.06.05.11.1.15a.44.44 0 0 0 .32.14.45.45 0 0 0 .33-.14c.05-.04.08-.09.1-.15Zm3.55 1.2L23 24.74v-1.92c0-.05.02-.1.05-.15l.02-.04a.39.39 0 0 1 .13-.15.22.22 0 0 0 .07-.08.23.23 0 0 0 .04-.11v-.2c0-.07-.03-.1-.1-.1h-1.34c-.07 0-.1.03-.1.1v.2c0 .03 0 .07.03.1l.07.08c.06.04.1.1.13.15.02.05.01.1 0 .15V28.22c.01.05.02.1 0 .14a.4.4 0 0 1-.13.15.2.2 0 0 0-.07.08.22.22 0 0 0-.04.1v.22c0 .06.03.09.1.09h1.34c.07 0 .1-.03.1-.1v-.2a.23.23 0 0 0-.03-.11.22.22 0 0 0-.07-.08.4.4 0 0 1-.13-.15l-.02-.04c-.03-.05-.05-.1-.05-.16v-2.68l.91 2.68c.02.04.02.09.03.14 0 .06-.06.14-.17.22a.24.24 0 0 0-.09.2v.14c0 .1.05.14.14.14h1.43c.09 0 .13-.05.13-.13v-.15a.31.31 0 0 0-.14-.23c-.2-.14-.34-.35-.42-.6l-1.07-3.28.67-1.42c.14-.3.37-.54.66-.67l.15-.1a.17.17 0 0 0 .03-.12v-.18c0-.08-.04-.12-.13-.12h-1.27c-.07 0-.11.04-.11.12v.18c0 .04.02.08.03.1.02.04.05.06.08.08.07.05.1.1.1.15 0 .07-.01.14-.04.2ZM8.77 29h2.94v-1.62a.1.1 0 0 0-.03-.08.1.1 0 0 0-.08-.03h-.18c-.08 0-.13.05-.16.16-.12.48-.22.77-.3.88a.56.56 0 0 1-.45.16H10v-2.84h.1a.4.4 0 0 1 .25.07c.1.11.15.25.17.4.01.06.04.13.07.2a.1.1 0 0 0 .08.03h.2a.09.09 0 0 0 .08-.03.1.1 0 0 0 .03-.08v-1.69c0-.08-.04-.11-.11-.11h-.2l-.07.01a.6.6 0 0 0-.05.14 1.5 1.5 0 0 1-.17.46.34.34 0 0 1-.26.08H10v-2.55h.47c.24 0 .4.09.49.25.09.2.15.4.17.6 0 .08.05.13.11.13h.16c.04 0 .08 0 .11-.02a.22.22 0 0 0 .02-.13v-1.31c0-.05-.04-.08-.14-.08H8.77c-.07 0-.1.06-.1.11v.22c0 .03 0 .07.03.1l.07.08c.06.03.1.09.13.15l.04.07c.03.04.06.08.06.13v5.3c0 .04-.02.08-.05.12a.32.32 0 0 0-.04.06.39.39 0 0 1-.1.15c-.1.07-.14.14-.14.2v.2a.1.1 0 0 0 .03.08.09.09 0 0 0 .08.03ZM5 22.07v.23c0 .04.02.08.04.12.02.03.05.06.09.08.04.04.08.09.1.15.03.06.04.12.04.18v5.33a.43.43 0 0 1-.16.35.22.22 0 0 0-.08.08.24.24 0 0 0-.03.1v.24c0 .04.03.07.08.07h1.1c.68 0 1.17-.15 1.46-.46.31-.38.53-.83.62-1.32a8 8 0 0 0 .2-1.8c0-1.2-.22-2.07-.65-2.61a2.02 2.02 0 0 0-.7-.6 1.93 1.93 0 0 0-.9-.21H5.1c-.07 0-.1.02-.1.07Zm1.26 6.4v-5.94c.18 0 .37.06.53.16.14.1.24.26.3.43.1.29.17.6.2.9.07.54.1 1.08.09 1.62 0 .56-.04 1.12-.11 1.67-.07.5-.19.8-.35.95a.95.95 0 0 1-.66.22ZM13 25.73v2.44c0 .07 0 .14.04.2a.4.4 0 0 0 .12.15l.08.08c.02.03.03.07.03.1v.2c0 .08-.03.1-.1.1h-1.35c-.06 0-.1-.02-.1-.08v-.22l.04-.1a.22.22 0 0 1 .08-.08.4.4 0 0 0 .12-.15.42.42 0 0 0 .04-.2v-5.33c0-.07 0-.14-.03-.2a.39.39 0 0 0-.13-.15.21.21 0 0 1-.08-.08.23.23 0 0 1-.03-.1v-.2c0-.07.03-.1.1-.1h1.13c.63 0 1.11.15 1.45.45.33.3.5.73.5 1.3 0 .9-.4 1.49-1.2 1.75.2.1.38.24.53.4.14.2.24.44.28.68l.31 1.42c.03.13.07.26.12.38.05.07.12.13.2.18a.1.1 0 0 1 .03.06l.02-.03a.21.21 0 0 1 .08-.07c.06-.04.11-.09.15-.15a.4.4 0 0 0 .04-.2v-5.34c0-.07 0-.14-.04-.2a.39.39 0 0 0-.13-.15.21.21 0 0 1-.07-.07.23.23 0 0 1-.04-.1v-.2c0-.08.04-.11.11-.11h1.34c.06 0 .1.03.1.1v.2c0 .04-.02.08-.04.1a.22.22 0 0 1-.08.09.4.4 0 0 0-.12.15.42.42 0 0 0-.04.2v5.63h.37a.6.6 0 0 0 .5-.21c.14-.21.23-.46.26-.72l.05-.22c.01-.02.04-.03.08-.03h.2c.07 0 .07.03.07.08V29h-2.69c-.06 0-.1-.02-.12-.06l-.02.03a.08.08 0 0 1-.07.03h-.85a.15.15 0 0 1-.1-.04.17.17 0 0 1-.06-.1l-.58-2.48c-.03-.2-.1-.37-.21-.53a.4.4 0 0 0-.3-.13Zm0-3.18v2.64c.13.01.26-.01.38-.06a.8.8 0 0 0 .3-.24c.14-.2.22-.57.22-1.1 0-.52-.07-.84-.22-1a.9.9 0 0 0-.68-.24Zm8.19 4.77c0 .53-.13.94-.4 1.24a1.31 1.31 0 0 1-1.01.45 1.32 1.32 0 0 1-1.04-.45 1.67 1.67 0 0 1-.4-1.16v-4.57a.4.4 0 0 0-.16-.35.23.23 0 0 1-.11-.18v-.19c0-.07.03-.1.1-.1h1.34c.07 0 .1.03.1.1v.2c0 .03-.01.07-.03.1a.22.22 0 0 1-.08.08.38.38 0 0 0-.13.15.4.4 0 0 0-.04.19v4.62c0 .61.2.92.6.92.43 0 .65-.36.65-1.08v-4.46a.4.4 0 0 0-.17-.35.22.22 0 0 1-.11-.18v-.19c0-.07.04-.1.11-.1h.96c.06 0 .1.03.1.1v.2a.23.23 0 0 1-.12.18.4.4 0 0 0-.16.34v4.49Zm4.5 1.58h-.2c-.08 0-.11-.04-.11-.12v-1.66c0-.11.04-.17.11-.17h.19a.1.1 0 0 1 .05.02.1.1 0 0 1 .04.04c.04.11.06.23.07.35.12.77.39 1.15.8 1.14a.57.57 0 0 0 .52-.29c.13-.2.2-.45.19-.7 0-.27-.07-.55-.2-.79a5.6 5.6 0 0 0-.78-.98 8.26 8.26 0 0 1-.63-.74 2.23 2.23 0 0 1-.41-1.32c-.02-.43.1-.85.36-1.2a1.08 1.08 0 0 1 .87-.47c.18 0 .35.06.5.14.06.03.11.06.17.06.03 0 .07 0 .1-.03a.24.24 0 0 1 .12-.03h.16c.08 0 .13.04.13.12v1.45c0 .07-.04.1-.1.1h-.2c-.05 0-.08 0-.1-.04l-.08-.31c-.13-.64-.35-.96-.66-.96a.45.45 0 0 0-.39.21.83.83 0 0 0-.15.49c0 .23.07.46.18.66.2.32.43.62.7.88.36.36.67.78.92 1.23.17.36.26.75.25 1.15.02.49-.13.97-.42 1.36a1.3 1.3 0 0 1-1.02.52c-.21 0-.42-.06-.61-.14a.46.46 0 0 0-.16-.05.22.22 0 0 0-.11.04.17.17 0 0 1-.1.04Z" fill="#0F1921"/></svg>