<svg xmlns="http://www.w3.org/2000/svg" width="56" height="56"><path fill="url(#azn2kzqbe)" d="M0 0h56v56H0z"/><path d="M32.02 25.3l-1.7 1.55a2.49 2.49 0 00-3.27-.34c-1.94 1.42-.8 4.57 1.59 4.44.9-.05 1.86-.45 2.09-1.45H29V28h4.25c0 2.93-1.73 5.23-4.61 5.23a4.8 4.8 0 01-3.8-7.92c1.76-1.94 5.44-2.16 7.18 0zM4 33v-8.99h4C13.5 24 13.5 33 8 33H4zm2-2h2c3 0 2.75-5 0-5H6v5zm45.56-6.27l-1.25 1.85a3.95 3.95 0 00-1.88-.67c-.4-.04-1.37-.13-1.4.49a.4.4 0 00.26.4c1.12.49 2.31.8 3.4 1.38 1.38.75 1.7 2.43.7 3.65a3.78 3.78 0 01-2.03 1.24c-1.73.46-3.3.09-4.76-.89-.27-.18-.52-.4-.79-.61l1.44-1.55c.87.54 1.69.98 2.73 1.09.36.03.72 0 1.05-.13.38-.16.62-.66.18-.93-1.28-.79-2.9-.66-4.1-1.66a2.42 2.42 0 01-.03-3.65c1.67-1.5 4.72-1.29 6.49 0zM34 24h2v4.73c.02 3.34 5 3.34 5 .01V24h2c0 1.55.01 3.27 0 4.82-.07 6.04-9 5.53-9-.1V24zm-11.44 5.92C19 26 15.5 27 13.16 29.98c-.04-.21-.1-.42-.13-.63C14.26 28 18 24.5 22.7 29.3l-.14.63z" fill="#fff"/><path d="M14.03 31.59l-.28-.49c.75-4.1 6.78-4.53 8.25-.4l-.29.8c-1.06-4.58-7.21-4-7.68.09z" fill="#fff"/><path d="M12.97 28.6l.01-.57a6.33 6.33 0 019.7-.13l.1.66a6.2 6.2 0 00-9.8.03z" fill="#fff"/><path d="M22.59 27.05c-2.57-2.33-7.05-2.4-9.48.19.04-.03 0 0 0 0 .16-.44.24-.86.63-1.15a7.12 7.12 0 018.03-.09c.48.32.6.53.82 1.05zm-7.56 5.47l-.33-.34c.8-4.18 5.8-3.68 6.38-.15l-.38.43c-.68-3.3-4.7-3.96-5.67.06zM30 23h-3v-2h3v2z" fill="#fff"/><path d="M19.95 32.91C19 30 16.5 30 15.83 32.97l-.44-.3C16.5 29 19.7 30 20.33 32.6l-.38.31zm1.37-7.9c-2.4-1.38-4.74-1.26-7.07.2a4.87 4.87 0 017.07-.2zM48 36a.98.98 0 01-.99-1 1 1 0 011-1 1 1 0 011 1 .99.99 0 01-1 1z" fill="#fff"/><path d="M18.78 33.3s-.15-1.5-.94-1.5c-.8 0-.94 1.5-.94 1.5l-.38-.09c-.02-1.71 1.98-3.21 2.75-.1l-.49.2z" fill="#fff"/><defs><linearGradient id="azn2kzqbe" x1="10.42" y1="9.71" x2="68.15" y2="76.02" gradientUnits="userSpaceOnUse"><stop stop-color="#1A1E21"/><stop offset="1" stop-color="#06060A"/></linearGradient></defs></svg>