<svg xmlns="http://www.w3.org/2000/svg" width="56" height="56"><path fill="#F0F3FA" d="M0 0h56v56H0z"/><path d="M28.14 30.93c-2.53.36 1.45 1.82 1.45 2.18-3.02.49-8.4-.65-7.24-4.73 1.16-4.07 6.78-2.75 11.59-4.36 3.26-1.1 6.15-5.35 1.44-6.55-3.14-.8-6.12-.24-8.69 1.06-7.96 3.67-11.57 13.67-3.26 18.22 6.16 2.9 10.96.35 11.6-.07.86-.59-1.1-2.11-3.27-2.84 2.54-1.1 8.7.73 7.97 4.36-1.45 5.1-10.86 6.55-15.57 5.46-6.08-1.52-10.18-6.02-10.87-10.55-1.73-11.52 4.62-16.16 9.42-18.91 5.07-2.91 19.87-4.55 20.28 5.82.36 9.09-10.49 10.28-14.85 10.9z" fill="url(#a5dccxggv)"/><path d="M28.14 30.93c-2.53.36 1.45 1.82 1.45 2.18-3.02.49-8.4-.65-7.24-4.73 1.16-4.07 6.78-2.75 11.59-4.36 3.25-1.1 6.15-5.35 1.44-6.55-3.14-.8-6.12-.24-8.69 1.06-7.96 3.67-11.57 13.67-3.26 18.22 6.16 2.9 10.96.35 11.6-.07.86-.59-1.1-2.11-3.27-2.84 2.54-1.1 8.7.73 7.97 4.36-1.45 2.55-7.24 4-11.95 2.91-5.64-.7-9.82-5.79-9.8-11.27.03-7.59 4.64-12.88 11.61-14.94 6.2-1.84 13.15-1.15 13.4 5.12.36 9.09-10.49 10.28-14.85 10.9z" fill="url(#b5dccxggv)"/><path d="M35.02 34.2c1.45.73 1.09 1.46 1.09 1.46 0 .1-.17.3-.47.57l-.53.38a.3.3 0 01-.09.07l.09-.07c.13-.13.13-.38.08-.52a2.4 2.4 0 00-.75-.86 10.12 10.12 0 00-2.67-1.4 4.68 4.68 0 013.25.37z" fill="#804116"/><path d="M24.48 17.38a10.68 10.68 0 00-2.77 2.34l-.18-.13c.47-.65 1.48-1.53 2.84-2.4a23.26 23.26 0 014.96-2.37 17.56 17.56 0 016.15-1c.86.03 1.72.14 2.56.35 1.62.4 3.5 1.3 4.19 2.94-1.83-2.81-5.75-3.32-8.8-3-1.38.15-2.75.48-4.03.92-1.87.63-3.57 1.5-4.92 2.35z" fill="url(#c5dccxggv)"/><path d="M21.47 37.76c-3.27-3.33-4.26-8.47-2.64-12.98l-.2-.07c-1.65 4.58-.65 9.81 2.69 13.2 2.36 2.41 5.88 3.89 10.44 3.58 1.27-.09 2.61-.3 4.03-.69a6.35 6.35 0 003.4-1.87c-1.27 1.1-1.94 1.24-3.22 1.6-1.4.38-2.71.62-3.95.72-4.64.38-8.19-1.09-10.55-3.49z" fill="url(#d5dccxggv)"/><defs><linearGradient id="a5dccxggv" x1="34.3" y1="12.02" x2="25.54" y2="44" gradientUnits="userSpaceOnUse"><stop stop-color="#6D3810"/><stop offset=".11" stop-color="#B25717"/><stop offset=".22" stop-color="#F7905F"/><stop offset=".34" stop-color="#FD9"/><stop offset=".46" stop-color="#FFE5AF"/><stop offset=".57" stop-color="#FFF1D7"/><stop offset=".68" stop-color="#FDCBB5"/><stop offset=".82" stop-color="#FAA47D"/><stop offset=".91" stop-color="#EE8655"/><stop offset="1" stop-color="#723A10"/></linearGradient><linearGradient id="b5dccxggv" x1="23.8" y1="17.47" x2="39.46" y2="38.5" gradientUnits="userSpaceOnUse"><stop stop-color="#EB7E52"/><stop offset=".22" stop-color="#B45917"/><stop offset=".42" stop-color="#FFDC96"/><stop offset=".52" stop-color="#FEC88B"/><stop offset=".6" stop-color="#FAAD7A"/><stop offset=".69" stop-color="#F7996C"/><stop offset=".79" stop-color="#F5835D"/><stop offset="1" stop-color="#773C10"/></linearGradient><linearGradient id="c5dccxggv" x1="31.4" y1="13.94" x2="31.4" y2="17.83" gradientUnits="userSpaceOnUse"><stop stop-color="#FEF5EC"/><stop offset="1" stop-color="#FED99A"/></linearGradient><linearGradient id="d5dccxggv" x1="27.78" y1="41.07" x2="27.78" y2="34.57" gradientUnits="userSpaceOnUse"><stop stop-color="#FEF5EC"/><stop offset="1" stop-color="#FED99A"/></linearGradient></defs></svg>