<svg width="56" height="56" xmlns="http://www.w3.org/2000/svg"><path fill="#7A7779" d="M0 0h56v56H0z"/><path d="M3 31h3.507v-1.699H5v-1.02h1.304v-1.698H5v-.952h1.507V24H3v7zm6.222-1.576c-.352 0-.394-.572-.394-1.026 0-.454 0-.982.394-.982.352 0 .352.529.352.982 0 .454 0 1.026-.352 1.026zM11.572 26H9.575v.713C9.293 26.324 9.11 26 8.547 26c-1.267 0-1.619 1.556-1.619 2.463s.352 2.534 1.619 2.534c.492 0 .816-.165 1.027-.554v.554c0 .387 0 .642-.253.642-.281 0-.422-.13-.422-.39h-1.9C7.139 32.482 7.984 33 9.25 33c1.618 0 2.322-.778 2.322-2.203V26zm2.206 1.933c0-.266.133-.6.397-.6.33 0 .462.334.462.6h-.859zm.793 1.334c0 .2-.132.333-.33.333-.396 0-.462-.4-.462-.733h2.643c0-.734-.066-1.467-.529-2.067-.33-.467-.859-.8-1.586-.8-1.52 0-2.313 1.2-2.313 2.6 0 1.4.793 2.4 2.247 2.4 1.058 0 1.916-.6 2.115-1.733H14.57zM18 31h3.448v-1.699H20v-1.02h1.316v-1.698H20v-.952h1.448V24H18v7zm6.364-5h-1.996v5h1.996v-2.365c0-.473.135-.81.522-.81.31 0 .478.27.478.675V31h1.998v-3.243c0-.879-.31-1.757-1.548-1.757-.696 0-1.218.54-1.45 1.013V26zm5.646 3.54c-.303 0-.313-.392-.313-.958 0-.51-.032-.955.27-.955.304 0 .304.51.304.955 0 .509.043.959-.26.959zm.2 1.46H32v-7h-1.73v2.872c-.181-.446-.391-.872-.876-.872C28.243 26 28 27.755 28 28.645 28 29.6 28.242 31 29.394 31c.485 0 .635-.255.816-.7v.7zM33 26v2.915c0 1.338.885 2.085 2.29 2.085 1.338 0 2.223-.68 2.223-2.085V26H35.6v2.647c0 .602.024.854-.31.854-.268 0-.29-.251-.29-.854V26h-2zm1.262-.564a.742.742 0 00.736-.735c0-.469-.334-.736-.803-.736a.742.742 0 00-.736.736c0 .401.335.735.803.735zm1.94 0c.468 0 .803-.334.803-.735 0-.469-.402-.736-.803-.736a.742.742 0 00-.736.736c0 .401.334.735.736.735zm2.088 5.097c.595.267 1.058.467 1.718.467.991 0 1.916-.6 1.916-1.667 0-.8-.528-1.133-1.189-1.4-.132-.066-.528-.2-.528-.4s.132-.266.264-.266c.33 0 .529.266.793.466l.594-1.333a2.992 2.992 0 00-1.453-.4c-1.123 0-1.916.667-1.916 1.6 0 .867.529 1.2 1.255 1.466.264.134.463.2.463.4 0 .134-.199.2-.397.2-.33 0-.66-.266-.859-.466l-.66 1.333zM45 31v-3.255h.688v-1.34H45V25h-2.002v1.404h-.523v1.34h.523V31H45zm5.072-5c-.736 0-1.163.386-1.384.995V26h-2v5h2v-1.96c0-.54.06-1.215.795-1.215.147 0 .368.135.589.202V26zM51 31h2v-4.586h-2V31zm.997-5c.564 0 1.003-.498 1.003-1 0-.564-.439-1-1.003-1-.501 0-.997.436-.997 1 0 .564.496 1 .997 1z" fill="#fff"/></svg>