<svg width="56" height="56" xmlns="http://www.w3.org/2000/svg"><path fill="#F0F3FA" d="M0 0h56v56H0z"/><path d="M14.977 15.065c.407-.133.844-.02 1.264-.022 1.882.059 3.758.251 5.642.265.728.025 1.466.008 2.179.179 1.403.205 2.828.144 4.24.09a46.635 46.635 0 003.426-.228c1.673-.223 3.366-.418 5.058-.312 1.196.11 2.398.12 3.596.22.262.018.552.218.551.494.018.947-.055 1.891-.126 2.835-.029.2-.013.43-.163.59-.135.17-.375.149-.57.181-.399.025-.808.128-1.202.018-.672-.192-1.344-.386-2.02-.563-1.127-.227-2.27-.382-3.379-.689-.41-.1-.747-.372-1.156-.478a4.018 4.018 0 00-1.105-.164c-.49.004-.923.256-1.375.408-2.805 1.076-5.654 2.117-8.224 3.677a41.282 41.282 0 00-4.207 2.898c-.177.131-.364.274-.592.303-.438-.143-.83-.394-1.26-.557-.24-.09-.541-.076-.707-.297-.372-.412-.373-.99-.352-1.506.065-2.239-.068-4.478-.013-6.715a.85.85 0 01.495-.627z" fill="#005AAB"/><path d="M28.696 19.737c.467-.093.938.045 1.368.219.912.375 1.87.654 2.855.768 1.91.35 3.802.78 5.69 1.218 1.635.381 3.16 1.11 4.568 1.99.252.166.516.327.723.548.166.181.092.438.017.641-.22.544-.605 1-.944 1.475-.152.202-.34.435-.623.44-.439.022-.858-.147-1.294-.16-.347-.009-.66-.168-.967-.304-2.302-1.063-4.34-2.58-6.614-3.69-.403-.217-.88-.096-1.317-.124-.823.055-1.553-.367-2.304-.62-.508-.173-1.044-.501-1.592-.267-.583.26-1.054.705-1.612 1.008-1.51.85-3.08 1.598-4.61 2.415-1.644.892-3.335 1.7-4.988 2.577-1.278.65-2.44 1.487-3.554 2.37-.372.367-1.028.234-1.364-.112-.279-.315-.08-.78.204-1.021.883-.751 1.728-1.548 2.675-2.223 1.075-.76 2.129-1.553 3.26-2.235a45.64 45.64 0 013.392-1.936c1.161-.712 2.42-1.256 3.646-1.856.621-.318 1.257-.634 1.947-.788.479-.112.955-.235 1.438-.333z" fill="#ED1B24"/><path d="M18.336 27.887c.198-.102.594-.113.61.177.183 1.157.128 2.333.204 3.5.017.41.002.822.034 1.233.063.63.414 1.268 1.011 1.56.341.172.727.014 1.086.007 1.342-.061 2.682-.139 4.023-.233 1.26-.063 2.516.088 3.774.13.843-.002 1.69.046 2.522.192.413.056.828.154 1.25.116.54-.049 1.083-.038 1.625-.041.966-.013 1.932-.063 2.898-.001 1.016.084 2.036.126 3.047.256.386.05.832.341.757.77-.068 1.272-.16 2.545-.139 3.82.037.459-.337.942-.832.939-.944 0-1.886-.05-2.83-.055-.746-.06-1.48.103-2.211.21-.976.124-1.938.332-2.918.415-1.77.089-3.543.157-5.316.093-.999-.05-2-.048-3.001-.043-1.283-.018-2.567.123-3.849.029-.971-.06-1.923-.394-2.904-.29-.623.058-1.252.086-1.877.045-.551-.295-.49-.99-.502-1.51-.101-.887.044-1.773-.001-2.66-.062-.746-.035-1.495-.033-2.242.104-1.09-.066-2.201.164-3.282.145-.706.661-1.262 1.186-1.739.644-.6 1.48-.933 2.222-1.396z" fill="#00A65E"/></svg>