<svg xmlns="http://www.w3.org/2000/svg" width="56" height="56"><path fill="#F0F3FA" d="M0 0h56v56H0z"/><path d="M17.5 14.8l-.28.22.23.31.2-.16c1.06.55 2.25.3 2.2 0-.05-.29-.63-.53-1-.59-.3-.04-.16-.2-.05-.27.08 0 .32-.07.55-.28.22-.2.22-.6.18-.76a2.67 2.67 0 00-2.04 1.54z" fill="#FFF80B"/><path fill-rule="evenodd" d="M19.75 15.2a.3.3 0 00-.1-.16 1.04 1.04 0 00-.23-.16 2 2 0 00-.59-.2.4.4 0 01-.2-.07.17.17 0 01-.06-.17l.08-.13a.55.55 0 01.09-.08l.02-.02h.03c.06 0 .28-.06.5-.26.08-.08.13-.2.15-.33v-.24a2.58 2.58 0 00-1.85 1.47l-.01.02-.22.17.1.15.19-.14.05.03a2.8 2.8 0 001.46.31c.2-.02.37-.06.48-.1a.32.32 0 00.1-.07l.01-.02zm-2.08.09c.53.26 1.08.33 1.5.3.23-.02.42-.06.55-.12a.51.51 0 00.17-.12.23.23 0 00.06-.2.49.49 0 00-.16-.26 1.24 1.24 0 00-.27-.2 2.2 2.2 0 00-.74-.23l.01-.01a.32.32 0 01.04-.04c.12-.02.36-.1.58-.3.14-.13.2-.3.23-.46.02-.16 0-.3-.01-.4l-.02-.1-.09.02a2.77 2.77 0 00-2.1 1.57l-.34.26.34.47.25-.18z"/><path d="M15.72 16.05l-.28.2.23.32.2-.16c1.07.55 2.25.3 2.2 0-.05-.29-.63-.53-1-.59-.3-.04-.16-.2-.05-.27.09 0 .32-.07.55-.28.23-.2.22-.6.18-.76a2.67 2.67 0 00-2.03 1.54z" fill="#FFF80B"/><path fill-rule="evenodd" d="M17.98 16.43a.3.3 0 00-.1-.15 1.04 1.04 0 00-.24-.16 2 2 0 00-.59-.2.4.4 0 01-.19-.07.17.17 0 01-.06-.17c0-.05.04-.1.07-.13a.56.56 0 01.1-.08l.01-.01h.03c.07-.01.28-.07.5-.27.08-.08.13-.2.15-.33v-.24a2.58 2.58 0 00-1.85 1.47l-.01.02-.22.17.1.15.19-.14.05.03a2.8 2.8 0 001.46.31c.2-.01.37-.05.48-.1a.32.32 0 00.1-.07l.02-.02zm-2.1.1c.54.26 1.1.33 1.52.3.22-.01.4-.06.54-.12a.51.51 0 00.17-.12.23.23 0 00.06-.2.49.49 0 00-.15-.26 1.24 1.24 0 00-.28-.19 2.2 2.2 0 00-.74-.24l.01-.01a.32.32 0 01.04-.04c.13-.02.36-.1.58-.3.14-.13.2-.3.23-.46.02-.16 0-.3 0-.4l-.03-.1-.09.02a2.77 2.77 0 00-2.1 1.57l-.34.26.34.47.25-.18z"/><path d="M13.61 18.13l-.27.35.38.3.2-.26c1.45.33 2.81-.37 2.66-.7-.15-.35-.94-.45-1.4-.4-.37.05-.25-.19-.15-.3.1-.05.37-.2.58-.53.2-.32.08-.79-.02-.98a3.38 3.38 0 00-1.98 2.52z" fill="#FFF80B"/><path fill-rule="evenodd" d="M16.48 17.9c.02-.02.01-.04 0-.05a.39.39 0 00-.17-.16c-.09-.05-.2-.1-.34-.12a2.51 2.51 0 00-.78-.05c-.1.01-.18.01-.24-.02a.2.2 0 01-.09-.07.2.2 0 01-.03-.1c0-.06.02-.11.04-.16a.68.68 0 01.09-.12l.01-.02.03-.01c.08-.03.33-.18.53-.48.08-.14.1-.31.09-.48a1.33 1.33 0 00-.08-.31 3.29 3.29 0 00-1.83 2.4v.03l-.23.28.22.18.18-.23.06.01c.71.16 1.4.07 1.88-.1.24-.09.43-.19.55-.29.06-.05.1-.09.1-.12zm-2.52.73a3.7 3.7 0 001.92-.12 2 2 0 00.62-.32.62.62 0 00.16-.2.26.26 0 000-.22.58.58 0 00-.25-.26 1.5 1.5 0 00-.4-.14 2.7 2.7 0 00-.84-.05.32.32 0 01-.14 0c0-.01 0-.03.02-.05a.44.44 0 01.04-.07c.14-.06.4-.23.6-.55a.93.93 0 00.12-.6 1.5 1.5 0 00-.13-.48l-.04-.09-.08.04a3.48 3.48 0 00-2.04 2.57l-.32.4.53.44.23-.3z"/><path d="M12.36 20.76l-.14.42.46.16.1-.32c1.49-.22 2.53-1.36 2.27-1.62-.26-.27-1.03-.09-1.45.13-.34.17-.3-.1-.25-.24.09-.08.28-.32.37-.7.09-.39-.2-.78-.34-.93a3.48 3.48 0 00-1.02 3.1z" fill="#FFF80B"/><path fill-rule="evenodd" d="M15 19.52c0-.04-.01-.05-.02-.05a.38.38 0 00-.22-.1 1.3 1.3 0 00-.36 0c-.27.05-.56.14-.76.25a.48.48 0 01-.23.06.19.19 0 01-.17-.12.33.33 0 01-.02-.16c0-.05.02-.1.04-.15v-.02l.03-.02c.07-.06.25-.29.33-.65a.74.74 0 00-.07-.48c-.05-.11-.12-.2-.18-.27a3.39 3.39 0 00-.91 2.93v.03l-.11.35.27.1.09-.3h.06c.72-.1 1.34-.44 1.74-.77.2-.17.34-.33.42-.47a.45.45 0 00.06-.16zm-2.14 1.59a3.77 3.77 0 001.78-.8c.2-.18.37-.37.46-.53a.64.64 0 00.1-.23.3.3 0 00-.08-.22.58.58 0 00-.33-.16 1.5 1.5 0 00-.42.01c-.29.04-.6.14-.82.26a.33.33 0 01-.13.04v-.05c0-.03 0-.06.02-.09.1-.1.3-.36.38-.73a.94.94 0 00-.1-.62c-.08-.17-.2-.32-.28-.4l-.06-.07-.07.07a3.58 3.58 0 00-1.05 3.16l-.16.5.64.22.12-.36z"/><path d="M11.37 23.52l-.11.5.53.12.09-.37c1.66-.4 2.73-1.8 2.4-2.07-.31-.27-1.18.01-1.63.3-.36.23-.35-.07-.3-.25.1-.09.29-.39.35-.83.06-.44-.3-.85-.48-1a3.96 3.96 0 00-.85 3.6z" fill="#FFF80B"/><path fill-rule="evenodd" d="M14.24 21.85c0-.04 0-.06-.02-.07a.44.44 0 00-.27-.09c-.12 0-.26.01-.4.05-.3.07-.63.2-.84.35-.1.06-.18.1-.26.1-.04 0-.08-.01-.11-.03a.2.2 0 01-.08-.08.36.36 0 01-.03-.19c0-.05.01-.11.03-.16v-.03l.02-.02c.07-.07.26-.35.32-.77a.86.86 0 00-.13-.55 1.51 1.51 0 00-.24-.3 3.87 3.87 0 00-.76 3.43v.03l-.1.42.35.08.08-.34.06-.01c.8-.19 1.47-.63 1.9-1.05.2-.21.35-.41.43-.58a.52.52 0 00.05-.19zm-2.28 2c.82-.2 1.5-.65 1.93-1.09.23-.22.39-.44.48-.63.04-.1.07-.19.07-.27a.28.28 0 00-.09-.23.64.64 0 00-.39-.14c-.14 0-.3.02-.46.05a3.1 3.1 0 00-.9.38c-.09.05-.14.06-.16.06a.17.17 0 01-.01-.08l.01-.1c.11-.12.3-.43.36-.86.03-.25-.05-.5-.16-.68a1.67 1.67 0 00-.36-.42l-.07-.06-.07.07a4.06 4.06 0 00-.87 3.67l-.13.57.73.17.1-.4z"/><path d="M10.98 26.59v.5l.55.02v-.4c1.57-.76 2.32-2.4 1.94-2.6-.38-.2-1.17.29-1.55.68-.31.3-.37 0-.36-.18.07-.11.2-.45.17-.9-.04-.46-.48-.79-.7-.9a4.03 4.03 0 00-.05 3.78z" fill="#FFF80B"/><path fill-rule="evenodd" d="M13.46 24.28c0-.05-.02-.07-.03-.07a.45.45 0 00-.29-.03c-.12.02-.26.07-.4.14-.28.14-.57.35-.75.54a.55.55 0 01-.23.15.2.2 0 01-.21-.06.36.36 0 01-.08-.17.78.78 0 010-.18v-.04c.07-.1.2-.42.16-.85a.87.87 0 00-.26-.5c-.1-.12-.21-.2-.3-.26-.79 1.47-.33 3 0 3.59l.01.02V27h.36v-.35l.05-.02a4.2 4.2 0 001.66-1.48c.16-.26.26-.5.3-.67a.54.54 0 00.01-.2zm-1.82 2.5a4.4 4.4 0 001.68-1.52c.17-.27.28-.53.33-.74.02-.1.03-.2 0-.28a.28.28 0 00-.13-.2.64.64 0 00-.41-.05c-.15.02-.3.08-.46.15-.3.15-.6.37-.8.57-.08.08-.12.1-.14.1h-.01c-.01 0-.02-.02-.03-.07v-.1c.07-.15.2-.5.16-.94a1.06 1.06 0 00-.31-.64 1.67 1.67 0 00-.45-.33l-.08-.05-.05.09a4.13 4.13 0 00-.06 3.84v.59h.75v-.42z"/><path d="M11.48 29.85l.14.52.54-.15-.1-.4c1.27-1.21 1.54-3.08 1.12-3.18-.42-.1-1.05.61-1.31 1.12-.2.4-.35.1-.39-.08.03-.14.06-.52-.1-.97-.16-.45-.68-.66-.93-.7-.4 1.8.52 3.3 1.03 3.84z" fill="#FFF80B"/><path fill-rule="evenodd" d="M13.21 26.8c-.02-.04-.04-.06-.06-.06-.07-.02-.16 0-.27.05a1.5 1.5 0 00-.35.26c-.23.22-.45.51-.57.75a.56.56 0 01-.18.22.2.2 0 01-.22 0 .37.37 0 01-.12-.15.86.86 0 01-.06-.17v-.05c.03-.11.06-.47-.1-.9a.93.93 0 00-.39-.46 1.52 1.52 0 00-.36-.16 4.36 4.36 0 001.02 3.65l.02.01.12.46.35-.1-.1-.36.05-.04c.62-.6 1-1.35 1.17-1.96.08-.31.11-.58.1-.77a.6.6 0 00-.05-.22zm-1.05 3.05a4.58 4.58 0 001.19-2.01c.09-.32.13-.61.11-.84a.8.8 0 00-.07-.29.3.3 0 00-.19-.17.62.62 0 00-.41.07 1.7 1.7 0 00-.4.3c-.24.23-.47.54-.6.8-.06.1-.1.13-.11.14a.2.2 0 01-.06-.07.63.63 0 01-.04-.1c.04-.18.05-.56-.1-1-.1-.26-.29-.44-.48-.56-.2-.12-.4-.19-.52-.22l-.1-.01-.02.1c-.41 1.82.5 3.35 1.03 3.9l.16.6.73-.2-.12-.44z"/><path d="M12.53 33.01l.29.5.5-.32-.21-.37c.96-1.6.7-3.57.26-3.55-.46.02-.9.92-1.02 1.5-.1.47-.32.22-.42.04 0-.15-.08-.54-.37-.95-.29-.4-.88-.47-1.13-.45a4.63 4.63 0 002.1 3.6z" fill="#FFF80B"/><path fill-rule="evenodd" d="M13.45 29.42c-.04-.04-.06-.05-.08-.05-.08 0-.17.05-.27.14-.1.09-.2.21-.28.36-.18.29-.32.65-.38.93a.59.59 0 01-.11.27.2.2 0 01-.22.06.39.39 0 01-.16-.12.89.89 0 01-.1-.15l-.02-.02v-.03c0-.12-.07-.5-.35-.9a.97.97 0 00-.53-.34 1.6 1.6 0 00-.42-.07 4.54 4.54 0 002.05 3.42l.02.02.25.42.34-.2-.2-.34.03-.05c.47-.78.65-1.66.65-2.33 0-.34-.04-.62-.11-.81a.63.63 0 00-.11-.21zm-.23 3.4c.47-.8.65-1.7.65-2.38 0-.35-.05-.66-.12-.88a.83.83 0 00-.15-.27.3.3 0 00-.24-.12.65.65 0 00-.4.19c-.11.1-.22.25-.31.4-.19.31-.33.7-.4 1a.4.4 0 01-.07.18h-.01a.2.2 0 01-.07-.06.66.66 0 01-.07-.1c-.01-.18-.1-.58-.39-.98-.16-.23-.4-.36-.63-.42a1.73 1.73 0 00-.6-.07h-.09v.1a4.74 4.74 0 002.14 3.67l.32.56.68-.41-.24-.41z"/><path d="M14.11 35.75l.4.47.48-.43-.3-.35c.71-1.88.07-3.92-.4-3.81-.48.11-.78 1.15-.8 1.8-.02.5-.3.28-.43.1a2.05 2.05 0 00-.57-.93c-.39-.37-1.02-.32-1.3-.25a4.95 4.95 0 002.92 3.4z" fill="#FFF80B"/><path fill-rule="evenodd" d="M14.4 31.76c-.04-.04-.07-.04-.1-.03-.08.02-.17.08-.26.2-.09.11-.16.26-.23.43-.13.35-.2.76-.22 1.07 0 .13-.03.24-.07.3a.2.2 0 01-.21.1.4.4 0 01-.2-.08.95.95 0 01-.13-.15l-.02-.02v-.02a1.96 1.96 0 00-.54-.88 1 1 0 00-.63-.27c-.18-.02-.35 0-.47.02a4.86 4.86 0 002.83 3.23h.02l.35.42.33-.3-.28-.32.02-.06c.35-.92.37-1.88.25-2.6a2.76 2.76 0 00-.28-.84.69.69 0 00-.15-.2zm.4 3.66c.34-.95.36-1.92.23-2.65a2.95 2.95 0 00-.3-.91.88.88 0 00-.2-.26c-.08-.06-.17-.1-.27-.07a.7.7 0 00-.37.27c-.1.14-.2.3-.26.49-.14.37-.23.8-.24 1.13 0 .12-.02.18-.04.2v.02h-.02a.22.22 0 01-.09-.05.72.72 0 01-.1-.1 2.19 2.19 0 00-.59-.96c-.2-.2-.49-.3-.74-.32-.26-.03-.5 0-.64.04l-.1.03.03.1a5.05 5.05 0 002.95 3.46l.45.52.63-.56-.33-.38z"/><path d="M16.43 38.66l.46.4.4-.5-.35-.3c.43-1.97-.51-3.89-.97-3.7-.45.18-.58 1.26-.5 1.9.05.5-.26.33-.42.18a2.03 2.03 0 00-.7-.83c-.44-.32-1.06-.17-1.32-.05a4.91 4.91 0 003.4 2.9z" fill="#FFF80B"/><path fill-rule="evenodd" d="M16.12 34.67c-.06-.03-.09-.03-.1-.02-.1.04-.17.12-.24.24-.07.13-.12.29-.16.47-.08.36-.1.78-.06 1.09.01.13 0 .24-.03.31a.2.2 0 01-.2.13.4.4 0 01-.19-.06.94.94 0 01-.16-.12l-.02-.01v-.03a1.94 1.94 0 00-.67-.78c-.2-.14-.44-.18-.67-.17-.17.01-.34.05-.46.1a4.82 4.82 0 003.28 2.74h.03l.4.36.29-.34-.33-.28.02-.06c.2-.97.08-1.92-.16-2.6a2.74 2.74 0 00-.39-.8.68.68 0 00-.18-.17zm.93 3.55c.2-.98.07-1.95-.17-2.65a2.94 2.94 0 00-.43-.85.87.87 0 00-.24-.22.289.289 0 00-.27-.03.7.7 0 00-.33.32c-.09.15-.15.33-.19.53-.08.38-.1.82-.06 1.15.02.12 0 .18 0 .21l-.01.01h-.01a.22.22 0 01-.1-.03.7.7 0 01-.1-.08c-.08-.18-.31-.55-.74-.86a1.23 1.23 0 00-.79-.2c-.25.01-.48.08-.62.14l-.09.04.04.1a5.02 5.02 0 003.44 2.96l.52.44.54-.65-.39-.33z"/><path d="M19.32 40.82l.55.27.28-.58-.42-.2c-.05-2.03-1.42-3.66-1.82-3.36-.4.29-.27 1.36-.04 1.96.18.49-.17.4-.36.28a2 2 0 00-.88-.63c-.5-.2-1.07.1-1.29.27a4.86 4.86 0 003.98 1.99z" fill="#FFF80B"/><path fill-rule="evenodd" d="M18.08 37.02h-.1a.55.55 0 00-.18.3c-.03.14-.05.3-.04.5 0 .36.1.77.2 1.06.05.13.07.23.05.31 0 .05-.02.09-.05.12a.21.21 0 01-.1.06.4.4 0 01-.22-.01.92.92 0 01-.18-.08l-.02-.01-.01-.02a1.91 1.91 0 00-.84-.6 1.03 1.03 0 00-.68 0c-.17.06-.32.13-.43.2a4.76 4.76 0 003.84 1.87h.02l.48.23.2-.4-.39-.18v-.06a5.01 5.01 0 00-.76-2.5c-.2-.3-.4-.53-.57-.67a.67.67 0 00-.22-.12zm1.75 3.22c-.04-1-.4-1.91-.8-2.54a2.9 2.9 0 00-.61-.72.86.86 0 00-.3-.15.31.31 0 00-.26.03c-.13.1-.2.24-.25.4-.04.17-.06.36-.05.56 0 .39.1.82.21 1.13.05.11.05.18.04.2v.02h-.11a.7.7 0 01-.13-.05 2.15 2.15 0 00-.9-.66c-.28-.1-.58-.07-.82 0s-.45.2-.57.3l-.08.05.06.08a4.96 4.96 0 004.04 2.03l.61.3.37-.76-.45-.22z"/><path d="M26.95 43.35h.72v-.77h-.55c-1.1-2.12-3.39-3.14-3.66-2.61-.28.52.4 1.6.96 2.13.43.41.02.5-.24.48-.16-.09-.64-.26-1.27-.2-.63.05-1.09.67-1.24.97a5.73 5.73 0 005.28 0z" fill="#FFF80B"/><path fill-rule="evenodd" d="M23.67 39.94c-.07.01-.1.04-.13.07a.64.64 0 00-.03.42c.03.17.1.36.2.56.2.39.5.78.77 1.03.12.11.2.21.22.3v.15a.24.24 0 01-.08.1.46.46 0 01-.22.1c-.07.01-.16.02-.23.01h-.04c-.15-.1-.6-.26-1.21-.2-.29.02-.54.17-.74.36-.17.16-.3.33-.37.47a5.64 5.64 0 005.1-.04l.02-.02h.64v-.57h-.5l-.04-.05a5.86 5.86 0 00-2.1-2.26c-.37-.23-.7-.36-.96-.42a.8.8 0 00-.3-.01zm3.51 2.54a6.07 6.07 0 00-2.15-2.28 3.36 3.36 0 00-1.02-.44 1 1 0 00-.38-.02.36.36 0 00-.26.18.84.84 0 00-.05.55c.03.2.11.4.22.6.21.42.52.83.8 1.1.11.1.15.17.16.2v.06a.28.28 0 01-.13.04.85.85 0 01-.17.02c-.2-.1-.68-.27-1.3-.21-.35.03-.64.21-.86.42-.22.2-.38.45-.46.6l-.04.1.09.04a5.83 5.83 0 005.35.01h.8v-.97h-.6z"/><path d="M23.11 42.34l.62.1.11-.66-.47-.08c-.66-2-2.5-3.21-2.81-2.8-.31.42.13 1.45.53 1.98.32.43-.05.44-.27.4-.13-.11-.52-.33-1.07-.37-.55-.05-1.03.42-1.2.66a5.03 5.03 0 004.56.77z" fill="#FFF80B"/><path fill-rule="evenodd" d="M20.75 38.92c-.07 0-.1.02-.11.04a.55.55 0 00-.09.35c0 .15.04.33.1.5.12.37.33.76.52 1.01.09.11.14.21.15.3 0 .05 0 .09-.02.13a.22.22 0 01-.09.09.42.42 0 01-.2.05c-.08 0-.15 0-.21-.02h-.03l-.02-.02c-.1-.1-.48-.3-1-.34a1.1 1.1 0 00-.69.2c-.16.11-.29.24-.37.35a4.93 4.93 0 004.39.68h.02l.55.09.08-.47-.44-.07-.02-.06a5.17 5.17 0 00-1.5-2.26 2.78 2.78 0 00-.77-.5.7.7 0 00-.25-.05zm2.7 2.69c-.35-1-.97-1.79-1.55-2.3-.3-.25-.59-.43-.83-.52a.89.89 0 00-.33-.07c-.1 0-.2.04-.26.12-.1.13-.13.3-.13.47 0 .18.05.37.11.57.13.39.34.79.55 1.06.08.1.1.17.1.2v.03a.23.23 0 01-.11.02l-.14-.01a2.2 2.2 0 00-1.1-.37c-.31-.03-.6.1-.81.24-.22.15-.4.34-.49.47l-.05.07.07.06a5.13 5.13 0 004.64.79l.7.12.13-.87-.5-.08z"/><path d="M38.5 14.8l.28.22-.22.31-.22-.16c-1.05.55-2.24.3-2.2 0 .06-.29.64-.53 1.01-.59.3-.04.16-.2.06-.27-.1 0-.33-.07-.56-.28-.22-.2-.21-.6-.18-.76a2.67 2.67 0 012.04 1.54z" fill="#FFF80B"/><path fill-rule="evenodd" d="M36.25 15.2c0-.05.03-.1.1-.16.05-.06.13-.11.23-.16a2 2 0 01.59-.2.4.4 0 00.2-.07.17.17 0 00.06-.17.28.28 0 00-.07-.13.55.55 0 00-.1-.08l-.02-.02h-.03a.99.99 0 01-.5-.26.56.56 0 01-.15-.33 1.04 1.04 0 010-.24 2.58 2.58 0 011.85 1.47l.02.02.22.17-.12.15-.18-.14-.05.03a2.8 2.8 0 01-1.46.31c-.2-.02-.37-.06-.48-.1a.32.32 0 01-.1-.07l-.01-.02zm2.08.09c-.53.26-1.08.33-1.5.3a1.6 1.6 0 01-.55-.12.51.51 0 01-.17-.12.23.23 0 01-.06-.2c.02-.1.08-.19.16-.26.07-.07.17-.14.28-.2a2.2 2.2 0 01.73-.23l-.01-.01a.32.32 0 00-.04-.04c-.12-.02-.36-.1-.58-.3a.76.76 0 01-.22-.46c-.03-.16-.02-.3 0-.4l.02-.1.09.02c1.21.15 1.9 1.1 2.1 1.57l.34.26-.34.47-.25-.18z"/><path d="M40.29 16.05l.27.2-.23.32-.2-.16c-1.06.55-2.25.3-2.2 0 .05-.29.63-.53 1-.59.3-.04.16-.2.05-.27-.08 0-.32-.07-.55-.28-.22-.2-.22-.6-.18-.76a2.67 2.67 0 012.04 1.54z" fill="#FFF80B"/><path fill-rule="evenodd" d="M38.02 16.43a.3.3 0 01.1-.15.91.91 0 01.24-.16 2 2 0 01.59-.2.4.4 0 00.2-.07.17.17 0 00.06-.17.28.28 0 00-.08-.13.56.56 0 00-.09-.08l-.02-.01h-.03a.99.99 0 01-.5-.27.56.56 0 01-.15-.33 1.05 1.05 0 010-.24 2.58 2.58 0 011.85 1.47l.01.02.22.17-.1.15-.19-.14-.05.03a2.8 2.8 0 01-1.46.31c-.2-.01-.37-.05-.48-.1a.32.32 0 01-.1-.07l-.01-.02zm2.1.1c-.54.26-1.1.33-1.52.3a1.6 1.6 0 01-.54-.12.51.51 0 01-.17-.12.23.23 0 01-.06-.2c.02-.1.08-.18.16-.26.07-.07.17-.13.27-.19a2.2 2.2 0 01.74-.24.32.32 0 00-.04-.04c-.12-.02-.36-.1-.58-.3a.76.76 0 01-.23-.46c-.02-.16 0-.3.01-.4l.02-.1.09.02c1.2.15 1.9 1.1 2.1 1.57l.34.26-.34.47-.25-.18z"/><path d="M42.39 18.13l.27.35-.38.3-.2-.26c-1.45.33-2.81-.37-2.66-.7.16-.35.94-.45 1.4-.4.37.05.25-.19.15-.3-.1-.05-.37-.2-.58-.53-.2-.32-.08-.79.02-.98a3.38 3.38 0 011.98 2.52z" fill="#FFF80B"/><path fill-rule="evenodd" d="M39.52 17.9v-.05a.39.39 0 01.17-.16c.09-.05.2-.1.34-.12.26-.06.56-.07.78-.05.1.01.18.01.24-.02a.2.2 0 00.12-.17.32.32 0 00-.04-.16.68.68 0 00-.09-.12l-.01-.02-.03-.01a1.28 1.28 0 01-.53-.48.73.73 0 01-.09-.48c.02-.12.05-.23.08-.31a3.29 3.29 0 011.83 2.4v.03l.23.28-.22.18-.18-.23-.06.01a3.5 3.5 0 01-1.88-.1 1.81 1.81 0 01-.55-.29.43.43 0 01-.1-.12zm2.52.73a3.7 3.7 0 01-1.92-.12 2 2 0 01-.61-.32.62.62 0 01-.17-.2.26.26 0 010-.22c.04-.11.14-.2.25-.26.12-.06.25-.1.4-.14.28-.06.6-.08.84-.05.09.01.13 0 .14 0l-.01-.05a.44.44 0 00-.05-.07 1.5 1.5 0 01-.6-.55.93.93 0 01-.12-.6c.02-.2.08-.38.13-.48l.04-.09.08.04a3.48 3.48 0 012.04 2.57l.32.4-.53.44-.23-.3z"/><path d="M43.64 20.76l.14.42-.46.16-.1-.32c-1.49-.22-2.53-1.36-2.27-1.62.26-.27 1.03-.09 1.45.13.34.17.3-.1.25-.24a1.41 1.41 0 01-.37-.7c-.09-.39.2-.78.34-.93a3.48 3.48 0 011.02 3.1z" fill="#FFF80B"/><path fill-rule="evenodd" d="M41 19.52c0-.04.01-.05.02-.05a.38.38 0 01.22-.1h.36c.27.05.56.14.76.25.08.04.16.07.23.06a.19.19 0 00.17-.12.33.33 0 00.02-.16c0-.05-.02-.1-.04-.15v-.02l-.03-.02a1.32 1.32 0 01-.33-.65.74.74 0 01.07-.48c.05-.11.12-.2.18-.27 1.01 1 1.03 2.36.91 2.93v.03l.11.35-.27.1-.09-.3h-.06a3.57 3.57 0 01-1.74-.77c-.2-.17-.34-.33-.42-.47a.45.45 0 01-.06-.16zm2.14 1.59a3.77 3.77 0 01-1.78-.8 2.06 2.06 0 01-.46-.53.64.64 0 01-.09-.23c0-.08 0-.16.07-.22.08-.1.2-.14.33-.16.13-.02.27-.01.42.01.29.04.6.14.82.26.07.04.11.04.13.04v-.05a.47.47 0 00-.02-.09c-.1-.1-.3-.36-.38-.73a.94.94 0 01.1-.62c.08-.17.2-.32.28-.4l.06-.07.07.07a3.58 3.58 0 011.05 3.16l.16.5-.64.22-.12-.36z"/><path d="M44.63 23.52l.11.5-.53.12-.09-.37c-1.65-.4-2.73-1.8-2.4-2.07.31-.27 1.18.01 1.63.3.36.23.35-.07.3-.25-.1-.09-.29-.39-.35-.83-.06-.44.3-.85.48-1a3.96 3.96 0 01.85 3.6z" fill="#FFF80B"/><path fill-rule="evenodd" d="M41.76 21.85c0-.04 0-.06.02-.07a.44.44 0 01.27-.09c.12 0 .26.01.4.05.31.07.63.2.84.35.1.06.18.1.26.1.04 0 .08-.01.11-.03a.2.2 0 00.08-.08.36.36 0 00.03-.19.77.77 0 00-.02-.16l-.01-.03-.02-.02a1.52 1.52 0 01-.32-.77.86.86 0 01.13-.55c.08-.12.17-.23.24-.3 1.06 1.23.95 2.8.76 3.43v.03l.1.42-.35.08-.08-.34-.06-.01a4.18 4.18 0 01-1.9-1.05 2.15 2.15 0 01-.43-.58.52.52 0 01-.05-.19zm2.28 2c-.82-.2-1.5-.65-1.93-1.09a2.34 2.34 0 01-.48-.63.71.71 0 01-.07-.27c0-.09.02-.17.09-.23.1-.1.24-.13.39-.14.14 0 .3.02.47.05.32.08.66.23.9.38.08.05.13.06.15.06.01 0 .02-.03.01-.08l-.01-.1c-.11-.12-.3-.43-.36-.86-.03-.25.05-.5.16-.68.11-.19.26-.34.36-.42l.07-.06.07.07a4.06 4.06 0 01.87 3.67l.13.57-.73.17-.1-.4z"/><path d="M45.02 26.59v.5l-.55.02v-.4c-1.56-.76-2.32-2.4-1.94-2.6.38-.2 1.17.29 1.55.68.31.3.37 0 .36-.18-.07-.11-.2-.45-.17-.9.04-.46.48-.79.7-.9.87 1.54.4 3.16.05 3.78z" fill="#FFF80B"/><path fill-rule="evenodd" d="M42.54 24.28c0-.05.02-.07.04-.07a.45.45 0 01.28-.03c.12.02.26.07.4.14.28.14.57.35.75.54.08.08.16.13.23.15h.12a.2.2 0 00.1-.06.36.36 0 00.07-.17.78.78 0 000-.18v-.04c-.07-.1-.19-.42-.16-.85.02-.2.12-.37.26-.5.1-.12.21-.2.3-.26.79 1.47.33 3 0 3.59l-.01.02V27h-.36v-.35l-.05-.02a4.2 4.2 0 01-1.66-1.48c-.16-.26-.26-.5-.3-.67a.54.54 0 01-.01-.2zm1.82 2.5a4.4 4.4 0 01-1.67-1.52 2.4 2.4 0 01-.34-.74.73.73 0 010-.28.28.28 0 01.13-.2.64.64 0 01.41-.05c.15.02.3.08.46.15.3.15.6.37.8.57.08.08.12.1.15.1.01 0 .02-.02.03-.07v-.1c-.07-.15-.2-.5-.16-.94.02-.26.16-.47.31-.64.15-.16.33-.27.45-.33l.08-.05.05.09c.88 1.55.42 3.19.06 3.84v.59h-.75v-.42z"/><path d="M44.52 29.85l-.14.52-.54-.15.1-.4c-1.27-1.21-1.54-3.08-1.12-3.18.42-.1 1.05.61 1.31 1.12.2.4.35.1.39-.08-.03-.14-.06-.52.1-.97.16-.45.68-.66.93-.7.4 1.8-.52 3.3-1.03 3.84z" fill="#FFF80B"/><path fill-rule="evenodd" d="M42.79 26.8c.02-.04.04-.06.06-.06.07-.02.16 0 .27.05.11.06.23.15.35.26.23.22.45.51.57.75.06.1.12.18.18.22a.2.2 0 00.22 0c.06-.04.1-.1.12-.15a.86.86 0 00.06-.17v-.05c-.03-.11-.06-.47.1-.9.06-.2.22-.35.39-.46.12-.08.26-.13.36-.16a4.36 4.36 0 01-1.02 3.65l-.02.01-.12.46-.35-.1.1-.36-.04-.04c-.63-.6-1-1.35-1.18-1.96-.08-.31-.11-.58-.1-.77 0-.1.02-.17.05-.22zm1.05 3.05a4.58 4.58 0 01-1.19-2.01 2.62 2.62 0 01-.1-.84.8.8 0 01.06-.29c.04-.08.1-.14.19-.17.14-.03.28 0 .41.07.13.07.27.17.4.3.24.23.47.54.6.8.06.1.1.13.12.14a.2.2 0 00.05-.07.63.63 0 00.04-.1c-.04-.18-.05-.56.1-1 .1-.26.29-.44.48-.56.2-.12.4-.19.52-.22l.1-.01.02.1c.41 1.82-.5 3.35-1.03 3.9l-.16.6-.73-.2.12-.44z"/><path d="M43.47 33.01l-.29.5-.5-.32.21-.37c-.96-1.6-.7-3.57-.25-3.55.45.02.89.92 1.01 1.5.1.47.32.22.42.04 0-.15.08-.54.37-.95.29-.4.88-.47 1.13-.45a4.63 4.63 0 01-2.1 3.6z" fill="#FFF80B"/><path fill-rule="evenodd" d="M42.55 29.42c.04-.04.06-.05.08-.05.08 0 .17.05.27.14.1.09.2.21.28.36.18.29.32.65.38.93.02.12.06.21.12.27.02.03.06.06.1.07a.2.2 0 00.12 0 .38.38 0 00.15-.13c.05-.05.08-.1.1-.15l.02-.02v-.03c0-.12.07-.5.35-.9a.97.97 0 01.53-.34c.15-.05.3-.06.42-.07a4.54 4.54 0 01-2.05 3.42l-.02.02-.25.42-.34-.2.2-.34-.03-.05a4.65 4.65 0 01-.65-2.33c0-.34.04-.62.11-.81.04-.1.07-.17.11-.21zm.23 3.4c-.47-.8-.65-1.7-.65-2.38 0-.35.05-.66.13-.88.03-.11.08-.2.14-.27a.3.3 0 01.24-.12c.14 0 .28.08.4.19.11.1.22.25.31.4.19.31.34.7.4 1 .02.1.05.16.07.18h.01a.2.2 0 00.07-.06.66.66 0 00.07-.1c.01-.18.1-.58.39-.98.16-.23.4-.36.63-.42.23-.07.45-.08.6-.07h.09v.1a4.74 4.74 0 01-2.14 3.67l-.32.56-.68-.41.24-.41z"/><path d="M41.89 35.75l-.4.47-.48-.43.3-.35c-.71-1.88-.07-3.92.4-3.81.48.11.78 1.15.8 1.8.02.5.3.28.43.1.04-.15.2-.55.58-.93.38-.37 1.01-.32 1.28-.25a4.95 4.95 0 01-2.91 3.4z" fill="#FFF80B"/><path fill-rule="evenodd" d="M41.6 31.76c.04-.04.07-.04.1-.03.08.02.17.08.26.2.09.11.16.26.23.43.13.35.2.76.22 1.07 0 .13.03.24.07.3.03.05.06.08.1.1a.2.2 0 00.12.01.4.4 0 00.18-.1c.06-.04.1-.09.14-.14l.02-.02v-.02c.03-.14.17-.52.54-.88a1 1 0 01.63-.27c.18-.02.35 0 .47.02a4.86 4.86 0 01-2.83 3.23h-.02l-.35.42-.33-.3.28-.32-.02-.06a5.03 5.03 0 01-.25-2.6c.07-.36.17-.65.28-.84.05-.1.1-.16.15-.2zm-.4 3.66a5.25 5.25 0 01-.23-2.65c.07-.38.17-.7.3-.91.06-.1.12-.2.2-.26.08-.06.17-.1.27-.07a.7.7 0 01.37.27c.1.14.2.3.26.49.14.37.23.8.24 1.13 0 .12.02.18.04.2v.02h.02l.09-.05a.72.72 0 00.1-.1c.04-.19.2-.59.59-.96.2-.2.49-.3.74-.32.26-.03.5 0 .64.04l.1.03-.03.1a5.05 5.05 0 01-2.95 3.46l-.45.52-.63-.56.33-.38z"/><path d="M39.58 38.66l-.47.4-.4-.5.35-.3c-.43-1.97.51-3.89.97-3.7.45.18.58 1.26.5 1.9-.05.5.26.33.42.18.06-.15.27-.52.7-.83.44-.32 1.06-.17 1.32-.05a4.91 4.91 0 01-3.4 2.9z" fill="#FFF80B"/><path fill-rule="evenodd" d="M39.88 34.67c.06-.03.09-.03.1-.02.1.04.17.12.24.24.07.13.13.29.16.47.08.36.1.78.06 1.09a.63.63 0 00.03.31c.01.05.04.08.08.1a.2.2 0 00.11.04.4.4 0 00.2-.07.94.94 0 00.16-.12l.02-.01v-.03c.05-.12.26-.48.67-.78.2-.14.44-.18.67-.17.17.01.34.05.46.1a4.82 4.82 0 01-3.28 2.74h-.03l-.4.36-.29-.34.33-.28-.02-.06c-.2-.97-.08-1.92.16-2.6.11-.35.25-.62.39-.8a.68.68 0 01.18-.17zm-.93 3.55c-.2-.98-.07-1.95.17-2.65.12-.36.27-.66.43-.85.07-.1.16-.18.24-.22.08-.05.18-.07.27-.03a.7.7 0 01.34.32c.08.15.14.33.18.53.08.38.1.82.06 1.15-.02.12 0 .18 0 .21l.01.01h.01c.02 0 .06 0 .1-.03a.71.71 0 00.11-.08c.07-.18.3-.55.73-.86.24-.17.53-.21.79-.2.25.01.48.08.62.14l.09.04-.04.1a5.02 5.02 0 01-3.44 2.96l-.52.44-.54-.65.39-.33z"/><path d="M36.68 40.82l-.55.27-.28-.58.42-.2c.05-2.03 1.42-3.66 1.82-3.36.4.29.27 1.36.04 1.96-.17.49.17.4.36.28a2 2 0 01.88-.63c.5-.2 1.07.1 1.3.27a4.86 4.86 0 01-4 1.99z" fill="#FFF80B"/><path fill-rule="evenodd" d="M37.92 37.02h.1c.08.06.14.16.18.3.03.14.05.3.04.5 0 .36-.09.77-.2 1.06a.63.63 0 00-.05.31c0 .05.03.09.06.12.02.03.06.05.1.06a.4.4 0 00.2-.01.92.92 0 00.19-.08l.02-.01.02-.02c.07-.11.35-.41.83-.6.22-.09.46-.06.68 0 .17.06.32.13.43.2a4.76 4.76 0 01-3.84 1.87h-.02l-.48.23-.2-.4.39-.18v-.06c.02-1 .37-1.89.76-2.5.2-.3.4-.53.57-.67.09-.06.16-.1.22-.12zm-1.75 3.22c.04-1 .4-1.91.8-2.54.2-.31.42-.56.61-.72.1-.07.2-.13.3-.15.08-.03.18-.03.26.03.13.1.2.24.25.4.04.17.06.36.05.56 0 .39-.1.82-.21 1.13-.05.11-.05.18-.04.2v.02h.11a.7.7 0 00.13-.05c.1-.16.42-.46.9-.66.29-.1.58-.07.82 0s.45.2.57.3l.08.05-.06.08a4.96 4.96 0 01-4.04 2.03l-.61.3-.37-.76.45-.22z"/><path d="M29.05 43.35h-.72v-.77h.55c1.1-2.12 3.39-3.14 3.66-2.61.28.52-.4 1.6-.96 2.13-.43.41-.02.5.24.48.16-.09.64-.26 1.27-.2.63.05 1.09.67 1.24.97a5.73 5.73 0 01-5.28 0z" fill="#FFF80B"/><path fill-rule="evenodd" d="M32.33 39.94c.08.01.11.04.13.07.05.1.06.25.03.42-.03.17-.1.36-.2.56-.2.39-.5.78-.77 1.03-.12.11-.19.21-.22.3a.25.25 0 000 .15c.02.04.04.08.08.1.06.06.14.09.22.1.07.01.16.02.23.01h.04c.15-.1.6-.26 1.21-.2.29.02.54.17.74.36.17.16.3.33.37.47a5.64 5.64 0 01-5.1-.04l-.01-.02h-.65v-.57h.5l.04-.05a5.86 5.86 0 012.1-2.26c.37-.23.7-.36.96-.42a.8.8 0 01.3-.01zm-3.51 2.54a6.07 6.07 0 012.15-2.28c.38-.24.73-.38 1.02-.44a1 1 0 01.38-.02c.11.03.21.08.26.18.09.16.1.35.06.55-.04.2-.12.4-.23.6-.2.42-.52.83-.8 1.1a.57.57 0 00-.16.2v.06l.13.04.17.02c.2-.1.68-.27 1.3-.21.35.03.64.21.86.42.22.2.38.45.46.6l.04.1-.09.04a5.83 5.83 0 01-5.35.01h-.8v-.97h.6z"/><path d="M32.89 42.34l-.62.1-.11-.66.47-.08c.66-2 2.5-3.21 2.81-2.8.31.42-.13 1.45-.53 1.98-.32.43.05.44.27.4.13-.11.52-.33 1.07-.37.56-.05 1.03.42 1.2.66a5.03 5.03 0 01-4.56.77z" fill="#FFF80B"/><path fill-rule="evenodd" d="M35.26 38.92c.06 0 .09.02.1.04.06.08.09.2.09.35 0 .15-.04.33-.1.5-.12.37-.33.76-.52 1.01a.65.65 0 00-.14.3c-.01.05 0 .09.02.13.02.04.05.07.08.09.06.04.14.05.2.05.08 0 .15 0 .21-.02h.03l.02-.02c.1-.1.48-.3 1-.34.26-.02.5.07.7.2.15.11.28.24.36.35a4.93 4.93 0 01-4.39.68h-.02l-.55.09-.08-.47.44-.07.02-.06c.32-.98.93-1.77 1.5-2.26.29-.24.56-.41.77-.5a.7.7 0 01.26-.05zm-2.7 2.69c.34-1 .96-1.79 1.54-2.3.3-.25.59-.43.83-.52a.89.89 0 01.33-.07c.1 0 .2.04.26.12.1.13.13.3.13.47 0 .18-.05.37-.11.57-.13.39-.34.79-.55 1.06-.08.1-.1.17-.1.2v.03l.11.02.14-.01a2.2 2.2 0 011.1-.37c.31-.03.6.1.81.24.22.15.4.34.49.47l.05.07-.07.06a5.13 5.13 0 01-4.64.79l-.7.12-.13-.87.5-.08z"/><path d="M36.3 34.9a11.48 11.48 0 01-6.67 2.1c-4.87 0-9-2.94-10.4-7H16l.62-2h2.17a9.31 9.31 0 010-2h-2.42l.62-2h2.25c1.39-4.06 5.51-7 10.4-7 2.83 0 5.42 1 7.36 2.63l-.88 2.17a9.14 9.14 0 00-6.77-2.9 8.85 8.85 0 00-8.2 5.1H35l-.74 2H20.6a7.53 7.53 0 000 2h14.05l-.74 2H21.15a8.85 8.85 0 008.2 5.1c2.68 0 5.08-1.1 6.7-2.83l.25 2.64z" fill="#FE0416"/></svg>