<svg xmlns="http://www.w3.org/2000/svg" width="56" height="56"><path fill="url(#acqx32hop)" d="M0 0h56v56H0z"/><path d="M11 21a4 4 0 00-4 4v5.5a4 4 0 007 2.65v.35l1 .5v-7h-3v1h2v2.5a3 3 0 11-6 0V25a3 3 0 015.79-1.1l.66-.93A4 4 0 0011 21zm6 7h-1v2.5a4 4 0 008 0V28h-1v2.5a3 3 0 11-6 0V28zm9-6h-1v12h6v-1h-5V22zm6 12h7l.5-1H33v-5h5v-1h-5v-4h6l.5-1H32v12zm9 0V22h4.1c1.94 0 2.9 1.57 2.9 3.5 0 1.9-.9 3.44-2.78 3.5l3.53 5h-1.23L44 29h-2v5h-1zm1-6h3.1c1.39 0 1.9-1.12 1.9-2.5s-.51-2.5-1.9-2.5H42v5z" fill="#fff"/><circle cx="18" cy="26" r="1" fill="#EE8E27"/><circle cx="22" cy="26" r="1" fill="#3493E4"/><circle cx="22" cy="23" r="1" fill="#949399"/><circle cx="18" cy="23" r="1" fill="#80C03F"/><defs><linearGradient id="acqx32hop" x1="10.42" y1="9.71" x2="68.15" y2="76.02" gradientUnits="userSpaceOnUse"><stop stop-color="#1A1E21"/><stop offset="1" stop-color="#06060A"/></linearGradient></defs></svg>