<svg width="56" height="56" xmlns="http://www.w3.org/2000/svg"><path fill="#F0F3FA" d="M0 0h56v56H0z"/><path d="M23.414 23.875c-1.502-2.143-3.102-1.557-3.816-.79-.049.053-.022.138.046.161.166.057.44.166.622.31 1.085.852 2.438 2.944 3.234 2.944.735 0 1.163-.692 1.832-1.919.706-1.294 1.382-2.591 2.395-3.676 1.126-1.204 2.384-2.084 2.773-2.405.363-.3.14-.353 0-.3-3.115 1.168-5.85 4.136-6.916 5.677a.105.105 0 01-.17-.002z" fill="#F01927"/><path d="M19.398 23.87c-1.033.151-1.915.556-2.648 1.213-.942.854-1.413 1.925-1.413 3.214 0 1.288.47 2.758 1.413 3.62.942.853 2.137 1.28 3.585 1.28 1.594 0 2.862-.472 3.804-1.416.84-.845 1.26-2.27 1.26-3.484 0-.69-.132-1.315-.395-1.876-.423.566-.826.872-1.375.872a.891.891 0 01-.37-.096c.107.336.16.703.16 1.1 0 .92-.287 2.072-.86 2.671-.575.591-1.307.887-2.198.887-.874 0-1.602-.3-2.184-.899-.575-.607-.861-1.756-.861-2.66 0-.918.282-1.674.848-2.264.574-.6 1.306-.9 2.197-.9.24 0 .468.022.685.066-.41-.42-.817-.816-1.196-1.091a2.163 2.163 0 00-.452-.236zM14 32.47c-.865.485-1.656.727-2.898.727-2.912 0-5.102-1.913-5.102-4.9 0-2.821 2.463-4.494 5.102-4.494 1.173 0 2.153.23 2.898.69v1.662c-.822-.657-1.802-.985-2.898-.985-1.787 0-3.123 1.34-3.123 3.127 0 2.315 1.644 3.986 4.021 3.361v-2.984c0-.319-.515-.674-.515-.674H14v4.47zM26 33h7.017l.956-1.46s-.532.473-1.144.473h-4.335L33 24.653V24h-6l-1 1.496s.566-.485 1-.485h3.319L26 32.31V33z" fill="#415965"/><path d="M43 28.31c0 3.23-2.288 4.69-5.065 4.69h-3.593s.658-.654.658-1.33v-5.688c0-.584-.023-1.754-.72-1.982h3.655c2.5 0 5.065 1.317 5.065 4.31zm-2 0c0-1.9-1.729-3.3-3.49-3.3h-.52V32h.52c2.067 0 3.49-1.436 3.49-3.69z" fill="#415965"/><path d="M44 33h6l.486-1.486S49.61 32 49 32h-3v-3h4v-1.393h-4V25h3c.616 0 1.5.496 1.5.496L49.884 24H43.28c.694.245.72 1.389.72 1.982V33z" fill="#415965"/></svg>