<svg width="56" height="56" xmlns="http://www.w3.org/2000/svg"><path fill="#143D8D" d="M0 0h56v56H0z"/><path d="M44 31.742a6.68 6.68 0 00-4.15-6.183c.983-.976 1.53-2.17 1.53-3.688 0-2.82-2.294-5.098-5.133-5.098-.656 0-1.312.109-1.857.325C33.734 14.17 31.114 12 28.056 12c-3.169 0-5.79 2.17-6.445 5.098-.545-.216-1.2-.325-1.966-.325-2.84 0-5.133 2.277-5.133 5.098 0 1.41.655 2.712 1.638 3.688A6.68 6.68 0 0012 31.742c0 3.689 3.058 6.726 6.771 6.726h-.327c1.639 0 4.122.108 6.306-.868.438 2.604.438 4.664-.765 6.4h8.02c-1.091-1.736-1.2-3.905-.764-6.4 2.075 1.085 4.568.868 6.098.868h-.329c3.932.108 6.99-2.93 6.99-6.726z" fill="#B6B7B9"/><path d="M27 19.44c0-.72.43-1.32 1.07-1.44h.108v.12l.323.6.32-.6V18h.108c.643.12 1.071.72 1.071 1.44 0 .84-.585 1.56-1.5 1.56-.836 0-1.5-.72-1.5-1.56zm-6 3c0-.72.43-1.32 1.07-1.44h.108v.12l.323.6.32-.6V21h.108c.643.12 1.071.72 1.071 1.44 0 .84-.585 1.56-1.5 1.56-.836 0-1.5-.72-1.5-1.56zm12 0c0-.72.43-1.32 1.07-1.44h.108v.12l.323.6.32-.6V21h.108c.643.12 1.071.72 1.071 1.44 0 .84-.585 1.56-1.5 1.56-.836 0-1.5-.72-1.5-1.56zm1 6c0-.72.43-1.32 1.07-1.44h.108v.12l.323.6.32-.6V27h.108c.643.12 1.071.72 1.071 1.44 0 .84-.585 1.56-1.5 1.56-.836 0-1.5-.72-1.5-1.56zm-13.998 0c0-.72.43-1.32 1.071-1.44h.107v.12l.323.6.32-.6V27h.108c.643.12 1.071.72 1.071 1.44 0 .84-.585 1.56-1.5 1.56-.836 0-1.5-.72-1.5-1.56zM24 33.436c0-.72.43-1.32 1.07-1.44h.108v.12l.323.6.32-.6v-.12h.108c.643.12 1.071.72 1.071 1.44 0 .84-.585 1.56-1.5 1.56-.836 0-1.5-.72-1.5-1.56zm6 0c0-.72.43-1.32 1.07-1.44h.108v.12l.323.6.32-.6v-.12h.108c.643.12 1.071.72 1.071 1.44 0 .84-.585 1.56-1.5 1.56-.836 0-1.5-.72-1.5-1.56zm-2.999-6.996c0-.72.43-1.32 1.071-1.44h.107v.12l.323.6.32-.6V25h.108c.643.12 1.071.72 1.071 1.44 0 .84-.585 1.56-1.5 1.56-.836 0-1.5-.72-1.5-1.56z" fill="#fff"/></svg>