<svg width="56" height="56" xmlns="http://www.w3.org/2000/svg"><path fill="#DF0031" d="M0 0h56v56H0z"/><path fill="#fff" d="M8 24h2v9H8zm6 3.466V33h-2v-9h2l4 5.49V24h2v9h-2l-4-5.534z"/><path fill-rule="evenodd" d="M25.5 24H22v9h3.5a4.5 4.5 0 100-9zm0 2H24v5h1.5a2.5 2.5 0 000-5z" fill="#fff"/><path fill="#fff" d="M32 24h2v9h-2z"/><path fill="#fff" d="M38 24v2h-5v-2zm-1 3.5v2h-4v-2h4zm1 3.5v2h-5v-2h5zm4.64-2.504L39.874 24h2.348l1.592 2.587L45.405 24h2.348l-2.765 4.496L47.758 33H45.41l-1.596-2.595L42.217 33H39.87l2.77-4.504zM8 20h40v2H8zm0 15h40v2H8z"/></svg>