<svg width="56" height="56" viewBox="0 0 56 56" xmlns="http://www.w3.org/2000/svg"><path fill="#F0F3FA" d="M0 0h56v56H0z"/><path d="M19.56 16.71a1.2 1.2 0 1 0 0-2.39 1.2 1.2 0 1 0 0 2.39Z" fill="#727271"/><path d="M23.49 18.12c.51 0 .92-.4.92-.9s-.41-.9-.92-.9-.92.4-.92.9.41.9.92.9Z" fill="#4A4D5C"/><path d="M26.13 19.4c.36 0 .65-.28.65-.62a.63.63 0 0 0-.65-.62.63.63 0 0 0-.64.62c0 .34.29.62.64.62Z" fill="#727271"/><path d="M27.98 21.27c.3 0 .54-.23.54-.5a.52.52 0 0 0-.54-.52c-.3 0-.54.23-.54.51s.24.51.54.51Z" fill="#432E49"/><path d="M29.07 22.57c.2 0 .37-.16.37-.36 0-.2-.16-.36-.37-.36-.2 0-.36.16-.36.36 0 .2.16.36.36.36Z" fill="#727271"/><path d="M28.88 16.64a.9.9 0 0 0-.5-1.18.92.92 0 0 0-1.2.46.9.9 0 0 0 .5 1.18c.46.2 1 0 1.2-.46Z" fill="#432E49"/><path d="M25.08 14.39a1.2 1.2 0 1 0 0-2.39 1.2 1.2 0 1 0 0 2.39ZM30.44 18.98a.63.63 0 0 0-.35-.82.64.64 0 0 0-.84.32c-.13.31.03.68.35.82.33.13.7 0 .84-.32Z" fill="#4A4D5C"/><path d="M31.26 21.48a.52.52 0 0 0-.3-.68.53.53 0 0 0-.69.26c-.11.26.02.57.3.68.27.12.58 0 .69-.26ZM33 17.93a.9.9 0 0 0-.01-1.28.92.92 0 0 0-1.3-.01.9.9 0 0 0 .03 1.28c.36.36.94.36 1.29 0ZM31.54 23.18c.08-.18 0-.4-.2-.47a.37.37 0 0 0-.47.2c-.08.18 0 .39.2.47.18.07.4-.01.47-.2Z" fill="#727271"/><path d="M30.77 14.54a1.2 1.2 0 1 0 0-2.39 1.2 1.2 0 1 0 0 2.39ZM33.6 20.7a.63.63 0 0 0-.02-.9.64.64 0 0 0-.9 0 .63.63 0 0 0 .02.88c.25.25.65.26.9.01Z" fill="#432E49"/><path d="M36.6 20.63a.9.9 0 0 0 .48-1.2.92.92 0 0 0-1.19-.5.9.9 0 0 0-.48 1.19c.2.46.72.7 1.18.5ZM33.42 23.3c.2-.2.2-.53-.02-.73a.53.53 0 0 0-.74-.01c-.2.2-.2.53.02.73.2.21.54.22.74.02ZM33.05 25a.36.36 0 0 0 0-.52.37.37 0 0 0-.52 0 .36.36 0 0 0 0 .52c.15.14.38.14.52 0Z" fill="#727271"/><path d="M36.35 16.73a1.2 1.2 0 1 0 0-2.39 1.2 1.2 0 1 0 0 2.39Z" fill="#4A4D5C"/><path d="M38.73 24.39c.5 0 .9-.42.9-.93-.01-.5-.42-.91-.92-.9a.9.9 0 0 0-.9.92c.01.5.42.91.92.9Z" fill="#432E49"/><path d="M36.04 23.4c.32-.13.47-.5.33-.83a.64.64 0 0 0-.82-.35.63.63 0 0 0-.33.82c.14.33.5.49.82.36Z" fill="#727271"/><path d="M34.84 25.75c.27-.1.39-.4.28-.68a.53.53 0 0 0-.68-.3.52.52 0 0 0-.28.69c.11.27.42.4.68.3Z" fill="#432E49"/><path d="M33.85 27.15a.36.36 0 0 0 .2-.48.37.37 0 0 0-.47-.2.36.36 0 0 0-.2.48c.07.18.29.27.47.2Z" fill="#727271"/><path d="M40.4 20.74a1.2 1.2 0 1 0 0-2.39 1.2 1.2 0 1 0 0 2.39Z" fill="#432E49"/><path d="M40.53 28.3a.9.9 0 0 0-.48-1.2.92.92 0 0 0-1.18.51.9.9 0 0 0 .48 1.2c.46.18.99-.05 1.18-.51ZM37.18 26.75c.34 0 .62-.29.62-.64a.63.63 0 0 0-.63-.63c-.35 0-.62.29-.62.64 0 .35.28.64.63.63ZM35.2 28.5c.29 0 .51-.24.51-.53 0-.3-.23-.54-.52-.53a.52.52 0 0 0-.5.54c0 .29.23.53.51.52ZM33.74 29.44c.2 0 .36-.16.36-.36 0-.2-.17-.37-.37-.36-.2 0-.36.16-.36.36 0 .2.17.36.37.36ZM39.37 32.9a.9.9 0 0 0 0-1.28.92.92 0 0 0-1.3.04.9.9 0 0 0 .01 1.28c.36.34.93.33 1.29-.04Z" fill="#727271"/><path d="M42.8 26.2a1.2 1.2 0 1 0 0-2.39 1.2 1.2 0 1 0 0 2.39Z" fill="#776970"/><path d="M37.82 30.01a.63.63 0 0 0-.33-.82.64.64 0 0 0-.82.35c-.14.33.01.7.33.83s.69-.03.82-.36Z" fill="#432E49"/><path d="M35.19 30.93a.52.52 0 0 0-.27-.69.53.53 0 0 0-.68.3c-.12.27 0 .58.27.69.26.1.57-.03.68-.3Z" fill="#4A4D5C"/><path d="M36.6 36.98a.9.9 0 0 0 .5-1.18.92.92 0 0 0-1.2-.47.9.9 0 0 0-.5 1.18c.2.46.73.67 1.2.47Z" fill="#432E49"/><path d="M33.27 31.33a.36.36 0 0 0-.2-.48.37.37 0 0 0-.48.2c-.07.18.01.4.2.47.19.08.4 0 .48-.2Z" fill="#727271"/><path d="M42.69 31.85a1.2 1.2 0 1 0 0-2.39 1.2 1.2 0 1 0 0 2.39Z" fill="#4A4D5C"/><path d="M36.22 33.49a.63.63 0 0 0 0-.89.64.64 0 0 0-.9.03.63.63 0 0 0 0 .89c.25.23.65.22.9-.03ZM33.33 38.8c0-.5-.4-.9-.91-.9a.91.91 0 0 0-.94.88c0 .5.4.9.92.9.5.01.93-.38.93-.88ZM33.41 33.35c.21-.2.21-.54 0-.73a.53.53 0 0 0-.74.02c-.2.21-.2.54 0 .74.2.2.54.18.74-.03ZM31.48 33.02a.36.36 0 0 0 0-.51.37.37 0 0 0-.52 0 .36.36 0 0 0 0 .52c.15.14.38.14.52 0Z" fill="#727271"/><path d="M40.54 37.41a1.2 1.2 0 1 0 0-2.39 1.2 1.2 0 1 0 0 2.39ZM28.72 40.05a.9.9 0 0 0-.48-1.19c-.47-.2-1.01 0-1.21.46a.9.9 0 0 0 .48 1.18c.47.2 1 0 1.2-.45ZM33.46 36.3c.33-.14.49-.5.35-.82a.64.64 0 0 0-.83-.32.63.63 0 0 0-.35.81c.13.32.5.46.83.33Z" fill="#432E49"/><path d="M30.93 35.1c.27-.12.4-.42.3-.68a.53.53 0 0 0-.7-.27.52.52 0 0 0-.3.68c.11.26.42.38.7.27ZM29.3 34.04a.36.36 0 0 0 .2-.48.37.37 0 0 0-.48-.2.36.36 0 0 0-.2.48c.09.19.3.27.49.2Z" fill="#727271"/><path d="M36.31 41.74a1.2 1.2 0 1 0 0-2.39 1.2 1.2 0 1 0 0 2.39Z" fill="#432E49"/><path d="M24.19 39.29a.9.9 0 0 0 0-1.29.92.92 0 0 0-1.3-.02.9.9 0 0 0 0 1.28c.37.36.94.37 1.3.03Z" fill="#4A4D5C"/><path d="M30.41 37.22a.63.63 0 0 0-.63-.63.63.63 0 0 0-.66.61c0 .34.28.62.64.63.36 0 .65-.27.65-.61Z" fill="#727271"/><path d="M28.48 35.2a.52.52 0 0 0-.53-.51c-.3 0-.54.22-.55.5 0 .29.24.52.53.52.3 0 .54-.22.55-.5Z" fill="#432E49"/><path d="M27.25 33.73c0-.2-.16-.36-.36-.36-.2 0-.37.15-.37.35 0 .2.16.37.36.37.2 0 .36-.16.37-.36Z" fill="#727271"/><path d="M20.03 36.94a.9.9 0 0 0 .5-1.18.92.92 0 0 0-1.18-.52.9.9 0 0 0-.5 1.18c.2.47.72.7 1.18.52Z" fill="#4A4D5C"/><path d="M30.77 44a1.2 1.2 0 1 0 0-2.39 1.2 1.2 0 1 0 0 2.39Z" fill="#776970"/><path d="M26.67 37.48a.63.63 0 0 0-.34-.82.64.64 0 0 0-.84.3c-.14.32.01.69.34.83.32.14.7 0 .84-.31ZM25.68 34.86a.52.52 0 0 0-.28-.68.53.53 0 0 0-.7.26c-.12.25.01.56.28.68s.59 0 .7-.26Z" fill="#727271"/><path d="M18.16 32.37c0-.5-.4-.92-.9-.92s-.9.41-.9.92c0 .5.4.91.9.91.49 0 .9-.4.9-.91Z" fill="#432E49"/><path d="M25.1 33.05c.08-.19 0-.4-.19-.48a.37.37 0 0 0-.48.18c-.08.19 0 .4.19.48.18.08.4 0 .48-.18Z" fill="#727271"/><path d="M25.08 43.79a1.2 1.2 0 1 0 0-2.39 1.2 1.2 0 1 0 0 2.39ZM23.26 36.12a.63.63 0 0 0-.01-.89.64.64 0 0 0-.9-.02.63.63 0 0 0 0 .89c.26.25.66.26.9.02Z" fill="#432E49"/><path d="M17.14 28.22c.2-.46-.01-1-.47-1.2a.92.92 0 0 0-1.2.5c-.2.46.02 1 .47 1.2.46.19 1-.03 1.2-.5Z" fill="#4A4D5C"/><path d="M23.3 33.34c.2-.2.2-.53 0-.74a.53.53 0 0 0-.75-.02c-.2.2-.2.52.01.73.2.21.54.22.74.03ZM23.46 31.42a.36.36 0 0 0 0-.51.37.37 0 0 0-.5 0 .36.36 0 0 0-.01.5c.14.15.37.15.51.01Z" fill="#727271"/><path d="M19.54 41.53a1.2 1.2 0 1 0 0-2.39 1.2 1.2 0 1 0 0 2.39ZM18 24.2a.9.9 0 0 0 0-1.27.92.92 0 0 0-1.29.01.9.9 0 0 0 0 1.28c.34.35.92.35 1.28-.01Z" fill="#432E49"/><path d="M20.4 33.66c.31-.12.47-.49.34-.82a.64.64 0 0 0-.82-.37.63.63 0 0 0-.34.82c.13.33.5.5.81.37ZM21.54 31.13c.26-.1.4-.4.28-.68a.53.53 0 0 0-.67-.31c-.27.1-.4.4-.29.68.11.28.41.41.68.31Z" fill="#727271"/><path d="M22.45 29.43a.36.36 0 0 0 .2-.47.37.37 0 0 0-.47-.2.36.36 0 0 0-.2.47c.07.19.28.28.47.2ZM15.54 37.46a1.2 1.2 0 1 0 0-2.39 1.2 1.2 0 1 0 0 2.39Z" fill="#4A4D5C"/><path d="M20.2 20.55a.9.9 0 0 0 .52-1.18.92.92 0 0 0-1.2-.48.9.9 0 0 0-.51 1.17c.18.46.72.68 1.19.49Z" fill="#432E49"/><path d="M19.46 29.75a.63.63 0 0 0-.62-.64.63.63 0 0 0-.62.64c0 .35.28.64.62.64.34 0 .62-.28.62-.64Z" fill="#727271"/><path d="M21.36 27.92c0-.3-.23-.53-.52-.53a.52.52 0 0 0-.51.53c0 .3.23.53.51.53.29 0 .52-.23.52-.53Z" fill="#4A4D5C"/><path d="M22.67 26.82a.36.36 0 0 0-.73 0c0 .2.17.37.37.37.2 0 .36-.17.36-.37Z" fill="#727271"/><path d="M13.2 31.98a1.2 1.2 0 1 0 0-2.39 1.2 1.2 0 1 0 0 2.39ZM19.36 26.32c.14-.32 0-.7-.32-.83a.64.64 0 0 0-.82.35c-.14.32 0 .7.32.83.31.13.68-.02.82-.35Z" fill="#432E49"/><path d="M21.83 25.35a.52.52 0 0 0-.26-.69.53.53 0 0 0-.69.3c-.12.26 0 .57.26.68.27.11.57-.02.69-.29ZM23.48 24.86c.08-.18-.01-.4-.2-.47a.37.37 0 0 0-.47.19c-.08.18 0 .4.19.47.18.08.4 0 .48-.19Z" fill="#727271"/><path d="M13.35 26.33a1.2 1.2 0 1 0 0-2.39 1.2 1.2 0 1 0 0 2.39Z" fill="#432E49"/><path d="M20.76 23.25a.63.63 0 0 0 .01-.89.64.64 0 0 0-.9.02.63.63 0 0 0-.01.89c.24.24.64.23.9-.02Z" fill="#727271"/><path d="M23.41 23.28c.21-.21.22-.54.02-.74a.53.53 0 0 0-.75.01c-.2.21-.21.54-.01.74.2.2.53.2.74-.01Z" fill="#432E49"/><path d="M25.13 23.42a.36.36 0 0 0 0-.52.37.37 0 0 0-.52 0 .36.36 0 0 0 0 .52c.14.14.37.14.52 0Z" fill="#727271"/><path d="M15.59 20.8c.66 0 1.2-.53 1.2-1.19 0-.66-.54-1.2-1.2-1.2a1.2 1.2 0 1 0 0 2.39Z" fill="#776970"/><path d="M23.14 20.73c.33-.13.5-.5.37-.8a.64.64 0 0 0-.84-.34c-.33.13-.49.5-.36.81.13.32.5.47.83.33Z" fill="#727271"/><path d="M25.57 21.79a.52.52 0 0 0 .3-.68.53.53 0 0 0-.68-.27.52.52 0 0 0-.3.67c.1.27.4.39.68.28ZM27.08 22.58a.36.36 0 0 0 .2-.47.37.37 0 0 0-.47-.2.36.36 0 0 0-.2.47c.08.19.29.28.47.2Z" fill="#4A4D5C"/></svg>