<svg xmlns="http://www.w3.org/2000/svg" width="56" height="56" viewBox="0 0 56 56"><path fill="#F0F3FA" d="M0 0h56v56H0z"/><path fill-rule="evenodd" d="M8 20.79a83.9 83.9 0 0 0 17.43-2.52c8.56-2.35 18.03-2.55 20.22-2.04L48 35.47a58.49 58.49 0 0 0-17.51 1.39 135.53 135.53 0 0 1-16.63 2.91L17.4 25h-2.69l-3.6 15-.76-.01L8 20.79zM15.32 22h2.78l-.44 2h-2.72l.38-2zm22.95 0H35.5l-.38 2h2.73l.43-2zm-3.37 3h2.78l-1.82 8h-2.73l1.77-8zm-13.28 0a6.7 6.7 0 0 1 2.44.4l-.58 1.75c-1.55-.88-2.86-.56-2.95-.18-.08.32.76.8 1.56 1.25l.43.25c.9.52.94 1.19.96 1.55v.04c-.07 1.93-2.2 2.92-3.91 2.94a7.69 7.69 0 0 1-2.86-.49l.58-2c1.1.85 3.24.78 3.33.32.06-.29-.42-.57-1.06-.94l-.92-.57c-.75-.5-.87-1.3-.82-1.66.2-2.15 2.42-2.62 3.8-2.66zm-1.2 6.96c.05.35-.36.7-.92.77-.56.08-1.05-.14-1.1-.5-.04-.34.37-.69.93-.76.55-.08 1.05.14 1.1.5zM26.2 22l-1.82 7.46c-.32 1.21-.12 3.63 3.32 3.54 4.3-.12 5.14-3.6 5.18-5.28.03-1.67-1.12-2.76-2.52-2.72-1.13.03-1.9.36-2.15.52l.86-3.52h-2.87zm1.5 9.58c.58.2 1.42-.75 1.87-2.1.44-1.34.33-2.6-.25-2.79-.59-.19-1.43.75-1.87 2.1-.45 1.35-.34 2.6.24 2.79zM39.42 25l-1.8 8h2.85l.88-3.9c.14-.69.86-2.04 2.67-1.9l.62-2.2c-.56.03-1.85.3-2.6 1.07l.2-1.07h-2.82z" fill="#ED1C24"/></svg>