<!-- by TradingView --><svg xmlns="http://www.w3.org/2000/svg" width="56" height="56"><path fill="#F0F3FA" d="M0 0h56v56H0z"/><path d="M27.91 20.5a2.5 2.5 0 11.1 5 2.5 2.5 0 01-.1-5z" fill="#E41B13"/><path d="M13.02 37.3c.08.15 7.6 3.22 16.64 1.98C41.4 37.65 44.7 32.8 44.8 29c.1-4.34-6.26-9.26-16.82-9.07-10.06.17-16.51 4.98-16.43 9.54.05 2.95 3.12 6.34 9.93 6.74 2.61.15 9.28-.47 14.2-1.82a33.56 33.56 0 01-10.4 3.02c-8.93 1.24-18.71-1.49-18.82-7.81-.12-6.5 9.84-11.84 21.53-12.04C40.74 17.35 49.75 23 49.86 28.9c.1 5.76-8.77 11.5-22.8 11.74-8.76.15-13.96-3.24-14.04-3.35zM27.77 12a2.5 2.5 0 11.08 5 2.5 2.5 0 01-.08-5z" fill="#E41B13"/><path d="M16 32v-4h1v4h-1zm0-5v-1h1v1h-1zm19 5v-4h1v4h-1zm0-5v-1h1v1h-1zm-17.07 4.45l.62-.58c.2.37.48.55.86.54.35 0 .56-.17.56-.41a.3.3 0 00-.14-.28 1.46 1.46 0 00-.5-.17c-.43-.09-.73-.23-.91-.42-.5-.53-.5-1.45 0-1.97.27-.26.61-.4 1.04-.41.55-.01.99.2 1.3.66l-.58.57c-.21-.27-.45-.4-.7-.4-.3 0-.5.17-.5.37 0 .23.15.32.62.43.46.1.78.25.96.43.24.23.37.55.37.96.02.85-.58 1.46-1.43 1.48-.76.02-1.28-.25-1.57-.8zM22 32v-4h1.26c1.1-.02 1.89.88 1.9 2 .03 1.14-.74 1.98-1.84 2H22zm1-3v2c.77-.02 1.13-.27 1.11-1 0-.5-.27-1-.85-1H23zm3 3v-4h3v1h-2v.5h1v1h-1v.5h2v1h-3zm4 0v-4h1.49l.51 2.5.5-2.5H34v4h-1v-3l-.5 3h-1l-.5-3v3h-1zm9.05-4H37v4h1v-1.5h.56l.63 1.5h1.08l-.68-1.62a1.25 1.25 0 00-.54-2.38zM38 29.5V29h1.05a.25.25 0 110 .5H38z" fill="#231F20"/></svg>