<svg width="56" height="56" xmlns="http://www.w3.org/2000/svg"><path fill="#0032A1" d="M0 0h56v56H0z"/><path d="M30 9.106a2 2 0 11-4 0 2 2 0 014 0z" fill="#fff"/><path d="M24 12h8v1c-.91 0-2 .5-2 2v10.799l-4-2.212v-7.498C23 16 19.902 19.403 23.5 23c1.371 1.371 3.256 2.32 5.058 3.227.625.315 1.24.624 1.82.944 2.832 1.806 6.122 3.97 6.122 7.615 0 2.054-.752 4.013-2.255 5.39-1.503 1.389-3.598 1.924-5.706 1.897A2 2 0 0130 44c0 .583-.646 1.472-.646 1.472L28 47.5h-.5v-1.408a.214.214 0 00-.148-.2 2 2 0 01.3-3.862 13.237 13.237 0 01-3.312-.719c-.138-.05-.279-.104-.419-.158-1.225-.47-2.472-.947-2.921.847h-1v-7h.869s.392 1.763 1.254 2.81C26 43 33.746 41.893 33.746 36.262c0-1.887-1.905-3.43-3.746-4.586V35.5a2.5 2.5 0 002 2.45V39h-8v-1.05a2.5 2.5 0 002-2.45v-6.244l-2.048-1.32-.318-.209C21.502 26.338 19.5 25.034 19.5 22c0-1.977.731-3.686 2-5 1.066-1.103 2.758-1.764 4.5-1.947C26 13.5 25 13 24 13v-1zm7 5c1.048 1.152 2 3.5 2.095 5H34v-7h-1c0 1-1 1.5-2 1.076V17z" fill="#fff"/></svg>