<svg xmlns="http://www.w3.org/2000/svg" width="56" height="56"><path fill="#F0F3FA" d="M0 0h56v56H0z"/><path fill-rule="evenodd" d="M17.54 14.27c-1.2.3-1.18 1.9-1.02 2.68.24-.1.8-.16 1.14.3.34.46.61.2.7 0 .02-.25.25-.72.99-.58.73.15.83-.24.8-.45-.1-.14-.25-.6 0-1.25.3-.82-.53-1.18-.62-.9-.1.27-.83.48-.8.2.03-.27-.55-.51-.73-.2-.15.24-.37.24-.46.2zm3.2 25.78c.1-6.82.97-15.63 1.4-19.19.14-1.36-.7-1.07-1.15-.75-.44.4-1.46 1-1.98.16-.53-.85-1.2-.36-1.47 0-.27.45-.96 1.32-1.53 1.22-.58-.1-.78.47-.81.77-.63 7.8.38 16.8 1.25 19.43 1.07-.07 1.08 1.16.95 1.79.27 0 .73.4.24.67-.4.21-.23.35-.1.4.73-.31 1.17-.01 1.3.17.74.13 1.47-.54 1.3-1.24-.15-.7-.03-1.52.29-1.96.25-.36.31-1.13.31-1.47zm14.3-18.27a117.6 117.6 0 00-10.81 3.99c-.97.4-.84.8-.65.96.38.25 1 .83.36 1.14-.64.31-.7.77-.65.96.14 1.03 1.02.81 1.44.57 3.05-1.76 9.33-5.28 10.05-5.34.72-.06.3.52 0 .82l-9.04 4.88c-.37.08-1.05.46-.8 1.32.27.85 1.2.6 1.63.35 1.87-1.14 5.74-3.45 6.23-3.56.49-.11.2.6 0 .96-1.85 3.96-5.68 11.94-6.23 12.26-.69.39-1.23.92-1.08 1.82.11.7-.32 1.29-.54 1.5.33.36 1.13.94 1.62.31.36-.46 5.85-2.9 10.49-4.95 3.27-1.45 6.11-2.7 6.44-2.96.63-.48.05-.5-.32-.46l-2.63 1.07c-.45.06-1.38.18-1.55.18-.06 0-.26.08-.52.18-.65.26-1.68.68-1.86.35-.17-.3.25-.44.58-.54.18-.06.33-.11.36-.17.05-.14.72-.46 1.04-.6.65-.17 2.02-.61 2.34-1.04.25-.34.85-.4 1.28-.43.25-.02.45-.04.49-.1.1-.18.79-.75 1.51-.86.72-.1 1.05-.25 1.62-.9.46-.5-.2-.35-.58-.2-4.57.95-8 2.52-10.1 3.48-1.03.47-1.74.8-2.1.83-.9.08-.55-.66-.26-1.04 1.87-2.85 6.05-9.1 7.75-11.29.37-.49.7-.9 1-1.28 1.36-1.73 1.86-2.38 1.95-3.14.09-.74-1.21-.64-1.87-.5.04-.25.06-.75-.26-.75-.31 0-1.02.65-1.33.97-.55-.16-1.78-.32-2.27.28-.49.6-2.03.87-2.74.93zm6.44-.96c-.65.15-1.9.64-1.7 1.35.26.89 1.7-.86 1.7-1.35z" fill="#231F20"/><path d="M26.39 10.52c-.6.28-1.4.97-1.73 1.28a4.5 4.5 0 00-1.44 2.82c-.1.03-.3.12-.3.3 0 .16.2.39.3.48l.07.66c-.1.07-.31.26-.37.47-.05.2.23.52.37.66a3.4 3.4 0 00-.65 1.66c-.07.78.87.76 1.36.66-.66 1.02-.04 1.7.4 1.56.35-.1.4.05.38.14.1.8.7.6 1 .4.3-.35.92-.85.9 0-.03 1.08 1.16.9 1.27.58.1-.31.74-.57.73-.31-.02.25 1.12.68 1.23 0 .1-.55.38-.4.51-.26.15.2.72.94 1.1.26.31-.55.67-.54.8-.47.52.73 1.03.44 1.23.2.5-.8 1.6-2.46 2.04-2.76.45-.3.42-.55.34-.63l-.9-1.25c.05-.1.2-.39.44-.79.23-.4-.39-.87-.73-1.06.42-.4 1.16-1.28.73-1.68-.44-.4-1.31.31-1.7.71.36-.47.92-1.52.29-1.92-.63-.4-1.27.45-1.51.93-1.38 1.85-4.33 5.64-5.05 5.98-.72.34-.54-.14-.36-.43 1.98-2.22 6-6.7 6.24-6.9.28-.26.18-1.29-.83-.65s-4.47 4.24-5.4 5.52c-.76 1.03-1.06 1.07-1.12.97 0-.75 3.81-4.64 5.72-6.49.3-.32.8-1.03.5-1.28-.28-.26-.88.1-1.14.32l-5.34 5.45c-.49.2-.37-.08-.25-.25l5.12-5.52c.43-1.07-.83-1.07-1.16-.5-.32.57-.43.5-.68.5.03-.86-.59-.69-.9-.5-.25.26-.9.85-1.51 1.14z" fill="#FFCB06"/></svg>