<svg xmlns="http://www.w3.org/2000/svg" width="56" height="56"><path fill="#19458D" d="M0 0h56v56H0z"/><path d="M35 18.62c4.87.32 8.99 4.6 8.99 9.38v.2l.01.12v.19a15.95 15.95 0 01-1.25 5.72 16.03 16.03 0 01-3.43 5.09 16.17 16.17 0 01-5.09 3.42A15.98 15.98 0 0128 44c-2.2 0-4.31-.44-6.22-1.25a16.15 16.15 0 01-5.1-3.44 16.02 16.02 0 01-3.42-5.08A16.03 16.03 0 0112 28c0-2.2.45-4.31 1.26-6.23a16.06 16.06 0 018.52-8.51A15.97 15.97 0 0128 12a16 16 0 016.23 1.26 3.46 3.46 0 01.77.46v4.9zm-.94-.05c.35 0 .66 0 .94.05-2-1.53-4.23-2.62-6.95-2.62C21.42 16 16 21.51 16 28.13S21.42 40 28.05 40c2.13 0 4.13-.56 5.86-1.55C28.48 38.37 24 33.44 24 28c0-5.5 4.55-9.43 10.05-9.43zM34 38.4A12.1 12.1 0 0040 28c-.14-3.22-2.15-5.98-5.91-6A5.8 5.8 0 0028 28a6.06 6.06 0 006 6v4.4zM32 28c0-1.1.9-2 2-2a2 2 0 010 4 2 2 0 01-2-2z" fill="#fff"/></svg>