<svg width="56" height="56" xmlns="http://www.w3.org/2000/svg"><path fill="#F0F3FA" d="M0 0h56v56H0z"/><path d="M51.477 30.075s0 .08-.081.161c-1.137 1.292-3.003 2.18-4.952 2.826l-1.542.404-2.354.484-2.435.404-2.191.242-2.273.162-3.004.161-2.354.081h-3.003l-3.004-.08-2.354-.162-2.272-.162-2.923-.323a38.029 38.029 0 01-7.549-1.696c-.243-.08-.487-.161-.811-.242-1.705-.807-3.572-1.695-4.221-3.23-.163-.484-.244-1.13 0-1.534.406-1.05 1.298-1.696 2.272-2.26 2.03-1.131 4.384-1.696 6.738-2.18l1.948-.324 2.84-.323 2.68-.242 2.84-.161L25.826 22h2.517l3.652.08 2.11.162 2.274.162 2.354.242c2.11.323 4.22.646 6.25 1.13 2.273.646 4.708 1.534 6.25 3.068.487.566.893 1.212.73 2.18v.243c-.162.323-.243.565-.486.808z" fill="#EFD558"/><path d="M47.84 29.308c-.639 1.23-2.076 1.923-3.513 2.538-2.714.923-5.589 1.462-8.543 1.77l-2.634.23c-1.118.077-2.316.077-3.593.154h-2.315l-2.316-.077c-4.63-.308-9.102-.77-13.173-2.308-1.278-.46-2.476-1.153-3.274-2.076-.24-.308-.479-.693-.479-1.154 0-.231 0-.462.08-.616.639-1.307 2.155-2 3.673-2.692 2.714-.923 5.588-1.462 8.542-1.77l2.795-.23L25.405 23h3.832l2.396.077 1.996.154 2.475.23c2.954.385 5.828 1 8.462 2.078 1.598.692 3.115 1.461 3.434 3 0 .307 0 .538-.16.769z" fill="#C82E37"/><path d="M26.642 28.512c0-.782-1.575-1.13-2.341-1.13-.811 0-2.117.21-2.423 1.13h4.764zm-4.925.646c0 1.4 1.408 1.747 2.756 1.688.948-.041 2.149-.294 2.411-1.346H28.5c-.463 1.841-3.18 1.936-4.684 1.857-1.607-.107-4.418-.988-3.39-3.007.484-.953 1.934-1.392 3.067-1.533 1.56-.12 3.431.088 4.561 1.304.265.286.446.627.446 1.037h-6.783zm20.066 2.45c-1.324 0-3.149-.49-3.149-2.099V28h-1.211v-1h1.211v-2H40v2h3v1h-3v1.267c0 1.932 3.268 2.192 3.56.404h1.856c-.228 1.596-2.317 1.938-3.633 1.938zm-4.764-.612h-1.615V29.18s0-.646-.404-1.13c-.894-1.044-3.036-.643-4 .08v2.866h-1.5V27H31v.404c1.68-.72 4.21-.983 5.615.323.323.323.404.807.404 1.372v1.897z" fill="#fff"/><path d="M17.838 31s-1.894-1.168-2.863-1.814l-.565.242V31H13v-6h1.41v3.54L18.292 27h1.938l-3.72 1.621 3.67 2.38L17.84 31z" fill="#fff"/></svg>