<svg width="56" height="56" viewBox="0 0 56 56" xmlns="http://www.w3.org/2000/svg"><path fill="#F0F3FA" d="M0 0h56v56H0z"/><path d="M13.77 23h2.17l-3.14 4.32L16 32h-2.27L11 27.59V32H9v-9h2v4.22L13.77 23ZM20 31.1h-.01c-.58.7-1.09.9-1.81.9-.98 0-2.18-.44-2.18-1.74 0-.6.22-1.62 2.65-1.75l1.35-.09v-.26c0-.67-.21-1-.97-1-.72 0-.99.33-1.03.84h-1.82c.06-.88.74-2 2.91-2 1.54 0 2.91.7 2.91 2v4h-2v-.9Zm0-1.73-1.2.12c-.79.07-1.06.29-1.06.7 0 .5.51.66 1.1.66.53 0 1.16-.28 1.16-.96v-.52ZM23 23h2v9h-2v-9ZM27.71 29.5c.07.66.5 1.28 1.37 1.28.5 0 .95-.23 1.17-.67l1.6.12C31.45 31.4 30.38 32 29 32c-1.76 0-3-1.18-3-2.99 0-1.83 1.23-3.01 3-3.01 1.76 0 3 1.18 3 3.01v.49h-4.29Zm2.65-1.06c-.06-.55-.49-1.22-1.28-1.22-.86 0-1.28.57-1.37 1.22h2.65ZM35.06 28.99H35V32h-2v-9h2v5.54h.06L36.8 26h2.1l-2.16 2.62L39 32h-2.24l-1.7-3.01ZM41 23c.51 0 1 .46 1 1 0 .5-.46 1-1 1-.56 0-1-.54-1-1 0-.48.43-1 1-1Zm-1 3h2v6h-2v-6ZM49.31 27.32c-.65 0-.81.58-.81 1.04V32h-2v-3.6c0-.6.02-1.07-.69-1.07-.7 0-.81.56-.81 1.13v3.54h-2V26h2v.92c.54-.78.94-.92 1.63-.92.4 0 1.2.1 1.63.9.6-.77 1.28-.9 1.78-.9 1.04 0 1.96.58 1.96 1.8V32h-2v-3.77c0-.42-.16-.91-.69-.91Z"/><path d="M8 23h-.8v.5h-.8V23h-.8v.5h-.8V23H4v4h4v-4Z" fill="#EC4632"/></svg>