<svg xmlns="http://www.w3.org/2000/svg" width="56" height="56"><path fill="url(#a44vhc0au)" d="M0 0h56v56H0z"/><path d="M28 44a16 16 0 0013.73-24.22 798.03 798.03 0 01-8.57 18.06c-.41.74-1.11 1.87-.65.45.4-1.27 4.7-11.7 7.31-18.02l.01-.03.84-2.02a16.1 16.1 0 00-1.78-1.95c-1.38 3.1-7.4 15.7-10.57 22.1-.5.91-1.35 2.28-.79.56.42-1.3 4.08-10.12 7.1-17.42l2.7-6.51a16 16 0 00-2-1.22c-1.45 3.26-7.68 16.62-11.07 23.46-.53.96-1.44 2.43-.84.59.5-1.56 5.19-12.92 8.49-20.91l1.62-3.94a15.87 15.87 0 00-2.22-.64c-1.38 3.1-7.59 16.12-10.76 22.53-.5.9-1.35 2.27-.79.54.46-1.41 4.64-11.54 7.72-19l1.8-4.36a16.18 16.18 0 00-2.52 0c-1.13 2.54-6.53 13.64-9.15 18.91-.4.75-1.1 1.87-.65.45.46-1.41 5.32-13.27 7.7-19.06A16 16 0 0028 44z" fill="#fff"/><defs><linearGradient id="a44vhc0au" x1="24.84" y1="0" x2="39.57" y2="53.23" gradientUnits="userSpaceOnUse"><stop stop-color="#ED262D"/><stop offset="1" stop-color="#830C0D"/></linearGradient></defs></svg>