<svg width="56" height="56" viewBox="0 0 56 56" xmlns="http://www.w3.org/2000/svg"><path fill="#F0F3FA" d="M0 0h56v56H0z"/><ellipse cx="28" cy="28" rx="20.94" ry="12" fill="#082C52"/><path fill-rule="evenodd" d="M49 28c0 7.5-9.4 12-21 12S7 35.19 7 28s9.4-12 21-12 21 4.5 21 12ZM28 39v-7.55c0-2.68-1.14-3.45-3.12-3.45h-2.3c-.84 0-1.58-.7-1.58-1.55 0-.4.13-.83.47-1.25L27.5 17c-9.16.18-16.5 5.03-16.5 11 0 6.08 7.61 11 17 11Zm17-11c0 4.95-5.05 9.13-12 10.52v-6.86c0-3.41-1.13-5.91-4.4-6.77-.71-.31-.77-.78-.32-1.4l4.47-6.06C39.83 18.76 45 23 45 28Z" fill="#97A4AF"/></svg>