<svg width="56" height="56" xmlns="http://www.w3.org/2000/svg"><path fill="#F0F3FA" d="M0 0h56v56H0z"/><path d="M10.473 31l-3.014-3.025L10.209 25H8.208l-1.982 2.244h-.769V25H4v6h1.456v-2.294h.729L8.349 31h2.124zM18 28.05c0-.819-.021-1.24-.065-1.513-.129-.892-.516-1.314-1.335-1.463C16.255 25 15.781 25 14.338 25c-.904 0-1.206.025-1.701.074-.776.1-1.292.447-1.465 1.042-.15.446-.172.719-.172 1.909 0 .694.021 1.14.043 1.388.086.67.345 1.091.732 1.314.431.248.883.273 2.65.273.861 0 1.486-.025 1.873-.05.84-.074 1.379-.52 1.551-1.289.13-.421.151-.719.151-1.611zm-1.55-.124c0 1.066-.087 1.363-.431 1.512-.237.1-.539.124-1.745.124-1.615 0-1.702-.074-1.702-1.611 0-.943.087-1.24.388-1.389.215-.1.538-.124 1.508-.124 1.206 0 1.464.025 1.68.174.237.148.301.446.301 1.314zm8.557-.968c0-.929-.192-1.481-.596-1.732-.298-.176-.66-.226-1.404-.226h-4.362v5.975h1.532v-1.506h2.362c.425 0 .532.025.66.125.127.126.19.301.19.653V31h1.554v-.929c0-.452-.042-.678-.149-.879-.149-.3-.361-.376-.936-.426l-.255-.025c.617-.1.787-.151.978-.327.298-.276.426-.753.426-1.456zm-1.532.377c0 .552-.149.652-.894.652h-2.404v-1.53h2.447c.468 0 .574.024.702.175.106.1.149.276.149.703zm8.864.667c0-1.386-.121-2.041-.445-2.445-.324-.403-.81-.554-1.82-.554h-4.147V31h4.349c.97 0 1.314-.1 1.618-.504.344-.453.445-1.033.445-2.494zm-1.477 0c0 1.058-.1 1.36-.445 1.486-.182.076-.202.076-.607.076h-2.447V26.49h2.488c.83 0 1.011.277 1.011 1.512z" fill="#000"/><path d="M33 28c0-2.752 2.17-5 4.873-5 2.15 0 3.972 1.429 4.627 3.424C43.135 24.43 44.957 23 47.127 23 49.81 23 52 25.227 52 28c0 2.752-2.17 5-4.873 5-2.15 0-3.972-1.428-4.627-3.424C41.865 31.57 40.043 33 37.873 33 35.17 33 33 30.752 33 28z" fill="#001689"/><path d="M41 29.128c0-.625-.101-1.05-.304-1.325-.223-.325-.527-.425-1.236-.475-.386-.025-.67-.025-.77-.025h-1.36c-.466 0-.507-.025-.588-.025-.223-.05-.324-.225-.324-.475 0-.325.122-.45.486-.5.223-.025.872-.05 1.318-.05.993 0 1.135.222 1.135.747h1.44c0-1.025-.163-1.572-.65-1.797-.364-.175-.75-.2-2.148-.2-.932 0-1.338.025-1.804.1-.892.15-1.196.625-1.196 1.8 0 .925.203 1.4.71 1.6.243.1.668.15 1.358.15h1.337c.608 0 .629 0 .73.025.304.025.446.2.446.5 0 .525-.182.575-1.905.575-.365 0-.77-.025-.913-.075-.222-.075-.263-.228-.283-.678H35v.403c0 .85.264 1.275.81 1.45.345.125.852.15 1.926.15 1.034 0 1.44-.025 2.028-.1.891-.1 1.236-.575 1.236-1.775zm9.674 1.873L48.146 25h-1.868l-2.587 6h1.595l.428-1h2.996l.447 1.001h1.517z" fill="#fff"/><path d="M48.204 28.55H46.22l.992-2.265.992 2.264z" fill="#001689"/></svg>