<svg width="56" height="56" xmlns="http://www.w3.org/2000/svg"><path fill="#7D6A55" d="M0 0h56v56H0z"/><path d="M8 35V22h2v4.323L14.389 22H17l-5.51 5.78L17 35h-2.436L10 29.307V35H8z" fill="#fff"/><path fill-rule="evenodd" d="M22.5 35a6.5 6.5 0 100-13 6.5 6.5 0 000 13zm0-2a4.5 4.5 0 100-9 4.5 4.5 0 000 9z" fill="#fff"/><path d="M37 22h-8v2h4.556L28 35h9v-2h-5.566L37 22z" fill="#fff"/><path fill-rule="evenodd" d="M42.5 21.048L37 35h1.992l1.262-3h4.544l1.197 3H48l-5.5-13.952zm0 4.573L40.891 30h3.276L42.5 25.621z" fill="#fff"/></svg>