<svg width="56" height="56" xmlns="http://www.w3.org/2000/svg"><path fill="#75614D" d="M0 0h56v56H0z"/><path fill-rule="evenodd" d="M21.5 35.435a7.5 7.5 0 100-15 7.5 7.5 0 000 15zm0-1.935a5.564 5.564 0 100-11.129 5.564 5.564 0 000 11.129z" fill="#fff"/><path d="M8 25.887L11.96 21h2.54l-4.828 5.995L15.075 35h-2.564l-4.192-6.275-.319.408V35H6V21h2v4.887zM29 21h9l-6.107 12H38v2h-9.5l6.107-12H29v-2z" fill="#fff"/><path d="M44.781 20l5.782 15h-2.134l-1.486-4H42.62l-1.487 4H39l5.781-15zm0 5.185L43.363 29H46.2l-1.418-3.815z" fill="#fff"/></svg>