<svg xmlns="http://www.w3.org/2000/svg" width="56" height="56"><path fill="url(#at3gqsg1u)" d="M0 0h56v56H0z"/><path d="M49.55 27.2c-.05.1-.18.11-.26.11h-1.47c-.37 0-.43.05-.45.1a.13.13 0 000 .1c.02.06.08.1.3.15l.3.06.09.01.12.03.35.06a6.77 6.77 0 012.31.89l.07.04c.2.12.47.28.7.23a.47.47 0 00.38-.37.49.49 0 000-.2 1.1 1.1 0 00-.2-.42c-.2-.26-.44-.51-.67-.73l-.1-.1a29.79 29.79 0 00-1.69-1.56c-.82-.7-1.05-.85-1.94-.12a29.15 29.15 0 00-1.71 1.55 35.7 35.7 0 00-1.6 1.68.22.22 0 00-.08.15.13.13 0 00.1.14.22.22 0 00.15-.04.92.92 0 00.13-.1 42.63 42.63 0 00.65-.57l.35-.3a64.39 64.39 0 012.3-1.92l.05-.04c.14-.1.29-.22.47-.24a.54.54 0 01.37.09c.1.06.19.13.27.2a5.22 5.22 0 01.66.76.58.58 0 01.06.14.28.28 0 01-.01.21zm-3.88-1.87c-.49.32-1.67 1.11-2.11 1.5a2.29 2.29 0 00-.7 1.09 4.2 4.2 0 00-.1.39l-.06.25c-.06.22-.14.44-.4.44s-.35-.21-.41-.43a6.46 6.46 0 01-.07-.28 4.44 4.44 0 00-.1-.37 2.3 2.3 0 00-.7-1.1 28.26 28.26 0 00-2.1-1.49c-.15-.1-.2-.18-.14-.26.05-.07.2-.13.67.04a20.96 20.96 0 011.68.68c.38.18.66.31 1.16.32.5 0 .78-.14 1.16-.32l.28-.12c.46-.2.93-.4 1.4-.56.47-.17.62-.1.68-.04.05.08 0 .17-.14.26zm-33.3.54a.23.23 0 01-.12.2 1.7 1.7 0 01-.2.12c-.07.04-.13.07-.16.03-.03-.04-.03-.15-.03-.22v-.49c0-.14 0-.3.05-.4.05-.1.14-.14.21-.09.07.06.1.2.15.35v.01c.05.16.08.32.1.48zm2.44 2.23h-.42a3.29 3.29 0 01-.72-.05 1.5 1.5 0 01-.62-.29 1.23 1.23 0 01-.34-.5 4.42 4.42 0 01-.14-.43l-.03-.1c-.04-.15-.07-.22-.12-.25a.22.22 0 00-.17-.02.66.66 0 00-.36.24.37.37 0 00-.04.19v.97c0 .14 0 .27.02.41a.8.8 0 00.17.45c.14.13.31.22.5.25s.38.04.56.02l.35-.03.22-.01.17-.01.4-.03h.57a15.45 15.45 0 011.02.03l.12.01.28.02.3.02c.18.02.37.01.56-.02a.93.93 0 00.5-.25.8.8 0 00.17-.45l.01-.41v-.97a.36.36 0 00-.03-.2.65.65 0 00-.36-.23.23.23 0 00-.18.02c-.04.03-.07.1-.11.24l-.04.13-.13.4c-.08.2-.2.37-.35.5a1.49 1.49 0 01-.62.3c-.23.04-.48.06-.72.05h-.42zM17.3 26a.23.23 0 01-.03-.12c.02-.17.05-.33.1-.49.04-.16.08-.3.15-.36.06-.05.16-.02.2.09.06.1.06.26.06.4v.5c0 .06 0 .17-.03.2-.03.05-.1.02-.16-.02a1.49 1.49 0 01-.2-.11.22.22 0 01-.1-.1zm11 1.32c.08 0 .2 0 .26-.12a.27.27 0 00.01-.21.45.45 0 00-.06-.14 2.96 2.96 0 00-.21-.26 5.45 5.45 0 00-.45-.49 1.65 1.65 0 00-.27-.21.54.54 0 00-.37-.09c-.18.02-.33.14-.47.24l-.04.04c-.27.2-.53.41-.78.63a64.16 64.16 0 00-1.85 1.57l-.43.38-.25.21a.89.89 0 01-.13.1.22.22 0 01-.15.04.14.14 0 01-.1-.13.23.23 0 01.07-.16 34.58 34.58 0 011.6-1.68 29.63 29.63 0 011.72-1.55c.89-.73 1.12-.57 1.94.12a29.57 29.57 0 011.7 1.57l.1.09c.22.23.47.47.66.73.1.13.17.28.2.43a.49.49 0 01-.07.36.47.47 0 01-.3.2c-.24.05-.51-.12-.71-.23l-.06-.04c-.4-.24-.83-.44-1.27-.6a6.89 6.89 0 00-1.05-.3 10 10 0 00-.31-.05 19.36 19.36 0 01-.16-.02l-.1-.02-.28-.06c-.23-.05-.29-.1-.31-.15a.13.13 0 010-.09c.02-.05.08-.1.44-.1h1.48zm6.78.47h-.14c-.52 0-1 .03-1.36.1-.36.08-.6.2-.8.47l-.24.35a1.82 1.82 0 01-.1.16c-.16.2-.34.18-.4 0a1.47 1.47 0 01-.03-.39v-2.92c0-.16 0-.36.06-.46a.18.18 0 01.05-.06.17.17 0 01.14-.02.17.17 0 01.07.03c.07.06.1.19.16.42l.05.19c.04.2.1.45.17.67.08.29.18.53.54.66.28.1 1.2.17 1.76.17s1.48-.07 1.76-.17c.36-.13.46-.37.55-.66l.18-.75.03-.11c.05-.23.09-.36.17-.42a.16.16 0 01.2 0 .18.18 0 01.05.05c.06.1.06.3.06.46v2.92c0 .13 0 .26-.03.38-.06.2-.24.2-.4.01a1.66 1.66 0 01-.1-.16l-.24-.35a1.2 1.2 0 00-.8-.46c-.36-.08-.84-.1-1.36-.1zM18.7 25h-.01c-.1 0-.4 0-.46.08a.2.2 0 00-.03.16.18.18 0 00.12.11c.09.03.17.05.26.06.18.04.37.06.55.09h.04c.47.07 1.1.16 1.52.44.26.17.38.39.46.68.08.27.12.55.13.84a14.98 14.98 0 01.05 1.13.73.73 0 00.08.27c.02.04.05.08.09.1a.24.24 0 00.34-.1.91.91 0 00.09-.47v-.09c0-.28.02-.56.04-.84 0-.29.05-.57.13-.84.08-.3.2-.51.46-.68.4-.28 1.03-.37 1.5-.44h.08l.53-.09c.09 0 .17-.03.26-.06a.17.17 0 00.12-.11.19.19 0 00-.03-.16c-.07-.08-.4-.08-.47-.08H18.7zM4 25.84v2.37c0 .22.01.67.2.76a.38.38 0 00.29 0c.16-.06.31-.13.45-.23l.71-.41.26-.15a62 62 0 01.57-.33c.2-.12.38-.23.6-.3a.71.71 0 01.46-.04c.17.05 1.09.5 1.48.69l.15.07.12.06c.4.19 1.24.6 1.52.64.07 0 .16.02.19-.06a.24.24 0 00-.07-.22c-.18-.2-.96-.74-1.16-.87a40.12 40.12 0 01-.59-.4 6.13 6.13 0 01-.3-.22v-.01c-.1-.07-.18-.14-.22-.27-.06-.19.01-.32.16-.4.2-.13.42-.25.63-.37l.38-.22.28-.16.22-.13.2-.12a8.96 8.96 0 00.3-.17c.08-.05.17-.15.13-.26-.04-.1-.17-.06-.24-.04h-.02c-.18.05-.67.25-.97.37l-.18.08-1.15.47-1.65.67-.88.36-.44.18-.07.03c-.12.05-.24.1-.38.07-.17-.05-.23-.23-.27-.4l-.05-.36a16.46 16.46 0 00-.03-.17l-.04-.28a9.36 9.36 0 00-.13-.77c-.04-.17-.1-.35-.28-.28-.14.06-.16.29-.17.42v.4zm36.64 5.45a.1.1 0 01.04.04c.46.5.91 1 1.36 1.52a.44.44 0 00.39.15.43.43 0 00.17-.05.44.44 0 00.15-.11.37.37 0 00.07-.12.46.46 0 00.03-.14V31h-.28v1.56a.15.15 0 01-.06.11.18.18 0 01-.12.05.21.21 0 01-.08-.02.3.3 0 01-.06-.04l-.2-.23-1.16-1.3a.38.38 0 00-.3-.13.43.43 0 00-.27.09.35.35 0 00-.14.25V33h.29v-1.64a.19.19 0 010-.03h.01l.02-.02.01-.01a.16.16 0 01.12-.01h.01zm-7.84.89a.48.48 0 00.04.2.5.5 0 00.1.17.56.56 0 00.18.12.54.54 0 00.2.04H35V33h-1.68a.8.8 0 01-.74-.5.82.82 0 01-.07-.32V31h.29v1.18zM16.7 33a.8.8 0 01-.57-.24.82.82 0 01-.23-.58v-.36a.83.83 0 01.23-.58.8.8 0 01.57-.24h1.47a.8.8 0 01.57.24.82.82 0 01.24.58v.36a.82.82 0 01-.24.58.8.8 0 01-.57.24H16.7zm1.47-.29a.54.54 0 00.46-.27.78.78 0 00.04-.1.87.87 0 00.03-.16v-.36a.57.57 0 00-.07-.25.52.52 0 00-.09-.13.5.5 0 00-.21-.13.63.63 0 00-.16-.02h-1.46a.6.6 0 00-.16.02.52.52 0 00-.3.25.47.47 0 00-.05.1.91.91 0 00-.02.16v.36l.03.16a.52.52 0 00.12.22.6.6 0 00.12.09.52.52 0 00.26.06h1.46zm4.23-1.4a.4.4 0 00-.13-.02h-1.78v.64h1.8a.37.37 0 00.12-.03.45.45 0 00.1-.06.38.38 0 00.08-.1.3.3 0 00.03-.13.26.26 0 00-.03-.12.23.23 0 00-.08-.1.31.31 0 00-.1-.07zm.16.84a.6.6 0 01-.2.06l.34.45.24.34h-.35l-.57-.78h-1.53V33h-.28v-2h2.06a.66.66 0 01.35.1.6.6 0 01.28.5.62.62 0 01-.18.44.62.62 0 01-.16.11zm4.32-.86V31H24.8a.54.54 0 00-.54.55.54.54 0 00.33.5.55.55 0 00.21.05h1.46a.33.33 0 01.3.19.28.28 0 01-.06.33.33.33 0 01-.24.1h-2V33h2a.72.72 0 00.23-.04.58.58 0 00.39-.54v-.02a.61.61 0 00-.05-.23.6.6 0 00-.14-.19.63.63 0 00-.43-.16H24.8a.28.28 0 01-.2-.1.22.22 0 01-.03-.05.24.24 0 01-.03-.11.3.3 0 01.03-.13.21.21 0 01.07-.08.2.2 0 01.05-.03.3.3 0 01.12-.03h2.07zM11.85 33h.29v-.78h1.77a.67.67 0 00.44-.18.59.59 0 000-.86.63.63 0 00-.43-.18h-2.07v2zm2.06-1.07h-1.77v-.64h1.77c.05 0 .1 0 .13.02l.11.07a.33.33 0 01.08.1.28.28 0 010 .25.37.37 0 01-.19.17.37.37 0 01-.13.03zm22.52-.07a.56.56 0 01.15-.41.47.47 0 01.17-.12.5.5 0 01.2-.04h1.67V31h-1.67a.79.79 0 00-.57.24.82.82 0 00-.24.59v.36a.81.81 0 00.8.81h1.68v-.29h-1.67a.53.53 0 01-.37-.15.55.55 0 01-.11-.17.65.65 0 01-.04-.24h2.19v-.28h-2.2zm-7.58-.24a.58.58 0 00-.04.24l2.19.01v.29h-2.2c0 .08.02.16.05.24a.53.53 0 00.48.31H31V33h-1.67a.8.8 0 01-.57-.24.81.81 0 01-.24-.57v-.36a.83.83 0 01.5-.77.79.79 0 01.31-.06H31v.29h-1.67a.48.48 0 00-.2.04.52.52 0 00-.28.29z" fill="#fff"/><defs><linearGradient id="at3gqsg1u" x1="10.42" y1="9.71" x2="68.15" y2="76.02" gradientUnits="userSpaceOnUse"><stop stop-color="#1A1E21"/><stop offset="1" stop-color="#06060A"/></linearGradient></defs></svg>