<svg xmlns="http://www.w3.org/2000/svg" width="56" height="56"><path fill="#F0F3FA" d="M0 0h56v56H0z"/><ellipse cx="28.15" cy="19.26" rx="11.19" ry="11.26" fill="#013B63"/><path d="M24.38 10.04c.34-.91 1.97-1.2 2.74-1.22.3-.02.26.23.2.35l-.44.87c-.05.3-.51.37-.74.37a6.37 6.37 0 00-1.35 0c-.53.07-.5-.22-.41-.37zm-.8 0c-.42.16-.77.45-.89.58h.54a.97.97 0 00.34-.59zm-1.88 1.25a7.69 7.69 0 00-2.43 2.75c-.13.24.05.33.16.35l1.91-.35c.48-.12.7-.3.77-.46.32-.6.61-1.89.72-2.45-.35 0-.9.1-1.13.16zm-.36 3.31l-2.11.35c-.2.05-.63.28-.76.83-.16.65.12.58.36.52h.03c.2-.06 1.73-.37 2.48-.52a1.23 1.23 0 00.36-.7c.05-.25.12-.56-.36-.48zm3.94-.45l-2.44.22c-.31.03-.52.25-.58.73-.05.38.12.5.2.51l2.12-.24c.5-.07.68-.38.7-.52v-.7zm-1.11-3.06l1.87-.18c.12.02.33.14.18.47l-.55 1.78c-.06.07-.26.24-.64.29-.38.04-1.41.2-1.89.26-.15.02-.43-.07-.3-.55.13-.48.57-1.39.78-1.78.03-.08.19-.25.55-.29zm4.6-2.27h.73c.15 0 .48.12.58.54.03.15.09.27.14.37.11.26.17.39-.29.43-.5.05-1.66.02-2.17 0-.08-.02-.18-.13 0-.43l.13-.26c.15-.32.3-.65.88-.65zm4.14.87c-.54-.22-1.6-.46-2.07-.56-.15.51.15.85.33.95.37.08 1.25.25 1.74.27.61.02.68-.4 0-.66zm1.58.93c-.14.02-.44.01-.47-.25.08-.07.29-.12.47.25zm-4.33.06l-2.69.16a.5.5 0 00-.43.33c-.08.31-.3 1.07-.55 1.6-.25.52.1.6.3.57a32.1 32.1 0 013.78-.1c.75.08.69-.18.55-.78-.05-.21-.1-.46-.14-.75-.11-.9-.6-1.07-.82-1.03zm1.44.14l1.5.17c.18.03.56.2.63.64.07.43.27 1.32.37 1.71 0 .1-.14.28-.6.23l-.15-.02c-.58-.05-1.37-.13-1.43-.64a15.7 15.7 0 00-.47-1.92c-.06-.07-.12-.2.15-.17zm6.09 3.35c-1.13-2.41-2.65-2.87-3.26-2.79-.18.12-.04.6.1 1.1.09.28.17.57.18.78.04.45.37.61.54.64l1.7.45c.85.47.85.07.74-.18zm-11.74.37a.57.57 0 01.58-.62c.5-.03 3.21-.01 4.51 0 .17 0 .5.09.47.52-.04.53-.18.62-.7.6-.5-.03-4.1.1-4.67.14-.12-.06-.19-.27-.19-.64zm6.45-.5c-.41 0-.34.39-.25.58 0 .4.27.54.41.56l1.38.16c.46.15.44-.03.42-.37l-.01-.16a.58.58 0 00-.41-.54 9.5 9.5 0 00-1.54-.23zm2.58 1.06c-.07-.22-.07-.62.56-.46l2.64.79c.2.42.43 1.19-.24.9l-2.63-.74c-.11-.05-.33-.22-.33-.5zm2.57 1.77c-6.66-2.17-15.19-.9-18.62 0-.77.18-.95.73-.95.99-.3 1.72.22 4.19.52 5.2 6.86-2.41 15.83-1 19.45 0 .86-1.72.8-4.43.74-5.2-.05-.62-.78-.92-1.14-1zm-18.71 7c-.03-.14.07-.45.73-.62h.04c.83-.23 2.3-.6 2.47 0 .15.5.43 1.11.56 1.36.08.14.04.45-.74.55l-2.02.56-1.04-1.85zm4.32-1.27c-.58.2-.45.48-.3.83l.11.25c.4 1.14.78 1.24.92 1.14l1.44-.21c.52-.08.58-.38.55-.53l-.33-1.23c-.03-.62-1.5-.55-2.4-.25zm3.12.43c-.1-.22-.13-.68.62-.8l3.69.13c.18 0 .5.13.33.67l-.08.28c-.14.55-.26 1-.96 1.01-.66.02-2.26.01-2.98 0-.09.03-.3-.05-.45-.6l-.17-.7zm7.31-.3l-1.8-.24c-.21.12-.47 1.27-.58 1.83.28.04 1.02.15 1.7.27.77.15.89-.75.95-1.24l.02-.12c.05-.36-.17-.48-.29-.5zm1.18.27c.72.1 2.2.33 2.6.56.28.17.07.43-.2.76l-.29.38-.01.02c-.23.34-.57.86-1.3.54l-.63-.24c-.5-.18-.73-.25-.62-.65l.13-.52c.08-.39.15-.74.32-.85zm-13.91 3.1c-.82.28-.47 1.28-.19 1.75l3.68-.42-.9-1.54c-.11-.16-.43-.24-.58-.25-.33.04-1.2.18-2.01.46zm4.88 1.9l-1.64-2.12c-.1-.12-.18-.4.32-.54.63-.16 1.76-.34 1.9.33.1.54.38 1.47.5 1.86-.16.31-.6.84-1.08.47zm1.6-1.63c-.33-.42-.78-1.28 0-1.35.97-.1.6.63 0 1.35zm5.85 1.26c.63-.34 1.98-1.12 2.29-1.59-.12-.2-.75-.63-2.29-.84-.19 0-.48.1-.16.54.1.51.29 1.6.16 1.89z" fill="#2ABCF5"/><path d="M20.51 21.07c.06.44-.1.74-.2.83 1.34.26 2.2-.27 2.46-.56.06-.75-.1-1.03-.18-1.07-.03.04-.15.27-.34.8-.19.53-.77.4-1.04.27-.13-.86-.4-2.63-.42-2.84 0-.2.19-.51.28-.65a1.73 1.73 0 00-1.47.36c.4.09.5.35.5.48.12.6.36 1.94.41 2.38zm4.36-3.67a2.9 2.9 0 00-1.62.19c.45 0 .62.4.66.59l.25 2.45c.05.33-.22.66-.37.78.71.26 1.3-.02 1.5-.18a1.04 1.04 0 01-.54-.72l-.19-2.44c-.06-.3.18-.57.31-.67zm-.92-1.3c-.17.15-.38.54.07.82.23-.07.54-.34-.07-.83z" fill="#013B63"/><path fill-rule="evenodd" d="M26.62 17.3c.08-.06.53-.19 1.65-.1 1.4.1 1.64 1.67 1.58 2.03l-.02.13c-.06.52-.21 1.86-2 2.03-.36 0-1.11-.06-1.21-.2.13-.18.39-.6.38-.82v-2.75l-.38-.31zm1.06.44c.07-.05.25-.14.45-.16.24-.03.92.3.92 1.52 0 1.35-.65 1.86-.92 1.87-.13 0-.4-.05-.45-.33v-2.9z" fill="#013B63"/><path d="M31.86 17.4c-.54-.2-.86-.09-.95 0l.34.32-.2 2.88c.02.28-.38.53-.58.62.09.19.33.28.44.3l1.9.07c.5-.32.46-.97.38-1.25-.25.45-.55.83-.9.88-.34.06-.75-.15-.61-.97.1-.65.45-.66.61-.6.1.21.35.59.53.48.17-.11.14-.54.1-.73.25-.4.03-.56-.1-.6-.18.34-.43.42-.53.42-.45-.06-.34-.52-.34-.96 0-.45.76-.68.87-.3.1.38.29.5.37.51.29-.12.29-.82.1-.88a14.1 14.1 0 00-1.43-.2z" fill="#013B63"/><path fill-rule="evenodd" d="M35.22 18.46c-.15-.16-.42-.52-.23-.68l1.67.33c.23.1.55.57.44 1.18-.13.72-.55.9-.7.92.13.53.46 1.64.81 1.9.35.25.08.36-.1.38-.3.05-.95-.3-1.3-2.11-.1-.13-.3-.3-.38 0-.1.37-.15 1.08 0 1.26.15.18.33.55 0 .47l-.3-.06c-.4-.07-.96-.16-.88-.41 0-.04.07-.13.24-.21.18-.08.22-.32.26-.5l.02-.11.45-2.36zm.81-.09c.17.06.49.27.4.6-.11.41-.25.83-.63.8-.39-.03 0-1.4.23-1.4z" fill="#013B63"/><path d="M18.03 45.4c-.01 1.12 1.6 1.77 2.4 1.96.43-.1.43-.46.38-.62a8.08 8.08 0 01-.21-.8c.01-.65.75-.78 1.11-.77.82.73 2.58 2.16 3.05 2.02.47-.13 2.6.06 3.61.17.14.5 1.49.64 1.84.45a2.07 2.07 0 011.51 0c.38.15.76.19.9.19.6-.13 1.12-.06 1.3 0 1.07-.11.97-.89.78-1.26h-.48c-.32-.28-.88-.34-1.13-.33a1.5 1.5 0 00-1.01-.48l-.83-.64c.13-.63.6-1.23.83-1.45.5-.55 1.5-1.9 1.5-2.87 0-.98.35-1.65.53-1.86.79-.9.96-1.69.94-1.97-.07-.74-.6-2.17-2.15-1.95-1.55.23-3.03.58-3.59.73-.5.18-.33-.07-.18-.23 2-1.56 2.66-2.51 2.95-3.09a.84.84 0 01.82-.5c.42.16 1.43.32 2.15-.3a3.85 3.85 0 011.56-.9c.68.09.99-.19 1.06-.34.32-.64.72-2.18.87-2.87.4-.78.17-1.53 0-1.8.17-.35.4-1.51.5-2.05l.7-1.36v-.52c.57-1.23.06-1.32-.28-1.21l-.42-.19c-.04.38-.49 1.68-.7 2.28a9.05 9.05 0 01-5.1 4.7c.13-1.13.2-1.23-.49-2.22-.7-1-2.38-1.13-3.22-1.06-.83.07-1.3.35-1.62.79-.25.35-.81 1.7-1.06 2.33l-.62.69-1.76-.52c-.18-.17-.6-.5-.84-.5s-.67.43-.85.64c-.23-.18-.82-.52-1.3-.45-.48.08-.77.44-.85.61-.1-.28-.32-.98-.4-1.54-.07-.56-.47-.9-.66-1a1 1 0 01-.8-.26c.21-.19.39-1.16 0-1.43-.3-.21-.26-.6-.2-.76.2-.4.63-1.3.8-1.77a.95.95 0 00-.21-1 .78.78 0 00-.6-.64.84.84 0 00-.63-.34c-.1-.12-.27-.05-.35 0-.76.73-1.13 1.7-1.43 2.13-.3.42-.1 1.15.15 1.62.25.47.32.75.15 1.6-.13.7.06 1.1.17 1.2.13.07.36.32.24.83-.15.65.45 1.46.72 1.58.27.11.42.3.35.9-.05.5.25.73.4.79.73.46 2.27 1.4 2.67 1.48.4.08.24.3.1.4-.67.73-1.1 2.14-.6 2.63.5.49.18 1.25-.1 1.65-.23.33-.1.8 0 .98-.5.58-.4 1.35-.29 1.66-.85 1.97-.4 2.53 0 2.89.33.28.2.61.09.74l-.49.6c.05.41-.29.74-.47.85-.95.76-1.2 1.49-1.2 1.76z" fill="#013B63"/><path d="M17.83 19.59c-.46.42-1.35 1.45-1.32 2.19.03.74.47 1.47.69 1.75a3.4 3.4 0 00-.28.99c-.02.36-.06.94.57 1.47-.2.42-.43 1.33.34 1.58s.8 1.22.7 1.67c.86.72 2.73 2.03 3.4 1.47.1-.07.05-.34-.98-.84-.16-.16-.37-.55 0-.89.41.17 1.36.66 1.82 1.29.07.13.24.32.35 0 .14-.2.45-.47.57 0 .11.47.45.97.6 1.16-.04.42-.04 1.33.38 1.53.08 0 .28-.11.4-.5.03.17.15.5.33.5.19 0 .47-.08.59-.12l-.27.65c-.04.1.77.34 1.38-.3.48-.5.93-.36 1.09-.23 0 .1.05.27.23.15.23-.15.47.58.35.77-.03.14.12.4.94.29.33-.01 1.06-.16 1.4-.68l.29-.5c.45-.81 1.12-2.04 2.15-2.28.26-.1.98-.33 1.74-.44.15.02.36.15 0 .44-.72.13-2.2.5-2.34.97.27.15 1.06.32 2.03-.25l.66-.41c.68-.43.96-.6 1.64-.54.38-.89 1.16-2.84 1.19-3.55.03-.12.04-.38-.1-.48-.19-.12 0-.99.28-2 .23-.8-.02-.7-.18-.56-.37.6-1.24 1.86-1.77 2.17l-.67 1.53c-.06.13-.1.43.16.6.33.2.62.54.51.8-.08.2-.55-.33-.78-.62-.36-.22-1.37-.2-2.5 1.63l-.18-.13a4.9 4.9 0 012.2-2l.24-.63-.25-.15-3.28 2.15c-.14.1-.43.38-.43.76v.17c.01.41.02.8-.47.95a.95.95 0 00-.29.95c.12.48-.41.58-.7.58-.13 0-.46-.04-.67-.2-.22-.14-.64-.05-.82 0-.1-.12-.4-.38-.87-.38-.1-.05-.28-.2-.26-.4.01-.2-.35-.45-.54-.55-.04-.2-.08-.64.09-.85-.1-.08-.25-.36 0-.82.24-.47-.2-.34-.46-.21l-1.47-1.22a.85.85 0 00-.97.17c-.1-.04-.3-.2-.32-.6-.23-.1-.7-.18-.76.29-.07.46.29.93.48 1.1l-.16.26c-.29-.62-1.15-1.8-2.25-1.65-.11.1-.33.42-.33.78 0 .46-.53.13-.6-.18-.04-.25-.3-1.37-.43-1.9 0-.2-.17-.63-.76-.64-.6-.01-.66-.75-.62-1.12.06-.23.09-.77-.36-1-.4-.22.1-1 .47-1.6.13-.2.25-.4.3-.52.07-.16.17-.49 0-.54-.16-.06-.34.34-.41.54-.12.11-.36.23-.36-.19.26-.31.72-1 .49-1.21-.23-.22-.72.72-.94 1.21-.01.1-.08.27-.24.27-.16 0-.06-.31 0-.47l.6-1.43c0-.08-.08-.19-.26 0zm9.06 8.45c-.16.07-.49.26-.49.43 0 .22.35.43.49.37.1-.04.26-.18.32-.24-.1-.15-.32-.46-.32-.56zm.53-.52c.13.09.32.35 0 .68a.64.64 0 010-.68zm.25-.79l.42.56c0 .05-.01.2-.16.26-.17-.14-.46-.5-.26-.82zm.13 1.58c.08-.08.27-.2.36.04-.07.1-.24.24-.36-.04zm.54-.66c.11.04.39.18.58.41-.02.08-.1.23-.24.23-.18.01-.51-.32-.54-.4-.02-.1.08-.24.2-.24zM27.8 26c-.04.49.39.92.6 1.08.27-.1.3-.33.27-.44-.32-.4-.1-1.05.06-1.32.05-.06.13-.22.07-.3-.05-.07-.18-.03-.24 0-.24.13-.72.5-.76.98zm.8 1.38c.05-.12.22-.38.43-.44.21-.07.33.14.36.25-.02.16-.12.48-.36.54-.23.05-.39-.21-.44-.35zm.17-1.14c-.02-.56.33-1.08.5-1.26.18 0 .6 1.7.1 1.71a.58.58 0 01-.6-.45zm1-1.63c.07.01.19.08.17.25-.01.2-.13 1.61.38 1.87.41.2.82.36.97.42a1.9 1.9 0 011.19 1.45c-.22.12-.71.23-.95-.26-.24-.5-.55-.3-.67-.15-.13.07-.43.17-.64-.06-.22-.23-.5-.06-.6.06-.1.08-.29.23-.37.15-.1-.1 0-.26.14-.44.15-.17.5-.84.48-1.41 0-.23-.04-.37-.07-.5-.04-.22-.09-.4-.03-.83-.11-.11-.27-.38 0-.55zm.58 1.05c-.11.22-.2.7.3.9.18-.1.36-.4-.3-.9zm.18-.75a.35.35 0 01.34-.17c.26.02.59.12.68.52.07.33.5.58.7.67 0 .08-.1.2-.44.11h-.03c-.4-.11-.46-.13-.46-.33-.01-.2-.03-.45-.28-.45-.24 0-.5 0-.5-.35zm.93 1.54c-.1.07-.14.2-.14.27.1.14.34.4.54.35.2-.05.2-.26.19-.35-.15-.12-.48-.33-.59-.27zm1.03.84c-.04.18-.06.56.21.67.12-.1.25-.35-.21-.67zm-4.75 1.68c.26-.23.75-.28.97-.28.33-.04.43.28.48.85.03.45-.36.9-.56 1.08-.08-.03-.24-.05-.26.09-.02.13.08.25.14.3-.03.24-.22.67-.5.68-.28 0-.27-.42-.12-.54.12-.1.09-.23.06-.28l-.31.13c-.24.02-.27-.3-.25-.46.34-.22.14-.58 0-.73.15-.2.3-.64.35-.84zm1.51-.24c.25.02.84.11 1.17.32.16-.08.52-.21.63-.17.14.06-.05 1.1-.34 1.16-.14-.13-.43-.39-.54-.37-.01.07.01.27.25.45.04.13.05.4-.3.44-.13 0-.26.03-.37.05-.28.06-.52.1-.7-.05 0-.08 0-.37.35-.63.15-.02.44-.07.41-.16-.03-.08-.2-.1-.29-.1a1.18 1.18 0 01-.27-.94zm1.47 1.86c.03.17.3.3.43.34.29 0 .33-.21.36-.36v-.02l.01-.02a.74.74 0 00-.1-.5c-.1-.14-.05-.33 0-.42.04-.08 0-.37-.11-.2-.1.15-.14.45-.16.59-.3.28-.4.5-.43.6zm-2.08 1.31c0-.04.04-.17.12-.27.07-.11.44-.53.62-.73h.7c.07-.05.23-.16.35-.15.14 0 .36.3.36.61a.7.7 0 01-.14.46c.01.16 0 .47-.14.48-.14.01-.17-.4-.16-.6-.01-.06-.05-.17-.13-.16-.07 0-.12.1-.13.16 0 .2-.05.6-.24.6-.25 0-.15-.49-.07-.67a.2.2 0 00-.1-.27c-.07 0-.2.04-.25.27-.05.27-.28.64-.79.27zm10.43-9.04c.02-.49.15-1.47.55-1.56.02.38-.05 1.22-.55 1.56zM28 33.5c.1.02.32.17.38.54.03.12.17.4.5.62.41.26-.09.79-.34.95-.2.13-.3-.01-.39-.13l-.05-.07c-.08-.1-.37-.64-.5-.9l-.39.3.5.94c.17.29.29.93-.5 1.21-.12.02-.32-.02-.14-.35.22-.42.37-.72.35-.86-.03-.14-.12-.34-.35-.34-.23 0-.43.46-.44.6-.01.11-.46.45-.69.6-.02.15 0 .4.28.22.33-.22.3.2.15.23-.12.03-1.2.01-1.73 0-.23 0-.67-.1-.61-.45.06-.35.85-.54 1.24-.6a3.57 3.57 0 001.44-.99l.35-.43c.2-.24.27-.32.36-.64.1-.36.43-.45.58-.45zm-4.33-1.3c.5 1.76 2 2.16 2.69 2.14-.3.39-1.08 1.19-1.72 1.3-.8.12-1.09.55-1.17 1.05-.06.4.1.85.18 1.03-.02.29-.44.3-.66.28-.16-.1-.52-.3-.66-.28-.16.02-.36.27 0 .55.3.23.24.5.17.6.21.6 1.44.76 1.98.75.44-.01.51.2.5.3 0 .36.36.55.55.6 1.66.67 2.89 2.66 3.3 3.57-.04.3.07.73.16 1.1l.11.48c.05.32-.42 1-.66 1.29-.4.02-1.28.05-1.47 0l-1.44-.34a.98.98 0 01-.56.18c-.41.12-1.58-.84-2.65-1.71-.5-.4-.97-.8-1.34-1.06l-.2.23c.18.11.49.4.31.7-.14.26-.33.2-.56.1-.12-.04-.24-.08-.37-.1-.32-.02-.35.2-.32.3.1.12.36.39.52.51.15.13.06.37 0 .47.04.55-.12.6-.2.56-.48-.17-1.47-.65-1.54-1.25-.07-.6.78-1.5 1.22-1.89.19-.05.22-.2.25-.38.02-.09.03-.18.07-.27.1-.2.45-.52.62-.66.46.17.49.51.44.66-.16.66.07.76.2.73.29-.23.6-.14.73-.08.75.53 2.35 1.64 2.82 1.9.4.2.56.39.72.57.08.1.16.2.28.3.27.22.47.15.53.09.06-.06.23-.14.47 0 .3.17.46-.1.24-.47-.22-.37-2.33-1.37-3.15-1.62a4.13 4.13 0 01-1.62-1.17 11.28 11.28 0 00-1.66-1.87c-.5-.37-.7-.92-.73-1.15.1-.88.46-.63.62-.39 2 2.74 3.7 3.93 4.3 4.18l.43.06c.5.26 1.07.46 1.16 0 .08-.36-.36-.52-.59-.56-2.15-.4-3.76-2.62-4.3-3.68.06-.88-.21-.96-.36-.88-.04.02-.2.08-.4.09-.26 0-.33-.33-.35-.93-.01-.6.13-.9.35-1.07.22-.16.26-.3 0-.52-.2-.17-.08-.47 0-.6.18-.31.49-1.03.26-1.35-.23-.32-.1-.73 0-.9l.69-1.17c.01-.15.13-.44.44-.43.3.01.52-.15.6-.23 0-.09.11-.26.4-.25.27.01.36.4.37.59zm2.72 8.2l-.8-.45c-.1-.28-.45-.88-.9-.97-.2-.17-.56-.59-.53-.9.03-.37.78-.33 1.15-.21.26-.01.75.04.72.3l-.03.2c-.05.26-.1.52.2.52.32 0 .31-.6.27-.89 0-.07.08-.22.38-.25.38-.05.32.3.28.41-.04.14-.07.49.1.73-.05.24-.28.89-.84 1.5zm2.93.34c-.6.44-1.25.64-1.5.68.2.38 1.03 1.68 1.41 2.29.35-.18.66-.63.77-.83-.24-.38-.22-1.13-.2-1.65v-.29c0-.38-.32-.29-.48-.2zm-2.41.02c-.01-.12.05-.45.36-.8.38-.45.53-.68.38-1.36-.11-.54.22-1.28.4-1.57.24-.26 1.2-.82 3.04-1.09h.93c.2-.09.75-.27 1.36-.27.6 0 .81.38.93.6a2 2 0 01.42 1c0 .43-.71 1.62-1.13 2.06-.34.35-.29 1.1-.22 1.43a6.16 6.16 0 01-1.2 2.27c-.43.68-1.29 2.13-1.27 2.5.01.39.74.74 1.1.87.03.1.14.26.39.14.3-.14.57.31.57.42 0 .1.2.2.41.1.22-.1.5-.1.69.2.2.3.04.39-.33.32l-.47-.01c-.69 0-1.85 0-2.24-.5-.46.24-1.54.63-1.92.25-.02-.08.04-.36.46-.86.09-.14.22-.63 0-1.38-.1-.18-.21-.63 0-.95.25-.39.94-.82 1.61-1.03.1-.04.22-.15 0-.24-.26-.05-.8-.24-.84-.67-.03-.42-.01-1.33 0-1.73 0-.25.1-.83.57-1.13.46-.3 1.2-1.14 1.49-1.46l-.22-.26c-.34.3-.7.62-1.06.96-1.44 1.35-3 2.8-4.21 2.19z" fill="#F0F3FA"/><path d="M33.12 36.64c-.04-.28-.17-.32-.23-.31-.22.2 0 .85.16.96.12.09.1.25.07.33-.08.14-.23.44-.23.57 0 .15.17.2.23.08.05-.13.13-.47.37-.65.23-.19.13-.43 0-.44-.14 0-.33-.2-.37-.54z" fill="#013B63"/><ellipse cx="32.3" cy="39.13" rx=".16" ry=".26" fill="#013B63"/></svg>