<svg xmlns="http://www.w3.org/2000/svg" width="56" height="56"><path fill="#FF6A00" d="M0 0h56v56H0z"/><path d="M36.37 14.37A15.85 15.85 0 0028.03 12 16.03 16.03 0 0012 27.97c0 3.36 1.03 6.47 2.8 9.04a46.93 46.93 0 019.15-14.72c1.77-1.77 4.03-1.32 5.26 1.29.38.82.32 3.82.27 6.66v.41a40.61 40.61 0 016.64-10.72c.91-1.55 2.63-1.02 3 .38a18 18 0 01.65 4.55c.05.7.26.7.53.43l.58-.73c.3-.38.6-.75.87-1.14 1.07-.75 1.5.05 1.23 1.23-.32 1.88-1.23 3.54-2.36 5.2-1.18 1.23-2.03 1.02-2.68-.1-.64-1.67-.8-3.5-.8-5.31-3.08 4.2-4.73 7.47-6.79 11.54l-.29.57a3.51 3.51 0 01-3.21-1.23l-.03-1.69c-.03-2.63-.07-5.47-.3-6.84-.08-.8-.33-.53-.62-.23-.08.08-.15.17-.23.23-5.1 5.42-7.16 10.85-7.32 13.96A15.95 15.95 0 0028.03 44C36.82 44 44 36.82 44 27.97c0-5.4-2.72-10.2-6.86-13.1.1 1.02-.1 1.85-1.02 2.33-1.6.48-1.98-.6-1.45-1.56a5.76 5.76 0 011.7-1.27z" fill="#fff"/></svg>