<svg width="56" height="56" xmlns="http://www.w3.org/2000/svg"><path fill="#ED6827" d="M0 0h56v56H0z"/><path d="M7 33v-5.713L8.5 33l2-.003 1.5-5.71V33l2-.003V24h-3.764L9.5 28.183 8.736 24H5l.002 9H7z" fill="#fff"/><path d="M47.62 23.742c1.731 0 3.774.793 3.635 2.875h-2.323c.012-.335-.215-.78-.424-.96-.197-.18-.65-.33-1.044-.33-.851 0-1.044.512-1.028.876.035.801 1.299.921 1.918 1.068 1.385.328 3.197.971 3.197 3.3 0 1.818-1.99 2.648-3.93 2.648-1.951 0-3.78-.613-3.78-2.93l2.398-.002c-.011.813.573 1.525 1.41 1.525.533 0 1.316-.133 1.316-1.01 0-.66-.763-1.316-1.763-1.557-.603-.146-1.3-.314-1.986-.625-.848-.383-1.318-1.268-1.318-2.201.093-2.047 1.97-2.677 3.723-2.677zM17 25.5h-2V24h2v1.5zm5 .05a1.5 1.5 0 011.475 1.227h2.47c-.266-1.971-1.754-2.753-4.012-2.759-2.23-.006-3.933 1.792-3.933 4.49 0 2.7 1.688 4.591 3.904 4.591 1.317 0 2.096-.81 2.096-.81V33s1.535.018 2 0v-5h-2.5v2.05a1.5 1.5 0 01-1.5 1.5c-1.27 0-1.477-1.713-1.503-2.55-.01-.333-.01-.677.005-1.009.04-.867.28-2.441 1.498-2.441zM15 33h2v-7h-2v7z" fill="#fff"/><path fill-rule="evenodd" d="M29 32.996V29.5h1.887c1.088 0 1.099.639 1.112 1.433v2.063H34V29.5c0-.292-.081-.765-.766-.99.472-.455.766-1.302.766-2.01 0-1.38-1-2.5-2.5-2.5H27v8.996h2zM31 26h-2v1.5h2c.552 0 1-.17 1-.723 0-.552-.448-.777-1-.777z" fill="#fff"/><path d="M22 28h2v2h-2v-2z" fill="#fff"/><path d="M35 28.498c0-2.48 1.55-4.75 4.25-4.75s4.25 2.27 4.25 4.75-1.55 4.75-4.25 4.75-4.25-2.27-4.25-4.75zm4.25-2.998c-1.25 0-1.75 1.73-1.75 3s.5 3 1.75 3 1.75-1.73 1.75-3-.5-3-1.75-3z" fill="#fff"/></svg>