<svg xmlns="http://www.w3.org/2000/svg" width="56" height="56" viewBox="0 0 56 56"><path fill="#F0F3FA" d="M0 0h56v56H0z"/><path d="M43 12v32l-11-1.64v-25.5L43 12Z" fill="url(#anfj2xeso)"/><path d="M13 12v32l11-1.64v-25.5L13 12Z" fill="url(#bnfj2xeso)"/><path fill-rule="evenodd" d="M28 37a9 9 0 1 0 0-18 9 9 0 0 0 0 18Zm-4-14v-1h7.82l-1.96 1H24Zm0 1.82v-1.25h5.26l-1.98 1.25H24Zm0 .42v1.25h.6l2.14-1.25H24Zm8-2.99L22.5 28h2.33L32 23.66v-1.4ZM32 24l-6 4h2.35L32 25.57V24Zm-.02 4h-2.61l2.61-1.76V28ZM22 30v-1.5h12V30H22Zm12 2v-1.5H22V32h12Zm-12 2v-1.5h12V34H22Z" fill="#013983"/><defs><linearGradient id="anfj2xeso" x1="43.62" y1="23.69" x2="30.9" y2="23.69" gradientUnits="userSpaceOnUse"><stop stop-color="#063A86"/><stop offset="1" stop-color="#063A86" stop-opacity="0"/></linearGradient><linearGradient id="bnfj2xeso" x1="12.38" y1="23.69" x2="25.1" y2="23.69" gradientUnits="userSpaceOnUse"><stop stop-color="#063A86"/><stop offset="1" stop-color="#063A86" stop-opacity="0"/></linearGradient></defs></svg>