<svg width="56" height="56" xmlns="http://www.w3.org/2000/svg"><path fill="#002D73" d="M0 0h56v56H0z"/><path d="M8 17v16h4v-6.915L17 33h4V17h-4v7.548L12 17H8zm16 0v16h11v-4h-7v-2h6v-4h-6v-2h7v-4H24zm12 0v4h4v12h4V21h4v-4H36zM11.384 40h-.796v-1.705H8.796V40H8v-4h.796v1.65h1.792V36h.796v4zM16 37.984c0 .563-.192 1.04-.576 1.43-.384.39-.858.586-1.421.586a1.92 1.92 0 01-1.419-.59A1.954 1.954 0 0112 37.983c0-.546.197-1.013.592-1.401A1.946 1.946 0 0114.008 36a1.92 1.92 0 011.41.58c.388.387.582.855.582 1.404zm-.684-.01c0-.357-.13-.67-.39-.94a1.241 1.241 0 00-.923-.403c-.36 0-.669.135-.929.406-.26.27-.39.587-.39.947 0 .374.127.698.382.973s.567.412.937.412c.384 0 .701-.14.953-.417.24-.268.36-.594.36-.979zM19.311 40h-2.273v-4h.796v3.367h1.477V40zm4.522-1.994c0 .64-.231 1.136-.693 1.489-.441.337-1.038.505-1.792.505h-1.374v-4h1.56c.694 0 1.25.184 1.67.55.42.367.629.852.629 1.456zm-.796.01c0-.436-.144-.776-.432-1.019-.289-.243-.684-.364-1.188-.364h-.647v2.734h.73c.483 0 .86-.12 1.13-.361.271-.241.407-.57.407-.99zM25.452 36h-.796v4h.796v-4zm4.618 4h-.737l-2.186-2.96.039 2.96h-.777v-4h.777l2.145 2.895L29.299 36h.77v4zm4.956-2.08c-.021.61-.204 1.103-.549 1.481-.366.4-.85.599-1.453.599-.575 0-1.051-.193-1.43-.58-.378-.387-.568-.867-.568-1.442 0-.552.2-1.02.598-1.403A1.993 1.993 0 0133.056 36c.405 0 .763.096 1.074.288.31.191.54.468.686.83l-.797.005c-.204-.328-.536-.492-.995-.492a1.24 1.24 0 00-.93.401 1.32 1.32 0 00-.384.946c0 .393.12.723.364.99.242.267.558.4.95.4.613 0 1.022-.284 1.227-.855h-1.604v-.593h2.38zM41.663 40h-.87l-.432-1.017h-1.755L38.158 40h-.848l1.817-4h.725l1.81 4zm-1.56-1.639l-.61-1.495-.625 1.495h1.235zM43 39h-1v1h1v-1zm3.517-.23c0 .371-.134.668-.402.893-.267.225-.624.337-1.069.337-.436 0-.785-.113-1.046-.34a1.123 1.123 0 01-.392-.89h.777a.613.613 0 00.649.631c.213 0 .382-.055.504-.166a.557.557 0 00.183-.433c0-.217-.172-.397-.514-.54l-.95-.374c-.343-.193-.514-.458-.514-.797 0-.332.127-.597.382-.794.255-.198.583-.297.986-.297.398 0 .713.095.943.286.231.19.347.452.347.783h-.757a.441.441 0 00-.151-.35.6.6 0 00-.408-.13.657.657 0 00-.414.12.396.396 0 00-.158.334c0 .053.01.105.032.154.056.122.236.245.54.37.227.085.454.17.68.257.304.142.52.322.649.54a.79.79 0 01.103.406zM48 39h-1v1h1v-1z" fill="#fff"/><path d="M45.345 39.87l-.173.252c.244.04.449.19.449.42 0 .326-.328.455-.655.455-.167 0-.347-.039-.462-.095l.096-.252a.849.849 0 00.353.072c.148 0 .27-.05.27-.168 0-.151-.2-.213-.501-.241l.257-.415m-19.527-4.89h-.8v.797h.8v-.797z" fill="#fff"/></svg>