<svg width="56" height="56" xmlns="http://www.w3.org/2000/svg"><path fill="#FDC42F" d="M0 0h56v56H0z"/><circle cx="28" cy="28" r="16" fill="#000"/><path fill-rule="evenodd" d="M34.973 42.405C40.316 39.814 44 34.337 44 28c0-5.515-2.79-10.378-7.036-13.255v.832h-.85v-.849h.825a15.974 15.974 0 00-1.966-1.133v.744h-.99v-.99h.456a15.884 15.884 0 00-1.777-.66v1.155H31.15v-1.512h.108c-.47-.097-.946-.174-1.43-.229v1.726H28v1.59h1.829v1.828H28v1.417h1.829v1.829H28v1.59h1.829v1.829H28v1.441h1.829v1.829H28v1.59h1.829V30.6H28v1.441h1.829v1.829H28v1.441h1.829v1.83H28v1.59h1.829v1.828H28v1.611h1.829v1.726c.716-.082 1.419-.21 2.103-.384h-.782V42h1.512v1.31c.73-.223 1.437-.495 2.118-.815h-.798v-.99h.99v.899zm-3.823-3.516h1.512v1.512H31.15V38.89zm0-3.418h1.512v1.512H31.15V35.47zm1.512-3.27H31.15v1.511h1.512V32.2zm-1.512-3.27h1.512v1.511H31.15V28.93zm1.512-3.42H31.15v1.512h1.512v-1.511zm-1.512-3.27h1.512v1.512H31.15v-1.512zm1.512-3.418H31.15v1.512h1.512v-1.512zm-1.512-3.246h1.512v1.512H31.15v-1.512zm3.823 1.884h-.99v.99h.99v-.99zm-.99 4.112h.99v.99h-.99v-.99zm.99 3.988h-.99v.99h.99v-.99zm-.99 3.89h.99v.991h-.99v-.99zm.99 4.158h-.99v.99h.99v-.99zm-.99 3.89h.99v.991h-.99v-.99zm2.132 2.902h.849v.85h-.85v-.85zm.849-4.268h-.85v.85h.85v-.85zm-.85-4.267h.85v.849h-.85v-.85zm.85-4.29h-.85v.849h.85v-.85zm-.85-4.247h.85v.849h-.85v-.85zm.85-4.247h-.85v.849h.85v-.85zm1.946-2.28a.385.385 0 11-.77 0 .385.385 0 01.77 0zm-.385 4.92a.385.385 0 100-.771.385.385 0 000 .77zm.385 4.057a.385.385 0 11-.77 0 .385.385 0 01.77 0zm-.385 4.939a.385.385 0 100-.77.385.385 0 000 .77zm.385 4.012a.385.385 0 11-.77 0 .385.385 0 01.77 0zm-.385 4.915a.385.385 0 100-.77.385.385 0 000 .77zm2.023-2.314a.304.304 0 11-.608 0 .304.304 0 01.608 0zm-.304-4.375a.304.304 0 100-.608.304.304 0 000 .608zM40.548 28a.304.304 0 11-.608 0 .304.304 0 01.608 0zm-.304-4.247a.304.304 0 100-.609.304.304 0 000 .61zm.304-4.976a.304.304 0 11-.608 0 .304.304 0 01.608 0zm1.352 2.51a.256.256 0 100-.513.256.256 0 000 .513zm1.283 2.308a.256.256 0 11-.513 0 .256.256 0 01.513 0zM41.9 25.907a.256.256 0 100-.513.256.256 0 000 .513zm1.92-.128a.256.256 0 11-.513 0 .256.256 0 01.513 0zm-.894 2.43a.256.256 0 100-.513.256.256 0 000 .512zm-.77 2.053a.256.256 0 11-.513 0 .256.256 0 01.513 0zm1.407.257a.256.256 0 100-.513.256.256 0 000 .513zm-.38 2.028a.256.256 0 11-.513 0 .256.256 0 01.513 0zM41.9 35.116a.256.256 0 100-.513.256.256 0 000 .512z" fill="#FDC42F"/></svg>