<svg width="56" height="56" xmlns="http://www.w3.org/2000/svg"><path fill="#F0F3FA" d="M0 0h56v56H0z"/><path d="M15.628 17c3.82 2.41 4.835 6.111 4.825 7.683l-1.572-.7c.024-2.361-2.185-4.994-3.253-6.039-1.157.943-3.272 3.575-3.54 7.5-.213 3.14 1.968 5.772 3.086 6.695l-.92.852c-3.06-2.337-3.707-6.005-3.648-7.547.024-4.99 3.332-7.693 5.022-8.444zm5.859 17.114c-1.94 0-3.183-.501-3.562-.752l-1.39 1.063c1.9.974 4.38 1.045 5.381.959l-.43-1.27z" fill="#E30712"/><path d="M12.569 24.887c3.739-1.95 7.419-.225 8.791.881l-.53 1.426c-3.153-2.468-6.62-1.806-7.958-1.167l-.303-1.14z" fill="#00135F"/><path d="M6 34.037c.121-4.811 2.762-7.396 4.068-8.088l.202 1.711c-2.143 1.078-3.2 4.424-3.462 5.962 8.651 2.115 11.74-3.594 12.203-6.714l1.112.467c-.884 6.48-5.988 8.036-9.02 8.165-2.425.104-4.412-.959-5.103-1.503z" fill="#00135F"/><path d="M24.178 24.002c.68-.031 2.044.341 2.066 2.08.028 2.173-1.72 2.918-2.68 2.918-.91 0-2.263-.174-2.263-2.049 0-1.829 1.48-2.95 2.877-2.95zm-.87 3.655c.358.177.856-.197 1.113-.836.256-.64.174-1.302-.184-1.48-.359-.177-.857.197-1.114.836-.256.64-.174 1.302.185 1.48z" fill="#000"/><path d="M29.025 24c1.51-.034 1.86.936 1.847 1.426h-1.57c-.258-.723-.992-.263-.913 0 .08.263.258.35 1.172.504.913.154 1.172.68 1.192 1.096.02.417-.318 1.996-2.443 1.974-1.7-.018-2.072-1.104-2.046-1.645h1.569c.02.198.199.614.636.614.436 0 .556-.307.556-.46 0-.154 0-.329-.993-.483-.993-.153-1.41-.723-1.35-1.25.059-.525.456-1.731 2.343-1.775zm2.881.388L32.184 23h1.549l-.179 1.388h.894l-.258 1.132h-.806l-.287 1.537c-.19.735.411.719.735.62L33.554 29h-1.37c-.97-.051-.973-.904-.854-1.324l.377-2.156h-.635l.258-1.132h.576zm0 7L32.184 30h1.549l-.179 1.388h.894l-.258 1.132h-.806l-.287 1.537c-.19.734.411.719.735.62L33.554 36h-1.37c-.97-.051-.973-.904-.854-1.324l.377-2.156h-.635l.258-1.132h.576zm3.129-7.186L35.341 23h1.564l-.248 1.202h-1.622zM34.196 29l.801-4.205h1.565L35.875 29h-1.68zm0 7l.801-5h1.565l-.687 5h-1.68zm5.556 0l.802-5h1.564l-.687 5h-1.679zM37.21 24.13L36.468 29h1.603l.485-2.721c.054-.287.27-.778.682-.778.42 0 .534.442.485.778L39.237 29h1.707l.54-2.926c.038-.184.142-.573.573-.573.358 0 .466.368.432.573L42.057 29h1.774c.153-1.116.454-3.426.439-3.739-.02-.391-.267-1.26-1.26-1.26-.793 0-1.424.565-1.64.847-.12-.29-.534-.865-1.221-.848-.687.018-1.24.573-1.431.848v-.717H37.21zm5.73 7L42.196 36h1.603l.485-2.721c.054-.287.27-.778.682-.778.42 0 .534.442.486.778L44.966 36h1.707l.54-2.926c.038-.184.142-.573.573-.573.358 0 .466.368.432.573L47.786 36h1.774c.153-1.116.454-3.426.44-3.739-.02-.391-.268-1.26-1.26-1.26-.794 0-1.425.565-1.641.847-.12-.29-.534-.865-1.221-.848-.687.018-1.24.573-1.431.848v-.717H42.94zm-20.719 3.813l-.7-3.943h1.706l.27 2.762L24.664 31h1.69c-.6 1.187-1.902 3.806-2.319 4.781-.416.975-1.185 1.219-1.49 1.219H21.07l.288-1.219c.395.076.736-.057.862-.229.1-.137.042-.463 0-.61z" fill="#000"/><path d="M26.38 32.574c0-.552.502-1.64 2.51-1.57 2.01.069 1.991 1.112 1.87 1.832l-.468 2.662c0 .08.047.24.234.24V36h-1.772v-.676c-.2.225-.817.676-1.674.676-1.07 0-1.343-.764-1.323-1.266.02-.501.272-1.374 2.472-1.767.292-.044.887-.183.934-.393.059-.262-.097-.458-.409-.458-.311 0-.68.196-.856.458H26.38zm2.47 1.217c-.55.1-1.503.305-1.355.894.18.721 1.356-.008 1.356-.39v-.504z" fill="#000"/><path d="M36.538 36l.696-5h1.559l-.15 1.075c.306-.618 1.045-.974 1.377-1.075l-.216 1.925c-.982-.136-1.2.157-1.293.358L38.179 36h-1.642z" fill="#000"/></svg>