<svg width="56" height="56" xmlns="http://www.w3.org/2000/svg"><path fill="url(#paint0_linear)" d="M0 0h56v56H0z"/><path d="M12.002 25.102c.003 2.315.012 4.775 0 7.089C11.988 34.881 10.31 36 7.927 36S4 34.36 4 32.19v-7.345C4 22.488 5.47 20.999 8 21c2.53.001 3.996 1.473 4.002 4.102zM27 27.317v5.386c-.005 2.094-1.657 2.949-3.456 3.297h-.877C20.764 35.753 19 34.64 19 32.632v-5.386c.002-2.022 1.787-3.15 3.739-3.246 2.212-.107 4.252.975 4.261 3.317zM41.46 24c1.472.085 2.912.395 3.35 1.96.142.505.184 1.023.184 1.543L44.995 36H42c0-.19.025-1.128 0-1.094-.598.827-1.557 1.094-2.52 1.094-.836-.154-1.557-.438-1.91-1.293-.3-.73-.318-1.56-.31-2.339.026-2.476 2.149-3.025 3.919-4.028.568-.322.868-.83.821-1.474-.027-.365-.185-.801-.604-.866-.455-.07-.941.196-.968.712-.018.36-.014.927-.014 1.288h-2.93s-.014-1.076.008-1.47c.11-1.944 2.302-2.626 3.968-2.53zM17 22v2h1v3h-1v5.144c0 .6.486.856 1 .856v3c.002-.018 0 .018 0 0h-1.99c-1.183 0-2.01-.79-2.01-2.119V27h-1v-3h1v-2h3zm16 2h3c-.039-.003.023 0 0 0l-1.828 5.175L36 36h-3.004l-1.844-6.702L33 24c.018-.056-.06 0 0 0zm-2-3c0-.085.083 0 0 0-.002 4.775 0 10.225 0 15h-3V21c-.086 0 0-.089 0 0h3zm21 3v4h-.958c-.843.054-1.038.654-1.042 1.381V36h-3V24h3v2.186c-.012.027.013-.026 0 0 .516-1.165.636-2.149 2-2.186.027 0-.027.002 0 0zm-10 5.928c-.57.414-1.468.844-1.473 1.647-.003.535-.004 1.07 0 1.604.003.272.051.624.298.783.676.434 1.175-.327 1.175-.91 0 0 .012-3.132 0-3.124zM23 26a.971.971 0 00-1 .919c-.002 2.024-.002 4.05 0 6.074 0 .332.265 1.007 1 1.007.539 0 .998-.374 1-.97.007-2.04.005-4.08 0-6.12 0-.595-.494-.91-1-.91zM7 24.345v8.287C7 33.282 7.213 34 8 34s.996-.703 1-1.368v-8.287C8.992 23.732 8.749 23 8 23s-.999.623-1 1.345z" fill="#fff"/><defs><linearGradient id="paint0_linear" x1="10.418" y1="9.712" x2="68.147" y2="76.017" gradientUnits="userSpaceOnUse"><stop stop-color="#1A1E21"/><stop offset="1" stop-color="#06060A"/></linearGradient></defs></svg>