<svg xmlns="http://www.w3.org/2000/svg" width="56" height="56"><path fill="#ED1B2E" d="M0 0h56v56H0z"/><path d="M12.52 36.26l.01.01zm.01.01c.36.28 7.81 3.46 16.82 2.35 11.93-1.47 15.37-6.46 15.52-10.41.18-4.51-6.18-9.74-16.88-9.74-10.2 0-16.83 4.88-16.83 9.62 0 3.08 3.06 6.66 9.95 7.2 2.65.2 9.42-.31 14.42-1.64a33.24 33.24 0 01-10.58 2.96C15.87 37.73 6 34.72 6 28.13 6 21.36 16.19 16 28.04 16 40.96 16 50 22.06 50 28.2c0 6-9.09 11.8-23.31 11.8-8.69 0-13.86-3.47-14.16-3.73zM15 28c0-1.34.7-2.47 2-2.47 1.29 0 2 1.13 2 2.47 0 1.27-.7 2.47-2 2.47s-2-1.2-2-2.47zm-2 0c0 2.46 1.4 4 4 4 2.61 0 4-1.54 4-4 0-2.48-1.37-4-4-4s-4 1.52-4 4zm12.33 4h-2v-3.02L20.65 24h2.25l1.43 3.2 1.42-3.2H28l-2.67 4.98V32zm6.6-3.22h-1.85L31 26l.93 2.78zM27 32h2l.57-1.71h2.86l.57 1.7h2l-3-8h-2l-3 8zm11 0h-2v-8h2v3.27L40.41 24h2.37l-2.81 3.72L43 32h-2.42L38 28.36V32z" fill="#fff"/></svg>