<svg xmlns="http://www.w3.org/2000/svg" width="56" height="56"><path fill="#E07B00" d="M0 0h56v56H0z"/><path fill-rule="evenodd" d="M42 12H14v5h9.16l-.8-2h11.12l-.74 2H42v-5zm0 32H14v-5h8.36l1.3 2h9.07l1.33-2H42v5zM14 18h10.52l-.74-2h8.34l-.8 2H42v20h-8.45l-1.22 2h-8.25l-1.37-2H14V18zm9.03 2H17v16h4v-4h2.03c1.65 0 5.04-1.97 4.97-6-.07-4.04-3.49-6-4.97-6zm-.27 4H21v4h1.76c.48 0 1.27-.77 1.24-2-.03-1.23-.83-2-1.24-2zm9.08-4H38v4h-3.35c-.25 0-1.04.04-.95.76.07.5 1.2 1.2 1.96 1.67.12.07.22.13.31.2 2.7 1.67 3.06 4.06 3.03 5.04-.03 3.18-2.2 4.21-3.28 4.33H30v-4h3.76c.66 0 .89-.1.89-.62 0-.4-1.72-1.6-2.68-2.27a21.7 21.7 0 01-.75-.55c-.93-.76-2.15-1.74-2.22-4.43-.07-2.88 1.86-3.95 2.84-4.13z"/></svg>