<svg xmlns="http://www.w3.org/2000/svg" width="56" height="56"><path fill="#F0F3FA" d="M0 0h56v56H0z"/><path d="M12 28c0-.53.04-1.07.14-1.62h7.6l-5.84-5.84c.47-.97 1.13-1.94 1.93-2.91l8.87 8.87a2.12 2.12 0 010 3l-8.87 8.87c-.8-.97-1.46-1.94-1.93-2.91l5.83-5.84h-7.6c-.09-.55-.13-1.1-.13-1.62z" fill="url(#akugsqo3k)"/><path d="M28 12c.53 0 1.07.04 1.62.14v7.6l5.84-5.84c.97.47 1.94 1.13 2.91 1.93L29.5 24.7a2.12 2.12 0 01-3 0l-8.87-8.87c.97-.8 1.94-1.46 2.91-1.93l5.84 5.83v-7.6c.55-.09 1.1-.13 1.62-.13z" fill="url(#bkugsqo3k)"/><path d="M44 28c0 .53-.04 1.07-.14 1.62h-7.6l5.85 5.84c-.48.97-1.14 1.94-1.94 2.91L31.3 29.5a2.12 2.12 0 010-3l8.87-8.87c.8.97 1.46 1.94 1.94 2.91l-5.84 5.84h7.6c.09.55.13 1.1.13 1.62z" fill="url(#ckugsqo3k)"/><path d="M28 44c-.53 0-1.07-.04-1.62-.14v-7.6l-5.84 5.84a14.91 14.91 0 01-2.91-1.93l8.87-8.87a2.12 2.12 0 013 0l8.87 8.87c-.97.8-1.94 1.46-2.91 1.93l-5.84-5.83v7.6c-.55.09-1.1.13-1.62.13z" fill="url(#dkugsqo3k)"/><defs><linearGradient id="akugsqo3k" x1="12" y1="28" x2="25.32" y2="28" gradientUnits="userSpaceOnUse"><stop offset=".35" stop-color="#003A73"/><stop offset=".73" stop-color="#0062AF"/></linearGradient><linearGradient id="bkugsqo3k" x1="17.63" y1="18.66" x2="38.37" y2="18.66" gradientUnits="userSpaceOnUse"><stop offset=".35" stop-color="#AB004C"/><stop offset=".61" stop-color="#760030"/><stop offset="1" stop-color="#1A1A18"/></linearGradient><linearGradient id="ckugsqo3k" x1="30.68" y1="28" x2="44" y2="28" gradientUnits="userSpaceOnUse"><stop offset=".27" stop-color="#0062AF"/><stop offset=".65" stop-color="#003A73"/></linearGradient><linearGradient id="dkugsqo3k" x1="28" y1="44" x2="28" y2="30.68" gradientUnits="userSpaceOnUse"><stop offset=".35" stop-color="#003A73"/><stop offset=".73" stop-color="#0062AF"/></linearGradient></defs></svg>