<svg xmlns="http://www.w3.org/2000/svg" width="56" height="56"><path fill="#F0F3FA" d="M0 0h56v56H0z"/><path d="M10.91 20.28l5.66 4.19-7.09-.16c-.94 0-2.44-.6-2.32-2.15.15-2.06 1.69-2.45 2.32-2.45.64 0 1.17.38 1.43.57z" fill="#3E7DA8"/><path d="M15.08 18.87l1.5 5.26-4.3-3.45c-.57-.45-1.2-1.53-.4-2.43 1.07-1.2 2.2-.7 2.6-.4.39.3.53.78.6 1.02z" fill="#00963F"/><path d="M18.26 20.11L16.84 24l-1-4.06c-.14-.53-.03-1.48.87-1.65 1.2-.23 1.56.57 1.66.93.1.37-.04.72-.11.9z" fill="#EC6708"/><path d="M19.4 22.41l-2.27 1.64.99-2.66c.12-.36.55-.85 1.12-.6.76.33.66.92.57 1.16-.08.24-.3.39-.4.46z" fill="#312684"/><path d="M19.53 24.13h-2.1l1.76-1.19c.23-.16.7-.28.95.12.32.53 0 .85-.16.96a.76.76 0 01-.45.1z" fill="#8D004E"/><path d="M8.7 24.76l7.77-.01-6.4 4.5c-.83.63-2.65.93-3.46-.37-1.21-1.92-.1-3.28.46-3.7a2.77 2.77 0 011.63-.42z" fill="#E40613"/><path d="M9.57 30.12l6.92-4.76-2.93 7.94c-.37 1.06-1.83 2.44-3.33 1.79-2.26-.98-2.1-2.86-1.85-3.58.24-.72.88-1.17 1.2-1.4z" fill="#FCC000"/><path d="M17 25v8h2v-6h8v-2H17zm24 8v-8h2v6h8v2H41zm-12-8h10v8H29v-5h8v-1h-8v-2zm8 5h-6v1h6v-1z" fill="#9D9D9D"/></svg>