<svg width="56" height="56" xmlns="http://www.w3.org/2000/svg"><path fill="#004B93" d="M0 0h56v56H0z"/><path d="M49.5 28.994c0 6.072-4.925 10.995-11 10.995s-11-4.922-11-10.995C27.5 22.922 32.425 18 38.5 18s11 4.922 11 10.994z" fill="#fff"/><path d="M36.222 23L30.5 35h3.778l1.1-2h6.149l1.084 2H46.5l-5.818-12h-4.46zm2.27 2.317l1.913 4.694H36.5l1.992-4.694z" fill="#004B93"/><path fill-rule="evenodd" d="M17.506 40c6.078 0 11.005-4.925 11.005-11s-4.927-11-11.005-11C11.427 18 6.5 22.925 6.5 29s4.927 11 11.006 11zm-4.258-17a3.182 3.182 0 00-2.768 1.636c-.522.925-.57 2.245-.373 3.273.199 1.036.798 2.091 2.475 2.091h7.59c.59 0 1.066.398 1.066 1s-.477 1-1.065 1h-5.327c-.588 0-1.065-.398-1.065-1h-3.729v.454c0 1.808 1.431 3.546 3.196 3.546h8.523c1.765 0 3.196-1.465 3.196-3.273 0 0 .533-3.727-2.663-3.727h-7.457c-.59 0-1.066-.307-1.066-1 0-.602.477-1 1.065-1h5.327c.588 0 1.065.398 1.065 1h3.729v-.454c0-1.808-1.431-3.546-3.196-3.546h-8.523z" fill="#fff"/></svg>