<svg width="56" height="56" xmlns="http://www.w3.org/2000/svg"><path fill="#0391C0" d="M0 0h56v56H0z"/><path d="M32.93 15.286L34.196 14 48 28l-1.268 1.286-13.803-14zm-4.085 4.143l1.268-1.286 13.803 14-1.268 1.286-13.803-14zm3.521 11.857l1.127-1.143 6.197 6.285-1.127 1.143-6.197-6.285z" fill="#fff"/><path d="M24.76 23.571l1.128-1.285 7.605 7.857-1.127 1.143-7.605-7.715z" fill="#F63240"/><path d="M28 35.714l1.268-1.285 6.197 6.285L34.197 42 28 35.714z" fill="#fff"/><path d="M20.394 28l1.268-1.286 7.605 7.715L28 35.714 20.394 28z" fill="#F63240"/><path d="M8 28l1.127-1.286L22.93 40.857 21.803 42 8 28zm4.085-4.143l1.126-1.285 13.944 14-1.268 1.285-13.803-14zm4.084-4.286l1.268-1.285 6.197 6.285-1.268 1.286-6.197-6.286z" fill="#fff"/><path d="M22.366 25.857l1.268-1.286 7.606 7.715-1.127 1.285-7.747-7.714z" fill="#F63240"/><path d="M20.394 15.286l1.268-1.143 6.197 6.285-1.267 1.143-6.198-6.285z" fill="#fff"/><path d="M26.592 21.571l1.267-1.143 7.606 7.715-1.268 1.285-7.605-7.857z" fill="#F63240"/></svg>