<svg xmlns="http://www.w3.org/2000/svg" width="56" height="56"><path fill="#9A238A" d="M0 0h56v56H0z"/><path fill-rule="evenodd" d="M23.64 12.36L28 8l4.38 4.38a25.66 25.66 0 00-8.74-.02zm-1.28 1.28l-1.79 1.79c2.3-.6 4.81-.93 7.43-.93s5.13.33 7.43.93l-1.76-1.76a24.4 24.4 0 00-11.31-.03zM17.4 18.6l1.68-1.68c2.67-.9 5.7-1.42 8.92-1.42 3.22 0 6.25.51 8.92 1.42l1.68 1.68A34.16 34.16 0 0028 17c-3.88 0-7.51.58-10.6 1.6zm-1.73 1.73L8 28l7.67 7.67A31.48 31.48 0 0028 38c4.7 0 9-.88 12.33-2.33L48 28l-7.67-7.67A31.48 31.48 0 0028 18c-4.7 0-9 .88-12.33 2.33zM38.6 37.4A34.16 34.16 0 0128 39c-3.88 0-7.51-.58-10.6-1.6l1.68 1.68c2.67.9 5.7 1.42 8.92 1.42 3.22 0 6.25-.51 8.92-1.42l1.68-1.68zM28 41.5c2.62 0 5.13-.33 7.43-.93l-1.76 1.76a24.4 24.4 0 01-11.31.03l-1.79-1.79c2.3.6 4.81.93 7.43.93zm4.38 2.12a25.66 25.66 0 01-8.74.02L28 48l4.38-4.38zM11 27.94C12.97 25.38 19.14 20 28.11 20c8.88 0 15 5.2 16.89 7.94C43.3 30.45 37.67 36 28.11 36c-9.55 0-15.34-5.2-17.11-8.06zM34 28a6 6 0 11-12 0 6 6 0 0112 0zm-2 0a4 4 0 11-8 0 4 4 0 018 0z" fill="#fff"/></svg>