<svg xmlns="http://www.w3.org/2000/svg" width="56" height="56" fill="none"><path d="M0 28a28 28 0 1156 0 28 28 0 01-56 0z" fill="url(#akt1chbgj)"/><path d="M24.75 15.84v-.5c.92.59 1.86.47 2.2.36v-.14c-.33 0-.93-.3-1.2-.45-.34-.19-1.08-.4-1.23.22-.15.63.12 1.03.28 1.15-.22 0-.5.09-.78.23l-.14-.05-.14-.32.05-.32-.37-.46c-.28-.04-.5.09-.63.32-.34.58.02 1.17.27 1.42a1.9 1.9 0 00-.83.37l-.32-.1-.09-.27.1-.32-.33-.27v-.23l.32-.28-.32-.32.18-.36h.33v-.32l.22-.28.28.23.09-.23.05-.27.22-.14.14.1.1.18.31-.1.19-.27h.4v-.23l.24-.32.14.32.22.1.19-.2.23-.17.18.27.41.14.23-.19.14.32.13.23.42-.18.18.28v.45c.04.15.32.22.46.23v.32a3.5 3.5 0 01-2.52.05z" fill="#FEC524"/><path d="M22.48 17.33a.39.39 0 11-.77 0 .39.39 0 01.77 0z" fill="#1A1E21"/><path fill-rule="evenodd" d="M22.1 17.56a.23.23 0 100-.47.23.23 0 000 .47zm0 .15a.39.39 0 100-.77.39.39 0 000 .77z" fill="#FEC524"/><path d="M22.28 16.64a.39.39 0 11-.78 0 .39.39 0 01.78 0z" fill="#1A1E21"/><path fill-rule="evenodd" d="M21.89 16.87a.23.23 0 100-.46.23.23 0 000 .46zm0 .16a.39.39 0 100-.78.39.39 0 000 .78z" fill="#FEC524"/><path d="M22.28 15.86a.39.39 0 11-.78 0 .39.39 0 01.78 0z" fill="url(#bkt1chbgj)"/><path fill-rule="evenodd" d="M21.89 16.1a.23.23 0 100-.47.23.23 0 000 .46zm0 .15a.39.39 0 100-.78.39.39 0 000 .78z" fill="#FEC524"/><path d="M22.74 15.27a.39.39 0 11-.78 0 .39.39 0 01.78 0z" fill="url(#ckt1chbgj)"/><path fill-rule="evenodd" d="M22.35 15.5a.23.23 0 100-.47.23.23 0 000 .47zm0 .15a.39.39 0 100-.77.39.39 0 000 .77z" fill="#FEC524"/><path d="M23.35 14.8a.39.39 0 11-.77 0 .39.39 0 01.77 0z" fill="url(#dkt1chbgj)"/><path fill-rule="evenodd" d="M22.96 15.04a.23.23 0 100-.47.23.23 0 000 .47zm0 .16a.39.39 0 100-.78.39.39 0 000 .78z" fill="#FEC524"/><path d="M24.1 14.7a.39.39 0 11-.77 0 .39.39 0 01.78 0z" fill="url(#ekt1chbgj)"/><path fill-rule="evenodd" d="M23.72 14.93a.23.23 0 100-.47.23.23 0 000 .47zm0 .15a.39.39 0 100-.78.39.39 0 000 .78z" fill="#FEC524"/><path d="M24.8 14.24a.39.39 0 11-.78 0 .39.39 0 01.78 0z" fill="url(#fkt1chbgj)"/><path fill-rule="evenodd" d="M24.4 14.47a.23.23 0 100-.47.23.23 0 000 .47zm0 .15a.39.39 0 100-.77.39.39 0 000 .78z" fill="#FEC524"/><path d="M25.57 14.21a.39.39 0 11-.77 0 .39.39 0 01.77 0z" fill="url(#gkt1chbgj)"/><path fill-rule="evenodd" d="M25.18 14.45a.23.23 0 100-.47.23.23 0 000 .47zm0 .15a.39.39 0 100-.78.39.39 0 000 .78z" fill="#FEC524"/><path d="M26.33 14.4a.39.39 0 11-.78 0 .39.39 0 01.78 0z" fill="url(#hkt1chbgj)"/><path fill-rule="evenodd" d="M25.94 14.63a.23.23 0 100-.47.23.23 0 000 .47zm0 .16a.39.39 0 100-.78.39.39 0 000 .78z" fill="#FEC524"/><path d="M26.97 14.8a.39.39 0 11-.78 0 .39.39 0 01.78 0z" fill="url(#ikt1chbgj)"/><path fill-rule="evenodd" d="M26.58 15.04a.23.23 0 100-.47.23.23 0 000 .47zm0 .16a.39.39 0 100-.78.39.39 0 000 .78z" fill="#FEC524"/><path d="M24.06 15.75a.37.37 0 11-.73 0 .37.37 0 01.73 0z" fill="url(#jkt1chbgj)"/><path fill-rule="evenodd" d="M23.7 15.96a.21.21 0 100-.42.21.21 0 000 .42zm0 .15a.37.37 0 100-.73.37.37 0 000 .73z" fill="#FEC524"/><path d="M24.25 16.43a.37.37 0 11-.74 0 .37.37 0 01.74 0z" fill="#1A1E21"/><path fill-rule="evenodd" d="M23.88 16.64a.21.21 0 100-.42.21.21 0 000 .42zm0 .16a.37.37 0 100-.73.37.37 0 000 .73z" fill="#FEC524"/><path d="M31.25 15.84v-.5c-.92.59-1.86.47-2.2.36v-.14c.33 0 .93-.3 1.2-.45.34-.19 1.08-.4 1.23.22.15.63-.12 1.03-.28 1.15.22 0 .5.09.78.23l.14-.05.14-.32-.05-.32.37-.46c.28-.04.5.09.63.32.34.58-.02 1.17-.27 1.42.33.04.69.26.83.37l.32-.1.09-.27-.1-.32.33-.27v-.23l-.32-.28.32-.32-.18-.36h-.33v-.32l-.22-.28-.28.23-.09-.23-.05-.27-.22-.14-.14.1-.1.18-.31-.1-.19-.27h-.4v-.23l-.24-.32-.14.32-.22.1-.19-.2-.23-.17-.18.27-.41.14-.23-.19-.14.32-.13.23-.42-.18-.18.28v.45c-.04.15-.32.22-.46.23v.32a3.5 3.5 0 002.52.05z" fill="#FEC524"/><path d="M33.52 17.33a.39.39 0 10.77 0 .39.39 0 00-.77 0z" fill="url(#kkt1chbgj)"/><path fill-rule="evenodd" d="M33.9 17.56a.23.23 0 110-.47.23.23 0 010 .47zm0 .15a.39.39 0 110-.77.39.39 0 010 .77z" fill="#FEC524"/><path d="M33.72 16.64a.39.39 0 10.78 0 .39.39 0 00-.78 0z" fill="url(#lkt1chbgj)"/><path fill-rule="evenodd" d="M34.11 16.87a.23.23 0 110-.46.23.23 0 010 .46zm0 .16a.39.39 0 110-.78.39.39 0 010 .78z" fill="#FEC524"/><path d="M33.72 15.86a.39.39 0 10.78 0 .39.39 0 00-.78 0z" fill="url(#mkt1chbgj)"/><path fill-rule="evenodd" d="M34.11 16.1a.23.23 0 110-.47.23.23 0 010 .46zm0 .15a.39.39 0 110-.78.39.39 0 010 .78z" fill="#FEC524"/><path d="M33.26 15.27a.39.39 0 10.78 0 .39.39 0 00-.78 0z" fill="url(#nkt1chbgj)"/><path fill-rule="evenodd" d="M33.65 15.5a.23.23 0 110-.47.23.23 0 010 .47zm0 .15a.39.39 0 110-.77.39.39 0 010 .77z" fill="#FEC524"/><path d="M32.65 14.8a.39.39 0 10.77 0 .39.39 0 00-.77 0z" fill="url(#okt1chbgj)"/><path fill-rule="evenodd" d="M33.04 15.04a.23.23 0 110-.47.23.23 0 010 .47zm0 .16a.39.39 0 110-.78.39.39 0 010 .78z" fill="#FEC524"/><path d="M31.9 14.7a.39.39 0 10.77 0 .39.39 0 00-.78 0z" fill="url(#pkt1chbgj)"/><path fill-rule="evenodd" d="M32.28 14.93a.23.23 0 110-.47.23.23 0 010 .47zm0 .15a.39.39 0 110-.78.39.39 0 010 .78z" fill="#FEC524"/><path d="M31.2 14.24a.39.39 0 10.78 0 .39.39 0 00-.78 0z" fill="url(#qkt1chbgj)"/><path fill-rule="evenodd" d="M31.6 14.47a.23.23 0 110-.47.23.23 0 010 .47zm0 .15a.39.39 0 110-.77.39.39 0 010 .78z" fill="#FEC524"/><path d="M30.43 14.21a.39.39 0 10.77 0 .39.39 0 00-.77 0z" fill="url(#rkt1chbgj)"/><path fill-rule="evenodd" d="M30.82 14.45a.23.23 0 110-.47.23.23 0 010 .47zm0 .15a.39.39 0 110-.78.39.39 0 010 .78z" fill="#FEC524"/><path d="M29.67 14.4a.39.39 0 10.78 0 .39.39 0 00-.78 0z" fill="url(#skt1chbgj)"/><path fill-rule="evenodd" d="M30.06 14.63a.23.23 0 110-.47.23.23 0 010 .47zm0 .16a.39.39 0 110-.78.39.39 0 010 .78z" fill="#FEC524"/><path d="M29.03 14.8a.39.39 0 10.78 0 .39.39 0 00-.78 0z" fill="url(#tkt1chbgj)"/><path fill-rule="evenodd" d="M29.42 15.04a.23.23 0 110-.47.23.23 0 010 .47zm0 .16a.39.39 0 110-.78.39.39 0 010 .78z" fill="#FEC524"/><path d="M31.84 15.65a.37.37 0 10.74 0 .37.37 0 00-.73 0z" fill="url(#ukt1chbgj)"/><path fill-rule="evenodd" d="M32.21 15.87a.21.21 0 110-.43.21.21 0 010 .43zm0 .15a.37.37 0 110-.73.37.37 0 010 .73z" fill="#FEC524"/><path d="M22.14 18.04c.15-.15.77-.5 1.1-.5.26 0 .2.24.2.5v.15c0 .12.14.21.26.21l-.05.28a.47.47 0 01-.34-.16c-.31-.33-.66-.62-1.17-.48zm11.74 0a2.32 2.32 0 00-1.1-.5c-.26 0-.2.24-.2.5v.15c0 .12-.14.21-.26.21l.05.28c.13 0 .25-.06.34-.16.31-.33.66-.62 1.17-.48zm-5.78-4.41a.32.32 0 01-.15 0c-.05.49-.47.64-.68.65 0-.2.11-.53.55-.7a.32.32 0 11.37 0c.47.15.59.5.59.7-.22-.01-.64-.17-.69-.65z" fill="#FEC524"/><path fill-rule="evenodd" d="M28 14.51c-.78 0-.84.2-.78.32l.37.46a1.06 1.06 0 00-.14.78h.1a.65.65 0 01.92 0h.08v-.05a1 1 0 00-.14-.73l.37-.46c.06-.12-.02-.32-.78-.32zm.37.5a.37.37 0 11-.74 0 .37.37 0 01.74 0zm-.37.83a.18.18 0 100-.37.18.18 0 000 .37z" fill="#FEC524"/><path fill-rule="evenodd" d="M28.47 16.23a.57.57 0 00-.94 0 .85.85 0 00-.12.33l-.28.02c-.75.08-1.35.2-1.83.38a.5.5 0 10-.9.45h-.02l-.14.11c-.56.47-.68 1-.59 1.44.05.24.16.47.22.72 2.7-.8 5.77-.53 7.75 0-3.6-.6-6.33-.05-7.67.4.14.72.2 1.48.2 1.48h7.7s.31-1.73.5-2.6c.13-.64-.25-1.2-.75-1.55a.5.5 0 00-.9-.45 7.97 7.97 0 00-2.1-.4.83.83 0 00-.13-.33zm-.2 1.9v-.83h-.54v.83h.54zm-3.24-.55l.45.36-.12.55-.5-.37.17-.54zm5.49.34l.41-.4.23.5-.41.45-.23-.55zm-5.54 2.6c.02.28-.08.52-.24.53-.16.02-.3-.2-.33-.47-.03-.28.08-.52.24-.53.15-.02.3.2.33.47zm.36-.03l.27-.58.33.53-.27.57-.33-.52zm1.7-.13c.03.32-.1.59-.28.6-.18 0-.34-.24-.36-.56-.02-.32.1-.6.28-.6.18-.02.35.23.37.56zm2.88.1l.46-.5v1l-.46-.5zm-.46-.69c-.3 0-.54.31-.54.7 0 .37.24.68.54.68v-.22c-.15-.05-.27-.25-.27-.48 0-.24.12-.44.27-.5v-.18zm1.56.78c0-.28.17-.5.37-.5v.13c-.1.04-.19.19-.19.36 0 .17.08.32.19.36v.16c-.2 0-.37-.23-.37-.5zM28 19.68l-.55.74.55.73.55-.73-.55-.74z" fill="#FEC524"/><path d="M32.49 16.39a.37.37 0 11-.74 0 .37.37 0 01.74 0z" fill="url(#vkt1chbgj)"/><path fill-rule="evenodd" d="M32.12 16.6a.21.21 0 100-.42.21.21 0 000 .42zm0 .15a.37.37 0 100-.73.37.37 0 000 .73z" fill="#FEC524"/><path d="M21 27.03v-3h-5v3h1s-.3-2.03.5-2.03h.5v4.53c0 .5-1 .5-1 .5v1h3v-1s-1 0-1-.5V25h.5c.79 0 .5 2.03.5 2.03h1zm-4.5 8v-3h-5v3h1s-.3-2 .5-2h.5v4.5c0 .5-1 .5-1 .5v1h3v-1s-1 0-1-.5v-4.5h.5c.79 0 .5 2 .5 2h1zm6-11.03h2v1s-.5-.04-.5.18v3.88c0 .53.45.94 1 .94s1-.4 1-.94v-3.88c0-.23-.5-.18-.5-.18v-1h2v1s-.5-.06-.5.18v3.88c0 1.07-.9 1.94-2 1.94s-2-.87-2-1.94v-3.88c0-.24-.5-.18-.5-.18v-1zm-5 8.03h2v1s-.5-.05-.5.18v4.02a1 1 0 102 0v-4.02c0-.23-.5-.18-.5-.18v-1h2v1s-.5-.06-.5.18v4.02a2 2 0 11-4 0v-4.02c0-.24-.5-.18-.5-.18v-1zm6.5-9a.5.5 0 11-1 0 .5.5 0 011 0zm3 0a.5.5 0 11-1 0 .5.5 0 011 0z" fill="#FEC524"/><path fill-rule="evenodd" d="M30 24.03h-1.5v1s.5-.04.5.5v4c0 .5-.5.5-.5.5v1h2v-1s-.5 0-.5-.5v-1.5h.6c1.4.97 1.4 3 1.4 3h1.5v-1s-.4.05-.6-.47c-.26-.67-.6-1.42-1.13-1.8a2 2 0 00.96-1.73c0-1.1-.84-2-1.94-2H30zm0 1v2h.5c.55 0 1.13-.4 1.12-1 0-.62-.57-1-1.12-1H30zM35.5 32H34v1s.5-.04.5.5v4c0 .5-.5.5-.5.5v1h2v-1s-.5 0-.5-.5V36h.6c1.4.97 1.4 3 1.4 3H39v-1s-.4.05-.6-.47c-.26-.67-.6-1.42-1.13-1.8a2 2 0 00.96-1.73c0-1.1-.84-2-1.94-2h-.79zm0 1v2h.5c.55 0 1.13-.4 1.12-1 0-.62-.57-1-1.12-1h-.5z" fill="#FEC524"/><path d="M37 24.03h-2.5v1s.5 0 .5.32v4.4c0 .28-.5.28-.5.28v1H37v-1s-1 0-1-.29v-1.71h.77l1.1 1.7c.08.12.17.3-.09.3h-.28v1H40v-1h-.5c-.21 0-.33-.15-.44-.3l-1.41-2.2 1.45-2.17a.58.58 0 01.2-.22c.28-.14.7-.11.7-.11v-1h-2.5v1s.3-.02.4.11c.06.08.03.13-.02.2l-.02.02-1.04 1.67H36v-1.68c0-.32 1-.32 1-.32v-1z" fill="#FEC524"/><path fill-rule="evenodd" d="M25 35.03v-2h.45c.5 0 .9.45.9 1s-.4 1-.9 1H25zm0 1v2h.5a1 1 0 100-2H25zm-1.5 3h2.75a1.75 1.75 0 100-3.5h-.13c.87 0 1.58-.78 1.58-1.75s-.7-1.75-1.57-1.75H23.5v1s.5 0 .5.22v4.5c0 .28-.5.28-.5.28v1zm7.5-7.15a2 2 0 00-2 2v3.3a2 2 0 104 0v-3.3a2 2 0 00-2-2zm0 1a1 1 0 00-1 1v3.3a1 1 0 102 0v-3.3a1 1 0 00-1-1z" fill="#FEC524"/><path d="M42 31.88a2 2 0 00-2 2v3.3a2 2 0 003.35 1.47c.13-.11.17-.12.35-.12h.45v-1c-.15 0-.15-.12-.15-.35v-1.65h-2v1s1 0 1 .65-.45 1-1 1a1 1 0 01-1-1v-3.3a1 1 0 112 0v.65h1v-2.65h-1c0 .19.01.26-.2.17a2 2 0 00-.8-.17z" fill="#FEC524"/><defs><linearGradient id="akt1chbgj" x1="10.42" y1="9.71" x2="68.15" y2="76.02" gradientUnits="userSpaceOnUse"><stop stop-color="#1A1E21"/><stop offset="1" stop-color="#06060A"/></linearGradient><linearGradient id="bkt1chbgj" x1="21.64" y1="15.61" x2="22.45" y2="16.53" gradientUnits="userSpaceOnUse"><stop stop-color="#1A1E21"/><stop offset="1" stop-color="#06060A"/></linearGradient><linearGradient id="ckt1chbgj" x1="22.1" y1="15.01" x2="22.9" y2="15.93" gradientUnits="userSpaceOnUse"><stop stop-color="#1A1E21"/><stop offset="1" stop-color="#06060A"/></linearGradient><linearGradient id="dkt1chbgj" x1="22.72" y1="14.55" x2="23.52" y2="15.48" gradientUnits="userSpaceOnUse"><stop stop-color="#1A1E21"/><stop offset="1" stop-color="#06060A"/></linearGradient><linearGradient id="ekt1chbgj" x1="23.48" y1="14.44" x2="24.28" y2="15.36" gradientUnits="userSpaceOnUse"><stop stop-color="#1A1E21"/><stop offset="1" stop-color="#06060A"/></linearGradient><linearGradient id="fkt1chbgj" x1="24.16" y1="13.98" x2="24.96" y2="14.9" gradientUnits="userSpaceOnUse"><stop stop-color="#1A1E21"/><stop offset="1" stop-color="#06060A"/></linearGradient><linearGradient id="gkt1chbgj" x1="24.94" y1="13.96" x2="25.74" y2="14.88" gradientUnits="userSpaceOnUse"><stop stop-color="#1A1E21"/><stop offset="1" stop-color="#06060A"/></linearGradient><linearGradient id="hkt1chbgj" x1="25.7" y1="14.14" x2="26.5" y2="15.06" gradientUnits="userSpaceOnUse"><stop stop-color="#1A1E21"/><stop offset="1" stop-color="#06060A"/></linearGradient><linearGradient id="ikt1chbgj" x1="26.34" y1="14.55" x2="27.14" y2="15.48" gradientUnits="userSpaceOnUse"><stop stop-color="#1A1E21"/><stop offset="1" stop-color="#06060A"/></linearGradient><linearGradient id="jkt1chbgj" x1="23.47" y1="15.51" x2="24.22" y2="16.37" gradientUnits="userSpaceOnUse"><stop stop-color="#1A1E21"/><stop offset="1" stop-color="#06060A"/></linearGradient><linearGradient id="kkt1chbgj" x1="34.15" y1="17.07" x2="33.35" y2="17.99" gradientUnits="userSpaceOnUse"><stop stop-color="#1A1E21"/><stop offset="1" stop-color="#06060A"/></linearGradient><linearGradient id="lkt1chbgj" x1="34.36" y1="16.39" x2="33.55" y2="17.31" gradientUnits="userSpaceOnUse"><stop stop-color="#1A1E21"/><stop offset="1" stop-color="#06060A"/></linearGradient><linearGradient id="mkt1chbgj" x1="34.36" y1="15.61" x2="33.55" y2="16.53" gradientUnits="userSpaceOnUse"><stop stop-color="#1A1E21"/></linearGradient><linearGradient id="nkt1chbgj" x1="33.9" y1="15.01" x2="33.1" y2="15.93" gradientUnits="userSpaceOnUse"><stop stop-color="#1A1E21"/><stop offset="1" stop-color="#06060A"/></linearGradient><linearGradient id="okt1chbgj" x1="33.28" y1="14.55" x2="32.48" y2="15.48" gradientUnits="userSpaceOnUse"><stop stop-color="#1A1E21"/><stop offset="1" stop-color="#06060A"/></linearGradient><linearGradient id="pkt1chbgj" x1="32.52" y1="14.44" x2="31.72" y2="15.36" gradientUnits="userSpaceOnUse"><stop stop-color="#1A1E21"/><stop offset="1" stop-color="#06060A"/></linearGradient><linearGradient id="qkt1chbgj" x1="31.84" y1="13.98" x2="31.04" y2="14.9" gradientUnits="userSpaceOnUse"><stop stop-color="#1A1E21"/><stop offset="1" stop-color="#06060A"/></linearGradient><linearGradient id="rkt1chbgj" x1="31.06" y1="13.96" x2="30.26" y2="14.88" gradientUnits="userSpaceOnUse"><stop stop-color="#1A1E21"/><stop offset="1" stop-color="#06060A"/></linearGradient><linearGradient id="skt1chbgj" x1="30.3" y1="14.14" x2="29.5" y2="15.06" gradientUnits="userSpaceOnUse"><stop stop-color="#1A1E21"/><stop offset="1" stop-color="#06060A"/></linearGradient><linearGradient id="tkt1chbgj" x1="29.66" y1="14.55" x2="28.86" y2="15.48" gradientUnits="userSpaceOnUse"><stop stop-color="#1A1E21"/><stop offset="1" stop-color="#06060A"/></linearGradient><linearGradient id="ukt1chbgj" x1="32.44" y1="15.42" x2="31.69" y2="16.28" gradientUnits="userSpaceOnUse"><stop stop-color="#1A1E21"/><stop offset="1" stop-color="#06060A"/></linearGradient><linearGradient id="vkt1chbgj" x1="31.89" y1="16.15" x2="32.64" y2="17.02" gradientUnits="userSpaceOnUse"><stop stop-color="#1A1E21"/><stop offset="1" stop-color="#06060A"/></linearGradient></defs></svg>