<svg xmlns="http://www.w3.org/2000/svg" width="56" height="56"><path fill="#ED2127" d="M0 0h56v56H0z"/><path d="M21.49 26.49c.2-2.58 7.2-4.06 15.63-3.3 8.42.77 15.08 3.48 14.88 6.06-.21 2.58-7.2 4.05-15.63 3.29l-1.28-.13c5.73.22 10.22-.96 10.37-2.85.17-2.1-5.05-4.3-11.66-4.89-5.87-.53-10.86.37-12.03 2.05l.2 1.12 1.82.48-1.65.41.26 1.44L21.1 29l-1.66.41.87-1.15-1.29-1.18 1.82.48.64-.85v-.21zm13.1 2.38c-.14 2.56-7.03 4.4-15.44 4.1-8.45-.3-15.23-2.64-15.15-5.23.08-2.58 7-4.43 15.45-4.13l1.3.06c-5.74.09-10.18 1.5-10.24 3.41-.07 2.1 5.26 4 11.89 4.24 5.7.2 10.52-.9 11.8-2.55l-.18-.93-1.82-.46 1.65-.42-.27-1.44 1.3 1.17 1.65-.42-.85 1.15 1.29 1.17-1.82-.46-.55.74z" fill="#fff"/></svg>