<svg width="56" height="56" xmlns="http://www.w3.org/2000/svg"><path fill="#E61837" d="M0 0h56v56H0z"/><path fill-rule="evenodd" d="M40.794 19h-3.1l-7.802 8.03L32.285 36h11.662c1.849-.135 2.764-1.767 2.99-2.566l.68-3.073c.153-2.233-1.404-2.96-2.202-3.045 1.196-.226 1.84-1.11 2.012-1.523l.57-2.284c.066-1.917-1.386-2.471-2.12-2.509h-7.061l1.978-2zm-2.266 2.291l-4.72 4.774 2.039 7.453 2.68-12.227zM14.395 36h-3.917c-.462-.028-1.316-.386-1.04-1.6.104-.452.382-1.713.727-3.282.58-2.63 1.349-6.126 1.805-8.118h-1.838c-.302-.01-.917.074-.96 1H8l.506-2.007c.027-.34.347-1.014 1.412-.992 1.066.022 13.696.009 19.878 0 .453.018 1.29.369 1.013 1.626a5609.75 5609.75 0 01-2.692 11.94c-.088.358-.042 1.146.853 1.433h-4.103c-.436-.01-1.194-.452-.746-2.15-.293.716-1.317 2.15-3.065 2.15h-5.355c-.436-.018-1.226-.403-.906-1.792L15.22 33h1.12c-.019.358.164.978 1.038 1 .874.022 2.052.01 2.532 0 .506-.018 1.508-.735 1.465-2.08a1.949 1.949 0 00-1.066-1.6c-.831-.419-2.3-1.333-2.93-1.737-.383-.193-1.093-.871-.88-2.04L17.22 23H16.1l-2.398 11.208c-.124.468-.16 1.483.693 1.792zm11.536-14.613c.32.082.902.507.665 1.542-.238 1.035-1.149 5.076-1.574 6.968.011-.55-.25-2.249-1.23-2.674l-3.533-2.04a1.227 1.227 0 01-.577-1.045c0-.727.664-1.156 1.312-1.138.517.014 2.547.006 3.497 0 .315-.018.967-.105 1.247-1.063l.193-.55zM42.261 23h1.985c.209.029.604.225.517.779a19.03 19.03 0 01-.354 1.615c-.081.183-.402.56-1.033.606H41.61l.653-3zm.98 5h-2.094l-1.196 6h2.175c.913-.052 1.373-.852 1.495-1.395l.544-2.95c.201-1.234-.553-1.644-.925-1.655z" fill="#fff"/></svg>