<svg xmlns="http://www.w3.org/2000/svg" width="56" height="56"><path fill="#F0F3FA" d="M0 0h56v56H0z"/><path d="M23.67 26.31a9.26 9.26 0 01-10.53-4.25c-.34.84-.6 1.74-.8 2.65-.07.36-.14.73-.2 1.13 0 .1-.04.17-.04.27l-.03.4c-.04.2-.04.4-.04.57v.1c0 .27-.03.54-.03.8 0 .54.03 1.1.07 1.64v.04l.1.73c0 .07.03.1.03.17l.1.5c.03.13.07.23.07.37l.06.26c.04.2.1.4.17.6v.04a16.3 16.3 0 002.1 4.58 16.08 16.08 0 009.97 6.72h.04l1.07.2h.03l.77.1c.13 0 .27.04.4.04h.27l.7.03c.27 0 .5 0 .77-.03h.13c.24 0 .5-.04.74-.07h.07c.2-.03.4-.03.6-.07.06 0 .13-.03.23-.03l.6-.1c.1-.03.24-.03.34-.07l.3-.06c.47-.1.93-.24 1.37-.4h.03c1.47-.5 2.84-1.21 4.08-2.08.04-.03.07-.03.07-.07.37-.26.7-.53 1.04-.8.06-.07.16-.13.23-.2s.17-.13.23-.2l.44-.4.13-.13c.14-.14.24-.27.37-.37.03-.04.07-.1.13-.14.04-.03.04-.06.07-.06-9.26 7.82-21.3-3.08-16.25-12.4z" fill="#00AABC"/><path d="M28.02 12a16.02 16.02 0 00-14.62 9.46c4.22 3.05 8.97 1.57 12.68 0 4.18-1.74 11-2.8 15.48 3.31a8.1 8.1 0 00-13.74 6.42 8.14 8.14 0 008.72 7.4C39.42 38.41 44 35.7 44 27.94 44 19.15 36.84 12 28.02 12z" fill="#DD3C27"/></svg>