<svg width="56" height="56" xmlns="http://www.w3.org/2000/svg"><path fill="#424242" d="M0 0h56v56H0z"/><path d="M28.677 34.834c-.527.4-.716.948-.716 1.356.379 1.815 1.778 1.551 2.43 1.192 7.095-5.133 8.441-10.615 8.597-13.11.155-2.495-1.162-5.026-3.826-8.035-2.13-2.408-3.703-5.833-4.223-7.245-.29-.787-1.524-1.703-1.83-.137-.304 1.566.128 2.556.382 2.855 1.907 2.773 5.551 7.586 5.848 12.562.297 4.975-6.003 10.061-6.662 10.562zm-4.402 4.284c-.55-.61-1.1-.254-1.308 0-1.741 2.316-5.185 6.854-5.32 7.182-.137.328-.348 1.117.34 1.558.546.35 1.32-.006 1.6-.44 2.017-3.128 5.073-5.288 5.91-5.742.668-.363.378-.908.15-1.135a30.9 30.9 0 01-1.372-1.423z" fill="#E21F25"/><path d="M20.932 37.648c.57.412.996.372 1.138.3.29-.224.12-.644 0-.825-.342-.513-1.82-1.646-2.103-6.715-.283-5.07 4.47-10.35 6.964-12.428.692-.681.334-1.936 0-2.088.034.28-.378.797-.882 1.149-2.88 2.008-9.207 8.171-9.043 13.2.156 4.81 3.212 6.892 3.926 7.407z" fill="#fff"/><path d="M28.887 21.168c1.756-4.226.732-6.525 0-7.146-1.06-1.042-1.494-.318-1.14 0 .609.544 1.193 2.914-2.08 7.37-3.272 4.458-3.392 7.864-3.392 9.119.352 8.378 8.05 12.976 8.225 12.351.176-.624-.624-2.253-1.613-3.77-4.423-6.788-2.195-12.642 0-17.924z" fill="#fff"/></svg>