<svg xmlns="http://www.w3.org/2000/svg" width="56" height="56"><path fill="#F0F3FA" d="M0 0h56v56H0z"/><path fill-rule="evenodd" d="M28 43c8.84 0 16-2.2 16-4.93 0-2.73-7.16-4.94-16-4.94s-16 2.21-16 4.94C12 40.79 19.16 43 28 43zm0-1c7.18 0 13-1.86 13-4.16s-5.82-4.17-13-4.17-13 1.87-13 4.17S20.82 42 28 42z" fill="url(#ame32odx3)"/><circle cx="28" cy="25" fill="#7497B6" r="14"/><path d="M35.95 36.53C33.7 38.09 30.95 39 28 39s-5.69-.91-7.94-2.47c0-1.56 3.9-4.24 7.94-4.19 4.05.05 7.95 2.36 7.95 4.19z" fill="url(#bme32odx3)"/><path d="M41.9 25.95c-.66 4.84-9.79 5.63-13.74 5.63-7.58 0-14.01-3.04-14.14-5.63C13.55 16.18 21.16 11 28 11c8.15 0 14.96 7.32 13.9 14.95z" fill="url(#cme32odx3)"/><ellipse rx="1.1" ry="2.79" transform="rotate(34.51 -21.36 41.33) skewX(-.01)" fill="#F0F6FA"/><defs><linearGradient id="ame32odx3" x1="28" y1="33.13" x2="28" y2="43" gradientUnits="userSpaceOnUse"><stop stop-color="#758D9C"/><stop offset="1" stop-color="#CBD7E1"/></linearGradient><linearGradient id="bme32odx3" x1="28" y1="32.34" x2="28" y2="39" gradientUnits="userSpaceOnUse"><stop stop-color="#B7C8D7" stop-opacity=".46"/><stop offset="1" stop-color="#B7C7D6"/></linearGradient><linearGradient id="cme32odx3" x1="40.31" y1="19.75" x2="22.2" y2="30.97" gradientUnits="userSpaceOnUse"><stop offset=".2" stop-color="#789FBE"/><stop offset=".84" stop-color="#DFEAF3"/></linearGradient></defs></svg>