<svg width="56" height="56" xmlns="http://www.w3.org/2000/svg"><path fill="#DB0F16" d="M0 0h56v56H0z"/><path d="M22 26.19c0-1.995 1.789-3.19 3.603-3.19H28v1h-1.574c-.823 0-1.426.808-1.426 1.446 0 2.136 4 2.003 4 4.576C29 31.904 27.074 33 25.397 33H22v-1h2.572c.722 0 1.428-.914 1.428-1.447 0-2.028-4-1.775-4-4.362zM21 23v1h-4v3.5h3.355v1H17V32h4v1h-7V23h7zm23 0v1h-4v3.5h3.355v1H40V32h4v1h-7V23h7zm-30.224 0L10.26 33H7.625L4 23h3.514l2.322 7.385L12.413 23h1.363zM45 23h3v9h4v1h-7V23zm-9 0v1h-2v9h-3v-9h-2v-1h7z" fill="#fff"/></svg>