<svg width="56" height="56" xmlns="http://www.w3.org/2000/svg"><path fill="#104678" d="M0 0h56v56H0z"/><path d="M47.543 24.502c-2.22-6.124-8.376-6.5-9.01-6.5-2.792-.062-5.838.876-8.185 3.188-.952.812-1.587 1.812-2.348 2.874-.698-1.062-1.396-2-2.348-2.874-2.284-2.312-5.393-3.25-8.122-3.187-.634 0-6.916.375-9.073 6.499-.762 2.187-.571 5.062.57 7.186 1.143 2.438 3.872 4.375 6.727 4.187 2.094-.062 4.378-1.374 5.203-3.5.698-1.874.508-3.936-1.142-5.56.063.437.063.999-.318 1.499-.634.875-1.713 1.125-2.791.75-.952-.438-1.333-1.125-1.206-2 .063-.75.698-1.375 1.332-1.625 1.27-.562 2.412-.25 3.554.813 1.84 2.062 2.094 5.187 2.982 7.499.635 1.937 1.586 3.624 3.807 4.124.254.125.508.125.825.125.254 0 .571 0 .825-.063 2.157-.5 3.172-2.187 3.807-4.124.888-2.375 1.079-5.5 2.982-7.499 1.142-1.062 2.285-1.375 3.553-.812.635.312 1.27.875 1.333 1.625.063.875-.254 1.562-1.206 2-1.078.374-2.093.187-2.791-.75-.445-.563-.381-1.125-.318-1.5-1.65 1.624-1.84 3.687-1.142 5.561.825 2.125 3.11 3.437 5.203 3.5 2.919.187 5.647-1.75 6.726-4.187 1.142-2.187 1.333-5.062.571-7.249zm-4.378 7.374c-1.332 1.125-3.046 1.5-4.505.812-.825-.437-1.523-1.125-1.65-1.875 1.206 1.188 3.363 1.813 5.33-.312 0 0 1.84-1.687.825-4.937-.508-1.562-2.475-2.874-4.124-3.062-2.412-.375-4.76.438-6.346 2.625-1.84 2.875-2.093 6.062-3.426 9.249-.254.5-.698.75-1.205.75-.508 0-.952-.188-1.206-.75-1.333-3.187-1.586-6.374-3.49-9.25-1.586-2.124-3.934-2.936-6.345-2.561-1.65.187-3.617 1.5-4.124 3.062-1.08 3.187.76 4.874.76 4.874 1.968 2.062 4.125 1.5 5.33.313-.19.75-.824 1.5-1.649 1.874-1.396.625-3.172.313-4.505-.812-1.967-1.875-2.22-4.375-1.46-6.624.952-2.75 3.744-4.124 5.965-4.25 2.665-.25 6.282 1.375 7.741 4.062C25.398 25.69 26.16 27 26.16 27h3.68s.698-1.31 1.079-1.936c1.46-2.75 5.076-4.311 7.74-4.061 2.222.187 5.014 1.562 5.965 4.249.762 2.25.508 4.687-1.459 6.624z" fill="#C3C5C8"/></svg>