<svg width="56" height="56" xmlns="http://www.w3.org/2000/svg"><path fill="#C90921" d="M0 0h56v56H0z"/><path d="M15 28c0-6.783 5.963-12.491 13-13-11.184.505-20 6.13-20 13s8.816 12.495 20 13c-7.037-.509-13-6.217-13-13zm13.347-13c-.116 0-.23.005-.347.006 6.715.123 13 5.982 13 12.994s-6.285 12.871-13 12.994c.116.001.23.006.347.006C39.201 41 48 35.18 48 28s-8.8-13-19.653-13z" fill="#fff"/><path d="M28 38c5.523 0 10-4.477 10-10s-4.477-10-10-10-10 4.477-10 10 4.477 10 10 10z" fill="#70777A"/><path d="M22 22h12l-6 9h6v3H22l6-9h-6v-3z" fill="#fff"/></svg>