<svg xmlns="http://www.w3.org/2000/svg" width="56" height="56">
    <path fill="#BF0000" d="M0 0h56v56H0z" />
    <path d="M23.93 24.24c-2.05 3.7-4.05 8.05-5.08 10.26-.38.83-.62 1.36-.68 1.45-.24.36-.68.67-1.06.94a2.5 2.5 0 00-.78.68c-.1.2-.47.97-.94 1.63-.73 1.03-2.47 1.25-2.04-.46a82.76 82.76 0 012.78-8.72c-2.4-1.46-6.17-4.63-2.78-6.62 1.12-.66 3.29-1.06 6.2-1.4l.1-.19C21.06 19 24.1 13 27.34 13c2.15 0 6.04 5.64 7.65 8.1h-2.97c-1.29-2.02-2.41-3.28-3.08-3.28-.69 0-2.35 2.1-3.67 4.18h8.5c4.43 0 9.86.47 13.07 1.4.36.14.05.7-.69.7l-1.97-.13c-2.93-.2-5.88-.19-8.82-.18l-2.06.01c-2.85.02-9.38.44-9.38.44zm-7.37 4.74l1.15-2.33c-1.22-.15-1.84.84-1.84 1.4s.46.85.7.93z" fill="#fff" />
    <path d="M35.84 38.5c5.32 2.05 5.82-2.68 5.05-5.34a42.97 42.97 0 00-3.76-8.46H34.1c1.15 2.31 2.16 4.83 2.43 6.6.55 3.72-1.73 4.42-2.99 3.95-3.13-1.16-9.68-3.53-10.78-3.72-1.1-.18-1.15.47-.69.7 2.3 1.16 8.44 4.23 13.77 6.27z" fill="#fff" />
</svg>