<svg width="56" height="56" xmlns="http://www.w3.org/2000/svg">
    <path fill="#005197" d="M0 0h56v56H0z" />
    <path fill="#90C33B" d="M0 33h56v23H0z" />
    <path fill="#1A181A" d="M6 23h44v10H6z" />
    <path d="M39 30.126c0-.673.186-1.262.558-1.767.371-.505.884-.9 1.538-1.185.653-.297 1.403-.446 2.25-.446.41 0 .813.039 1.21.116.398.065 1.15.162 1.444.292v-.447c0-1.152-1.078-1.728-2.424-1.728-.564 0-1.096.097-1.596.291a8.816 8.816 0 00-1.557.835l-.923-1.98a7.793 7.793 0 014.384-1.32c1.512 0 3.014.368 3.847 1.106.846.725 1.269 1.78 1.269 3.165V33h-3v-1.418c-.449.583-.911 1.03-1.54 1.34a4.484 4.484 0 01-1.941.446 3.805 3.805 0 01-1.808-.427 3.354 3.354 0 01-1.25-1.145 3.084 3.084 0 01-.461-1.67zm7-.626v-.695c-.608-.233-1.477-.33-2.136-.33-.576 0-1.05.13-1.422.389-.36.259-.539.589-.539.99 0 .35.135.654.404.913.282.245.654.369 1.115.369.308 0 .615-.059.923-.175C44.739 30.81 46 29.944 46 29.5zm-39 .626c0-.673.186-1.262.558-1.767.371-.505.884-.9 1.538-1.185.653-.297 1.403-.446 2.25-.446.41 0 .813.039 1.21.116.398.065 1.15.162 1.444.292v-.447c0-1.152-1.078-1.728-2.424-1.728-.564 0-1.096.097-1.596.291a8.816 8.816 0 00-1.557.835l-.923-1.98a7.793 7.793 0 014.384-1.32c1.512 0 3.014.368 3.847 1.106.846.725 1.269 1.78 1.269 3.165V33h-3v-1.418c-.449.583-.912 1.03-1.54 1.34a4.484 4.484 0 01-1.942.446 3.806 3.806 0 01-1.807-.427 3.354 3.354 0 01-1.25-1.145A3.084 3.084 0 017 30.126zm7-.626v-.695c-.608-.233-1.477-.33-2.136-.33-.576 0-1.05.13-1.422.389-.36.259-.539.589-.539.99 0 .35.135.654.404.913.282.245.654.369 1.115.369.308 0 .615-.059.923-.175C12.739 30.81 14 29.944 14 29.5zM25.513 33l-2.46-3.903L22 30.203V33h-3V22.98h3v4.214l3.399-4.214h3.25l-3.635 4.389L28.781 33h-3.268zm8.104.368a7.687 7.687 0 01-2.538-.427c-.807-.297-1.493-.718-2.057-1.262l1.058-1.96c1.243.918 2.39 1.378 3.441 1.378.398 0 .705-.065.923-.195.218-.129.327-.33.327-.601 0-.285-.148-.486-.442-.602a11.41 11.41 0 00-1.308-.447 17.208 17.208 0 01-1.922-.757c-.513-.246-.898-.544-1.154-.893-.256-.35-.385-.816-.385-1.398 0-1.023.379-1.845 1.135-2.466.756-.635 1.782-.952 3.076-.952.692 0 1.365.11 2.019.33.666.22 1.288.59 1.865 1.107l-1.192 1.942c-.577-.401-1.09-.693-1.538-.874a3.48 3.48 0 00-1.308-.272c-.333 0-.615.065-.846.194-.23.117-.346.324-.346.622a.69.69 0 00.385.64c.256.13.654.272 1.192.428.82.246 1.506.498 2.057.757.564.246.98.556 1.25.932.282.362.423.848.423 1.456 0 1.036-.372 1.851-1.115 2.447-.744.582-1.744.873-3 .873z" fill="#fff" />
</svg>