<svg width="56" height="56" xmlns="http://www.w3.org/2000/svg"><path fill="#007AC2" d="M0 0h56v56H0z"/><path d="M29 31.926H26.73V22H29v9.926zM6.498 27.104H4.274c0-.913.294-1.516.882-1.81C5.53 25.099 6.224 25 7.235 25c1.136 0 1.925.123 2.367.368.646.353.969 1.059.969 2.118v4.44H8.375l.087-1.013h-.087C8.26 31.637 7.562 32 6.282 32 4.76 32 4 31.329 4 29.986c0-.863.23-1.466.693-1.809.385-.284 1.01-.427 1.878-.427.442 0 .774.035.996.103.347.108.587.324.722.648h.086v-1.25c0-.334-.072-.564-.216-.692-.144-.127-.39-.19-.737-.19-.317 0-.534.039-.65.117-.163.098-.255.304-.274.618zm-.289 2.705c0 .324.11.535.333.633.135.068.384.103.75.103.723 0 1.083-.25 1.083-.75 0-.245-.048-.407-.144-.485-.173-.138-.524-.206-1.054-.206-.646 0-.968.234-.968.705zM17.92 27.03h-2.079c0-.02-.01-.054-.028-.103-.079-.324-.338-.485-.78-.485h-.404c-.52 0-.8.171-.838.514 0 .412.385.637 1.155.676 1.193.069 1.901.138 2.122.207.77.255 1.156.843 1.156 1.764 0 .961-.337 1.623-1.011 1.986-.5.275-1.27.41-2.311.41-1.107 0-1.872-.1-2.295-.307-.646-.314-.968-.951-.968-1.912h2.238c0 .314.073.524.217.632.105.088.312.133.621.133h.461c.3 0 .511-.03.636-.089.183-.088.275-.26.275-.515 0-.45-.314-.676-.94-.676H14.7c-1.02 0-1.733-.102-2.137-.309-.596-.314-.895-.931-.895-1.852 0-.903.322-1.505.967-1.809.423-.197 1.141-.295 2.152-.295.905 0 1.578.08 2.021.236.752.255 1.127.75 1.127 1.485v.147c-.01.069-.015.123-.015.162M23.346 29.632h2.138c0 .99-.275 1.653-.824 1.986-.404.255-1.14.382-2.21.382-1.327 0-2.227-.23-2.7-.69-.5-.472-.75-1.374-.75-2.707 0-1.363.198-2.29.592-2.78.452-.549 1.323-.823 2.614-.823 1.193 0 2.026.196 2.498.588.52.45.78 1.28.78 2.485V29h-4.318c0 .588.057.858.173 1.044.154.265.5.397 1.04.397.327 0 .558-.049.692-.147.174-.117.266-.338.275-.662zm.03-1.985c0-.706-.342-1.059-1.026-1.059h-.116c-.443 0-.736.088-.88.265-.106.127-.159.392-.159.794h2.18zM36.281 27.03h-2.079c0-.02-.01-.054-.028-.103-.077-.324-.337-.485-.78-.485h-.405c-.52 0-.799.171-.837.514 0 .412.385.637 1.155.676 1.194.069 1.901.138 2.122.207.77.255 1.156.843 1.156 1.764 0 .961-.337 1.623-1.011 1.986-.5.275-1.27.41-2.31.41-1.107 0-1.873-.1-2.297-.307-.644-.314-.967-.951-.967-1.912h2.239c0 .314.072.524.216.632.106.088.312.133.621.133h.462c.299 0 .51-.03.636-.089.183-.088.274-.26.274-.515 0-.45-.313-.676-.94-.676h-.446c-1.021 0-1.734-.102-2.138-.309-.596-.314-.894-.931-.894-1.852 0-.903.321-1.505.967-1.809.423-.197 1.14-.295 2.151-.295.905 0 1.58.08 2.022.236.75.255 1.126.75 1.126 1.485v.147a1.378 1.378 0 00-.015.162M40.102 27.104h-2.225c0-.913.294-1.516.882-1.81.375-.196 1.068-.294 2.08-.294 1.134 0 1.925.123 2.367.368.646.353.968 1.059.968 2.118v4.44h-2.196l.088-1.013h-.088c-.115.724-.813 1.087-2.093 1.087-1.522 0-2.282-.671-2.282-2.014 0-.863.231-1.466.694-1.809.384-.284 1.01-.427 1.877-.427.442 0 .774.035.996.103.347.108.587.324.722.648h.086v-1.25c0-.334-.072-.564-.216-.692-.144-.127-.39-.19-.737-.19-.317 0-.533.039-.65.117-.163.098-.254.304-.273.618zm-.29 2.705c0 .324.111.535.333.633.135.068.385.103.75.103.723 0 1.083-.25 1.083-.75 0-.245-.047-.407-.144-.485-.173-.138-.524-.206-1.054-.206-.645 0-.967.234-.967.705zM45.56 25.06h2.107v1.263h.087c.299-.881.93-1.323 1.892-1.323 1.57 0 2.354.704 2.354 2.11V32h-2.196v-4.072c0-.783-.264-1.174-.793-1.174-.837 0-1.257.391-1.257 1.174V32H45.56v-6.94z" fill="#fff"/></svg>