<svg xmlns="http://www.w3.org/2000/svg" width="56" height="56"><path fill="url(#aejhouwyc)" d="M0 0h56v56H0z"/><path d="M14.26 16.08l-1.46 1.87-1.46 1.86a.23.23 0 01-.4-.06l-.86-2.21-.86-2.22a.24.24 0 01.25-.32l2.32.36 2.32.35a.23.23 0 01.2.2c0 .06-.02.13-.05.17zm1.03 6.43l3.42.79a.23.23 0 00.28-.18.24.24 0 000-.12l-1.03-3.38-1.03-3.39a.24.24 0 00-.2-.16.23.23 0 00-.2.07l-2.39 2.6-2.4 2.58a.24.24 0 00.13.4l3.42.79zm-6.52-4.2l.65 1.08.66 1.08c.02.03.04.08.04.12a.24.24 0 01-.23.24l-1.26.03-1.25.03a.23.23 0 01-.2-.11.24.24 0 01-.01-.24l.6-1.11.6-1.11a.24.24 0 01.17-.13.23.23 0 01.23.12zm-.2 7.56a.24.24 0 01-.32.1.24.24 0 01-.09-.08L7.1 24.27l-1.06-1.63a.24.24 0 01.07-.33.24.24 0 01.11-.04l1.93-.11 1.93-.12a.23.23 0 01.22.14.24.24 0 010 .2l-.87 1.75-.86 1.74zm8 7.98l-.84-1.7a.25.25 0 00-.23-.15h-4.55c-.1 0-.19.06-.23.15l-.8 1.7a.26.26 0 01-.22.15H8.25c-.03 0-.07 0-.1-.02a.26.26 0 01-.13-.15.26.26 0 010-.2l4.16-9.48c.04-.09.13-.15.23-.15h1.68c.1 0 .2.06.23.15l4.16 9.49.02.1c0 .07-.03.14-.07.18a.25.25 0 01-.18.08h-1.46c-.1 0-.19-.06-.23-.15zm-1.64-3.72l-1.45-3.49a.26.26 0 00-.23-.15c-.1 0-.2.06-.23.15l-1.4 3.49c-.07.16.05.37.22.37h2.86c.18 0 .3-.2.23-.37zM29.88 24h1.17c.07 0 .13.04.18.09.04.04.07.1.07.17v9.5c0 .13-.12.24-.25.24h-1.09a.25.25 0 01-.24-.21v-.08c-.02-.15-.03-.36-.18-.42a.25.25 0 00-.25.05c-.5.49-1.17.66-1.82.66-1.98 0-3.47-1.31-3.47-3.52 0-2.32 1.6-3.48 3.43-3.48.53 0 1.3.17 1.8.58a.25.25 0 00.4-.2v-3.12c0-.06.03-.13.08-.17.05-.05.1-.09.17-.09zm-.36 6.48c0-1.18-.97-1.98-2.02-1.98-1.06 0-2 .76-2 1.98a2 2 0 002 2.02 2 2 0 002.02-2.02zm9.22.62c.13 0 .24-.1.25-.23.16-2.58-1.23-3.87-3.42-3.87C33.4 27 32 28.45 32 30.47c0 2.12 1.38 3.53 3.7 3.53.93 0 1.98-.3 2.7-.9.1-.08.1-.24.02-.34l-.01-.01-.72-.7a.26.26 0 00-.33-.02c-.42.3-1.1.47-1.64.47-1 0-1.75-.43-2-1.08-.06-.17.08-.32.24-.32h4.78zm-4.78-1.36c-.17 0-.3-.2-.22-.35.33-.63.95-.89 1.89-.89.83 0 1.45.27 1.67.92.06.15-.07.32-.23.32h-3.11zM45.52 34c.12 0 .23-.12.23-.25v-3.43c0-.9.46-1.82 1.46-1.82.9 0 1.29.88 1.29 1.8v3.45c0 .13.08.25.2.25h1.07c.12 0 .23-.12.23-.25v-3.46c0-2.06-.9-3.26-2.7-3.26-.74 0-1.4.21-1.93.93-.1.12-.3.11-.38-.02a1.9 1.9 0 00-1.72-.94c-.46 0-1 .14-1.38.51a.23.23 0 01-.23.06c-.1-.04-.15-.25-.16-.36-.02-.11-.12-.21-.24-.21h-1.03c-.12 0-.23.12-.23.25v6.5c0 .06.03.13.07.17.04.05.1.08.16.08h1.07c.13 0 .2-.12.2-.25v-3.43c0-.9.47-1.82 1.44-1.82s1.32.91 1.32 1.82v3.43c0 .13.11.25.24.25h1.02zm-21.76-7h-1.28c-.05 0-.1.02-.14.05a.25.25 0 00-.09.11l-1.14 2.93-.45 1.27a.26.26 0 01-.09.12.23.23 0 01-.28 0 .26.26 0 01-.09-.13l-.4-1.3-.96-2.88a.26.26 0 00-.09-.12.23.23 0 00-.14-.05h-1.37a.23.23 0 00-.17.08.27.27 0 00-.05.28l2.47 6.48a.27.27 0 010 .2l-1.05 2.6a.27.27 0 000 .2c.02.06.07.11.13.14l.09.02h1.27c.05 0 .1-.01.13-.04a.26.26 0 00.1-.12l3.82-9.48a.27.27 0 00-.02-.24.25.25 0 00-.09-.09.23.23 0 00-.11-.03z" fill="#fff"/><defs><linearGradient id="aejhouwyc" x1="4.17" y1="42.97" x2="51.56" y2="13.45" gradientUnits="userSpaceOnUse"><stop stop-color="#E96524"/><stop offset=".52" stop-color="#CC1E66"/><stop offset="1" stop-color="#9B3686"/></linearGradient></defs></svg>