<svg width="56" height="56" xmlns="http://www.w3.org/2000/svg"><path fill="url(#paint0_linear)" d="M0 0h56v56H0z"/><path d="M12.822 18h11.304l2.23 3.314L28.617 18h14.56C46.393 18 49 20.614 49 23.838v8.324C49 35.386 46.393 38 43.177 38H12.822C9.606 38 7 35.386 7 32.162v-8.324C7 20.614 9.607 18 12.822 18z" fill="#ED1B29"/><path d="M45 34l-.968-12h-3.617L38.2 27.698 35.907 22H32.4L31 34h3.642l.604-6.75L38.201 34l3.072-6.773.254 6.773H45zm-17 0V22h-4v12h4z" fill="#fff"/><path fill-rule="evenodd" d="M19.306 28.212c.867-.734 1.44-1.696 1.388-2.769-.07-1.485-.867-2.64-2.264-3.17-.754-.294-2.033-.281-3.418-.267l-.106.001c-1.097.011-1.876.008-2.664.004-.398-.002-.798-.004-1.242-.004V34h4.153c3.68 0 5.803-.878 5.846-3.087.025-1.25-.71-2.121-1.693-2.701zm-2.783-1.656c.64 0 1.158-.571 1.158-1.275s-.474-1.275-1.158-1.275h-1.518v2.55h1.518zm-.046 4.942c.653.038 1.525-.25 1.532-.975-.04-.818-.835-1.058-1.486-1.016h-1.518v1.991h1.472z" fill="#fff"/><defs><linearGradient id="paint0_linear" x1="10.418" y1="9.712" x2="68.147" y2="76.017" gradientUnits="userSpaceOnUse"><stop stop-color="#1A1E21"/><stop offset="1" stop-color="#06060A"/></linearGradient></defs></svg>