<svg xmlns="http://www.w3.org/2000/svg" width="56" height="56" viewBox="0 0 56 56"><path fill="#F0F3FA" d="M0 0h56v56H0z"/><path d="M24.06 23.82a7.73 7.73 0 0 0-6.66-3.7c-4.23 0-7.67 3.3-7.67 7.35a7.1 7.1 0 0 0 1.2 3.96 7.34 7.34 0 0 1-2.15-5.18c0-4.15 3.52-7.52 7.85-7.52a7.83 7.83 0 0 1 7.43 5.1z" fill="#97BD1B"/><path d="M12.6 24.64a6.87 6.87 0 0 0-.01 7.15 7.6 7.6 0 0 0 10.15 2.6 7.23 7.23 0 0 0 2.87-2.87 7.32 7.32 0 0 1-3.48 4.23 7.78 7.78 0 0 1-10.39-2.67 7.06 7.06 0 0 1 .86-8.44z" fill="#028436"/><path d="M16.27 17a10.52 10.52 0 0 0-7.95 7.35c-1.53 5.48 1.86 11.11 7.57 12.58 2.19.56 4.4.43 6.38-.25a11.34 11.34 0 0 1-8.14.96c-5.85-1.5-9.32-7.26-7.75-12.87A10.87 10.87 0 0 1 16.27 17z" fill="#36A8DF"/><path fill-rule="evenodd" d="M13.01 24h2.55c1.01 0 1.84.76 1.84 1.7v.07c0 .74-.52 1.38-1.25 1.6.87.14 1.54.84 1.54 1.68v.25c0 .94-.82 1.7-1.84 1.7h-2.84v-7zm.36.22h2.15c.89 0 1.6.67 1.6 1.51s-.71 1.52-1.6 1.52h-2.15v-3.03zm0 3.4h2.4c.87 0 1.57.65 1.57 1.45v.21c0 .8-.7 1.45-1.56 1.45h-2.42v-3.1zm5.87-2.2c.2 0 .37-.15.37-.34 0-.2-.17-.36-.37-.36-.2 0-.37.16-.37.36 0 .2.17.35.37.35zm.13.58H19v5h.37v-5zm3.9 5c1.25 0 2.26-1.12 2.26-2.5S24.52 26 23.26 26C22.01 26 21 27.12 21 28.5s1.01 2.5 2.26 2.5zm0-.23c1.06 0 1.92-1.02 1.92-2.27s-.86-2.27-1.92-2.27c-1.07 0-1.93 1.02-1.93 2.27s.86 2.27 1.93 2.27zM27 26h-1.57v.5H27V31h1v-4.5h1.62V26H27zm4 0h1.36c.85 0 1.53.63 1.53 1.41 0 .57-.37 1.07-.9 1.29L34 31h-1.02l-.96-2.18H31V31h-1v-5h1zm0 2.24v-1.65h1.13a.8.8 0 0 1 .79.82.8.8 0 0 1-.79.83H31zM36 26h-1v5h3v-.56h-2v-1.86h1.78v-.55H36v-1.47h2V26h-2zm9 0h2.03a2.49 2.49 0 0 1 2.47 2.5c0 1.38-1.1 2.5-2.47 2.5H45v-5zm1 .64h1c.85 0 1.54.83 1.54 1.86 0 1.03-.7 1.86-1.55 1.86H46v-3.72zM39 26h1.02L43 29.72V26h1v5h-1.02L40 27.25V31h-1v-5z" fill="#42889F"/></svg>