<svg width="18" height="18" fill="none" xmlns="http://www.w3.org/2000/svg"><path fill="#318FA5" d="M0 0h18v18H0z"/><path fill-rule="evenodd" clip-rule="evenodd" d="M5.29 9H3.5V5h1.76C6.022 5 6.5 5.442 6.5 6.037v.005c0 .424-.336.785-.782.841V6.9c.564.04.97.42.97.927v.005C6.69 8.51 6.154 9 5.291 9zm.379-2.848c0-.308-.233-.485-.628-.485h-.695v1.016h.592c.476 0 .731-.19.731-.526v-.005zm.157 1.624c0-.354-.27-.544-.787-.544h-.693V8.33h.729c.485 0 .751-.19.751-.549v-.005zM7.788 9h-.846V5h.846v4zm1.92 0c1.02 0 1.63-.472 1.63-1.214v-.002c0-.609-.38-.938-1.227-1.099l-.429-.083c-.465-.088-.672-.23-.672-.474v-.003c0-.276.26-.466.695-.469.418 0 .709.185.75.488l.004.032h.798l-.002-.05C11.215 5.446 10.64 5 9.705 5c-.897 0-1.541.466-1.541 1.173v.003c0 .582.403.946 1.202 1.099l.426.08c.501.1.7.23.7.493v.003c0 .294-.294.49-.762.49-.462 0-.796-.188-.849-.488l-.006-.03h-.798l.003.044C8.127 8.579 8.746 9 9.708 9zm3.62 0h-.846V5.734h-1.168V5H14.5v.734h-1.171V9zm-4.797 5.057c.941 0 1.512-.769 1.512-1.999v-.005c0-1.23-.571-1.996-1.512-1.996-.942 0-1.513.766-1.513 1.996v.005c0 1.23.571 1.999 1.513 1.999zm0-.649c-.463 0-.728-.5-.728-1.35v-.005c0-.85.265-1.348.728-1.348.463 0 .727.499.727 1.348v.005c0 .85-.264 1.35-.727 1.35zm-3.069.582h.77v-3.866h-.773l-.959.694v.718l.947-.67h.015v3.124zm8.038-1.932c0 1.23-.571 1.999-1.512 1.999-.942 0-1.513-.769-1.513-1.999v-.005c0-1.23.571-1.996 1.513-1.996.941 0 1.512.766 1.512 1.996v.005zm-2.24 0c0 .85.265 1.35.728 1.35.463 0 .728-.5.728-1.35v-.005c0-.85-.265-1.348-.728-1.348-.463 0-.728.499-.728 1.348v.005z" fill="#fff"/></svg>