<svg xmlns="http://www.w3.org/2000/svg" width="56" height="56"><path fill="#F0F3FA" d="M0 0h56v56H0z"/><path d="M6 26h2v7H6v-7zm5.5 0H8v1.5h2.75a.75.75 0 010 1.5H8v1h3.5a2 2 0 100-4z"/><path d="M11.5 29H8v1h2.75a.75.75 0 010 1.5H8V33h3.5a2 2 0 100-4zM24 26h2v7h-2zm0-3h2v2h-2z"/><path fill-rule="evenodd" d="M15 26v7h2v-3h2.5c.55 0 1 .95 1 1.5V33h2v-1.5a2 2 0 00-1.03-1.75A2 2 0 0020.5 26H15zm2 1.5V29h2.75a.75.75 0 000-1.5H17z"/><path d="M50.45 29.5a6 6 0 01-6 6 6 6 0 01-6-6 6 6 0 016-6 6 6 0 016 6z" fill="#001689"/><path d="M39 29.5a6 6 0 01-6 6 6 6 0 01-6-6 6 6 0 016-6 6 6 0 016 6z" fill="#001689"/><path d="M29.26 26.95c.3-.57.84-.95 1.47-.95h4.55c.92 0 1.67.97 1.7 2h-2.05c-.1-.26-.28-.5-.5-.5h-2.84c-.32 0-.57.4-.57.75 0 .4.25.75.57.75h3.97c1.7 0 1.42 2.09 1.42 2.09 0 1.05-.76 1.91-1.7 1.91h-4.55c-.92 0-1.67-.97-1.7-2h2.05c.1.26.28.5.5.5h2.85c.3 0 .56-.4.56-.75s-.25-.75-.57-.75h-4.04c-.9 0-1.22-.53-1.32-1.14-.1-.6-.08-1.37.2-1.9z" fill="#fff"/><path fill-rule="evenodd" d="M43.22 26L40 33h2.2l.9-2h2.8l.85 2H49l-3.27-7h-2.51zm.2 4h2.12l-1.04-2.65L43.4 30z" fill="#fff"/></svg>