<svg xmlns="http://www.w3.org/2000/svg" width="56" height="56"><path fill="#003586" d="M0 0h56v56H0z"/><path fill-rule="evenodd" d="M17.62 40.48l-.74-1.04.9-.7-.5-.88-1.09.32-.5-1.2 1.07-.5-.34-1.03-1.08.16-.17-1.2 1.08-.17-.17-1.2-1.08-.16v-1.2h1.08l.34-1.05-1.08-.33.17-1.2 1.25.33.52-1.2-1.09-.5.52-1.04 1.08.5.74-1.05-.91-.7.9-1.05 1.77 1.37c-.74.5-3.24 3.61-3.24 6.9 0 3.6 1.99 6.02 2.16 6.35l-1.6 1.47zM27.8 30.8l-7-4.66c-.74.5-3.01 3.45-3.01 6.74 0 3.28 1.99 5.52 2.16 5.85l1.25-1.04c-.51-.71-1.76-2.73-1.76-4.81a7.9 7.9 0 011.76-4.5l6.26 4.11c.51.33 1.25.33 1.42-.33.17-.49.17-1.36 0-1.91-.17.33-.34.5-.51.71-.23.05-.4.05-.57-.16zm10.58 9.68l.74-1.04-.9-.7.5-.88 1.09.32.5-1.2-1.07-.5.34-1.03 1.08.16.17-1.2-1.08-.17.17-1.2 1.08-.16v-1.2h-1.02l-.35-1.05 1.09-.33-.18-1.2-1.25.33-.5-1.2 1.07-.5-.51-1.04-1.08.5-.74-1.05.91-.7-.91-1.05-1.76 1.37c.74.5 3.24 3.61 3.24 6.9 0 3.6-2 6.02-2.16 6.35l1.53 1.47zM22 34h2v5h7v2h-7v2h-2v-9zm3-2.66l2 1.37V37h2.5c-.33.33-1.41 1.01-2.32 1.01H25v-6.66zM28 34h6v2h-6v-2zm3.56-5.4l3.58-2.4c.74.5 3.02 3.45 3.02 6.73 0 3.28-2 5.53-2.17 5.86l-1.25-1.04c.51-.72 1.77-2.74 1.77-4.82a7.9 7.9 0 00-1.77-4.49l-2.84 1.92c0-.17 0-.33-.17-.88 0-.38-.17-.7-.17-.87zM27.5 14.53c.12.22 1.49 1.83 1.49 5.11 0 3.45-.94 5.7-1.1 5.7-.18.16-.45.16-.9 0v-10.6c0-.38.31-.38.51-.21zM25 10c1.76.88 6 4.49 6 9.63 0 3.45-1.26 5.15-1.66 5.7-.17.16-.17.32 0 .49.5.32 1.99 2.08 1.99 4.98 0 1.04-.39 1.91-.51 2.2h-1.77c.34-.71.34-1.33.34-2.2 0-2.9-.99-4.5-1.5-4.98-.17-.17-.89-.17-.89 0v3.77l-2-1.37V10z" fill="#fff"/></svg>