<svg xmlns="http://www.w3.org/2000/svg" width="56" height="56"><path fill="#F0F3FA" d="M0 0h56v56H0z"/><path d="M30 28c0-2.75 2.17-5 4.87-5a4.9 4.9 0 014.63 3.42c.63-1.99 2.46-3.42 4.63-3.42A4.94 4.94 0 0149 28c0 2.75-2.17 5-4.87 5a4.9 4.9 0 01-4.63-3.42A4.86 4.86 0 0134.87 33 4.94 4.94 0 0130 28z" fill="#001689"/><path d="M38 29.13c0-.63-.1-1.05-.3-1.33-.23-.32-.53-.42-1.24-.47-.39-.03-.67-.03-.77-.03h-1.36c-.47 0-.5-.02-.59-.02-.22-.05-.32-.23-.32-.48 0-.32.12-.45.48-.5.23-.02.88-.05 1.32-.05 1 0 1.14.23 1.14.75h1.44c0-1.02-.17-1.57-.65-1.8-.37-.17-.75-.2-2.15-.2-.93 0-1.34.03-1.8.1-.9.15-1.2.63-1.2 1.8 0 .93.2 1.4.7 1.6.25.1.68.15 1.37.15h1.33c.61 0 .63 0 .73.03.3.02.45.2.45.5 0 .52-.18.57-1.9.57a4 4 0 01-.92-.07c-.22-.08-.26-.23-.28-.68H32v.4c0 .85.26 1.28.81 1.45.34.13.85.15 1.93.15 1.03 0 1.44-.02 2.02-.1.9-.1 1.24-.57 1.24-1.77zM47.67 31l-2.52-6h-1.87l-2.59 6h1.6l.42-1h3l.45 1h1.51z" fill="#fff"/><path d="M45.2 28.55h-1.98l1-2.27.98 2.27z" fill="#001689"/><path d="M12.43 25c1.63 0 1.9 1.45 1.81 2.14h-1.62c0-.49-.5-.68-.74-.72H9.63a.87.87 0 00-.88.72c0 .09-.06.82 0 1.6.05.8.81.8.88.8h2.25c.61-.01.75-.54.74-.8h1.62c.31 1.85-1.08 2.28-1.81 2.26H9.15c-1.78.02-2.17-1.33-2.14-2v-2.16C7 25.39 8.36 25 9.15 25h3.28zm-2.68 6.5h1.79v.97H9.75zm6.4-7.84h1v1h-1zM15.88 25h1.5v6h-1.5v-6zM19 25v6h1.5v-4.57L23.24 31h1.54l2.72-4.57V31H29v-6h-2.48L24 29.25 21.58 25H19z"/></svg>