<svg width="56" height="56" xmlns="http://www.w3.org/2000/svg"><path fill="#16509F" d="M0 0h56v56H0z"/><path d="M8 16s6.89 12.23 19.78 12.416c14.43.209 20.62-12.043 20.62-12.043s-6.516 7.595-15.173 9.217c-5.281.988-9.217.094-10.1-.094-.884-.185-3.97-1.17-5.959-2.222C12.608 20.864 8 16 8 16z" fill="#F79A33"/><path d="M12.138 29.5l-1.652 5.324s4.236.033 4.926-2.59c.335-1.275-.335-2.09-1.226-2.464-.67-.282-1.464-.27-2.048-.27zm-1.347-1.204c1.017-.035 2.342-.01 3.524.354 1.672.515 3.058 1.62 2.879 3.418-.145 1.453-.972 2.628-2.912 3.407-1.788.719-5.903.483-5.903.483l2.412-7.662zM30.417 32l-1.48.006c-1.135-.05-2.984 1.018-2.596 2.344.216.74.77 1.116 1.76.989.994-.128 1.42-.983 1.548-1.216.128-.23.768-2.123.768-2.123zm2.083-1l-.804 2.56s-.512 1.967-1.127 3.067c-.616 1.1-1.514 1.901-3.363 2.123-1.852.218-3.305-.652-3.305-.652l.442-.916s1.279.776 2.863.455c1.58-.328 1.99-1.934 1.99-1.934s-.129.115-.488.254c-1.496.563-4.23.074-4.121-1.983.114-2.154 2.424-3.031 4.307-2.974H32.5zm5.51 1h-1.791s-.82 0-1.491.447c-1.331.885-1.064 3.242.876 2.745.644-.165 1.288-.602 1.58-1.208.14-.288.826-1.984.826-1.984zm2.129-1L38.5 36h-1.852l.198-.649s-.965.813-1.989.788c-2.82-.066-3.72-3.324-.99-4.631.874-.415 1.499-.487 2.245-.508.652-.021 4.027 0 4.027 0zm.924 0l-1.392 4.976h1.79L42.669 32h1.605c.912.007 1.307.757 1.094 1.57-.058.231-.658 2.43-.658 2.43h1.79l.613-2.244s.326-1.04-.103-1.668c-.641-.942-1.823-1.061-2.876-1.088h-3.07z" fill="#FEFEFE"/><path d="M24.046 33.017c.29 1.5-1.012 3.014-2.91 3.381-1.898.368-3.672-.55-3.962-2.05-.29-1.501 1.012-3.015 2.91-3.383 1.898-.367 3.672.551 3.962 2.052zm-2.45 1.789c.849-.706 1.108-1.795.578-2.432-.53-.637-1.648-.58-2.497.126-.85.706-1.108 1.795-.578 2.432.53.637 1.648.58 2.497-.126z" fill="#fff"/></svg>