<svg width="56" height="56" xmlns="http://www.w3.org/2000/svg"><path fill="#F0F3FA" d="M0 0h56v56H0z"/><path d="M28.145 30.929c-2.546.364 1.455 1.819 1.455 2.182-3.031.485-8.439-.654-7.275-4.728 1.164-4.074 6.807-2.755 11.638-4.365 3.274-1.091 6.183-5.346 1.455-6.547-3.162-.804-6.153-.237-8.73 1.055-8.002 3.673-11.62 13.67-3.273 18.223 6.183 2.91 11.003.352 11.64-.073.873-.582-1.092-2.11-3.273-2.837 2.546-1.091 8.73.727 8.002 4.364-1.455 5.093-10.912 6.547-15.64 5.456-6.11-1.522-10.228-6.023-10.913-10.548-1.746-11.518 4.636-16.16 9.456-18.914 5.093-2.91 19.956-4.544 20.37 5.82.364 9.093-10.532 10.286-14.912 10.912z" fill="url(#paint0_linear)"/><path d="M28.144 30.929c-2.546.364 1.455 1.819 1.455 2.182-3.03.485-8.438-.654-7.274-4.728 1.163-4.074 6.807-2.755 11.637-4.365 3.274-1.091 6.184-5.346 1.455-6.547-3.162-.804-6.152-.237-8.73 1.055-8.001 3.673-11.62 13.67-3.273 18.223 6.184 2.91 11.003.352 11.641-.073.873-.582-1.093-2.11-3.273-2.837 2.546-1.091 8.729.727 8.001 4.364-1.456 2.546-7.275 4.001-12.004 2.91-5.663-.708-9.863-5.792-9.84-11.275.032-7.588 4.661-12.877 11.66-14.94 6.228-1.834 13.208-1.145 13.458 5.119.364 9.093-10.532 10.286-14.913 10.912z" fill="url(#paint1_linear)"/><path d="M35.054 34.202c1.455.728 1.09 1.455 1.09 1.455.001.1-.166.297-.465.573l-.537.384a.292.292 0 01-.087.062l.087-.062c.13-.135.134-.383.077-.523-.104-.26-.374-.559-.754-.86a7.63 7.63 0 00-1.118-.718 10.203 10.203 0 00-1.565-.674c1.09-.364 2.476-.035 3.272.363z" fill="#804116"/><path d="M24.468 17.381c-1.355.861-2.34 1.716-2.783 2.336l-.178-.127c.467-.654 1.482-1.527 2.844-2.393a23.403 23.403 0 014.985-2.376c1.942-.655 4.07-1.072 6.18-1.001.864.029 1.726.14 2.57.351 1.626.406 3.517 1.308 4.206 2.936-1.833-2.81-5.773-3.317-8.84-2.99a19.069 19.069 0 00-4.046.911 23.186 23.186 0 00-4.938 2.353z" fill="url(#paint2_linear)"/><path d="M21.447 37.763c-3.288-3.332-4.282-8.47-2.658-12.98l-.205-.075c-1.65 4.584-.643 9.812 2.707 13.208 2.373 2.405 5.91 3.883 10.49 3.574a21.42 21.42 0 004.046-.687c1.443-.383 2.397-.803 3.41-1.872-1.273 1.091-1.945 1.242-3.228 1.596a21.622 21.622 0 01-3.975.725c-4.656.383-8.221-1.09-10.587-3.489z" fill="url(#paint3_linear)"/><defs><linearGradient id="paint0_linear" x1="34.327" y1="12.015" x2="25.597" y2="44.023" gradientUnits="userSpaceOnUse"><stop stop-color="#6D3810"/><stop offset=".109" stop-color="#B25717"/><stop offset=".222" stop-color="#F7905F"/><stop offset=".342" stop-color="#FD9"/><stop offset=".46" stop-color="#FFE5AF"/><stop offset=".574" stop-color="#FFF1D7"/><stop offset=".682" stop-color="#FDCBB5"/><stop offset=".819" stop-color="#FAA47D"/><stop offset=".909" stop-color="#EE8655"/><stop offset="1" stop-color="#723A10"/></linearGradient><linearGradient id="paint1_linear" x1="23.778" y1="17.471" x2="39.419" y2="38.567" gradientUnits="userSpaceOnUse"><stop stop-color="#EB7E52"/><stop offset=".22" stop-color="#B45917"/><stop offset=".422" stop-color="#FFDC96"/><stop offset=".524" stop-color="#FEC88B"/><stop offset=".602" stop-color="#FAAD7A"/><stop offset=".691" stop-color="#F7996C"/><stop offset=".786" stop-color="#F5835D"/><stop offset="1" stop-color="#773C10"/></linearGradient><linearGradient id="paint2_linear" x1="31.417" y1="13.939" x2="31.417" y2="17.835" gradientUnits="userSpaceOnUse"><stop stop-color="#FEF5EC"/><stop offset="1" stop-color="#FED99A"/></linearGradient><linearGradient id="paint3_linear" x1="27.779" y1="41.071" x2="27.779" y2="34.566" gradientUnits="userSpaceOnUse"><stop stop-color="#FEF5EC"/><stop offset="1" stop-color="#FED99A"/></linearGradient></defs></svg>