<svg xmlns="http://www.w3.org/2000/svg" width="56" height="56"><path fill="#0D589C" d="M0 0h56v56H0z"/><path d="M31.42 32a14 14 0 11.26-7h-9.43a8.5 8.5 0 100 7h9.17z" fill="#fff"/><path d="M12 26h4v1h-2.5v1H16v1h-2.5v1H16v1h-4v-5z" fill="#fff"/><path fill-rule="evenodd" d="M17.5 26h2.92c.5.01 1.53.3 1.58 1.39-.02.32-.21 1.03-.88 1.29.3.08.73.42.73 1.16 0 .73.09.86.15.96v.2h-1.46a1.13 1.13 0 01-.12-.48v-.68c0-.19-.1-.83-.58-.84H19v2h-1.5v-5zm1.5 1h1.12c.14 0 .38.13.38.51s-.24.49-.38.49H19v-1zm7.39-1h-3.11v5h3.1c1.31 0 1.62-.87 1.62-1.46 0-.88-.8-1.2-.84-1.2.54-.33.63-.86.62-1.08-.03-1.02-.87-1.26-1.4-1.26zm-.5 1h-1.11v1h1.11c.14 0 .39-.1.39-.49 0-.38-.24-.51-.39-.51zm-1.11 2h1.26c.16 0 .43.13.43.51s-.28.49-.43.49h-1.26v-1zm6.72-3a2.5 2.5 0 000 5h1a2.5 2.5 0 000-5h-1zm.5 1a1.5 1.5 0 100 3 1.5 1.5 0 000-3z" fill="#fff"/><path d="M38.02 26c1.6 0 2.1.98 2.16 1.47H38.6c-.1-.31-.43-.42-.58-.44-.25-.02-.73.02-.71.34.01.32.63.45.94.48 1.56.2 2.02.95 2.05 1.3.06.62-.12 1.83-2.17 1.85-2.04.02-2.51-1.05-2.49-1.59h1.57c.09.42.57.5.8.49.22 0 .64-.06.64-.33 0-.33-.43-.43-1.55-.67-1.11-.24-1.45-.84-1.46-1.36-.01-.52.37-1.54 2.38-1.54zm2.64 5l1.98-5h1.74l1.96 5h-1.73l-.35-1H42.8l-.4 1h-1.75zm2.86-3.54L43 29h1l-.48-1.54zM48.5 26H47v5h1.5v-2.88l2 2.88H52v-5h-1.5v2.85l-2-2.85z" fill="#fff"/></svg>