<svg width="56" height="56" xmlns="http://www.w3.org/2000/svg"><path fill="#ED1C2E" d="M0 0h56v56H0z"/><path d="M28.003 17C16.987 17 8 21.974 8 28.07c0 2.024.876 3.214 2.545 4.823 3.257 3.14 10.644 3.566 14.843 3.073 2.317-.272 5.695-1.227 7.312-1.863 1.618-.635 2.012-.904 2.012-.904s-2.977.858-5.906 1.13c-2.929.273-6.154.7-8.777.2-2.623-.5-3.896-1.243-5.076-2.195-1.18-.953-2.248-2.08-2.204-4.258 0-4.769 7.01-9.07 15.39-8.934 8.378.136 15.253 4.212 15.17 8.98-.153 8.792-15.021 10.592-21.449 9.667-3.54-.635-7.64-1.95-7.64-1.95 3.463 2.065 8.002 3.187 13.166 3.16C38.401 38.944 48 34.227 48 28.07 48 21.913 39.02 17 28.003 17zm-.058 3c-1.283 0-2.32 1.062-2.32 2.375s1.037 2.381 2.32 2.381c1.284 0 2.326-1.068 2.326-2.381 0-1.313-1.042-2.375-2.326-2.375zM28 29c-1.284 0-2.32 1.062-2.32 2.375s1.036 2.382 2.32 2.382c1.284 0 2.326-1.069 2.326-2.382C30.326 30.062 29.284 29 28 29z" fill="#fff"/></svg>