<svg xmlns="http://www.w3.org/2000/svg" width="56" height="56"><path fill="#F6A704" d="M0 0h56v56H0z"/><path fill-rule="evenodd" d="M41.1 21.3c-.88-.3-2.62-.99-3.38-1.3l2.2 1.5-1.83 1.44a11.25 11.25 0 009.54 0l-1.82-1.45L48 20c-.76.31-2.5 1-3.37 1.3l1.18 1.3h-.06a10.97 10.97 0 01-5.83 0l1.17-1.3zM35.84 31a3.15 3.15 0 100-6.3 3.15 3.15 0 000 6.3zm0-1.21a1.94 1.94 0 100-3.89 1.94 1.94 0 000 3.89zm-22-3.4a2.3 2.3 0 00-2.2-1.54c-.77 0-1.34.28-1.7.68-.35.37-.49.83-.48 1.18.01.24.05.7.47 1.12.38.38 1 .66 1.96.85.15.05.38.15.56.29.18.14.22.26.22.33 0 .15-.06.26-.24.36-.2.12-.48.18-.72.19-.19 0-.49-.06-.74-.2-.26-.16-.38-.32-.4-.47l-1.28.23c.12.66.58 1.1 1.03 1.36.45.26.98.39 1.42.38.4 0 .9-.1 1.35-.36.47-.28.88-.76.88-1.5 0-.63-.38-1.08-.73-1.35a3.1 3.1 0 00-1.07-.52c-.87-.18-1.2-.4-1.32-.51-.08-.08-.08-.12-.09-.24l.02-.09a.54.54 0 01.11-.17c.1-.1.3-.25.76-.26.58 0 .86.4.97.7l1.22-.47zm2.22-1.4h-1.3v6h4.5v-1.3h-3.2v-1.04h3.2v-1.3h-3.2V26.3h3.2V25h-3.2zM5.3 25H4v6h4.5v-1.3H5.3v-1.05h3.2v-1.3H5.3V26.3h3.2V25H5.3zm15.2 0v6h1.3v-3.63L25.13 31H26v-6h-1.2v3.73L21.38 25h-.88zm7.35 0H27v6h3.24a1.76 1.76 0 00.9-3.28A1.6 1.6 0 0029.97 25h-2.13zm1.99 5H28.3v-1.8h1.57a.9.9 0 01-.03 1.8zm-1.54-2.64V26h1.4a.68.68 0 010 1.36h-1.4zm17.7.49a3.15 3.15 0 11-.3-1.33l-1.15.4a1.94 1.94 0 10.14 1.54h-1.1v-1.05h2.38l.03.44zM45.5 31l2.8-6h.83L52 31h-1.44l-.48-1h-2.66l-.5 1H45.5zm2.48-2.3h1.53l-.75-1.76-.78 1.76z" fill="#fff"/></svg>