<svg xmlns="http://www.w3.org/2000/svg" width="56" height="56" viewBox="0 0 56 56"><path fill="#F0F3FA" d="M0 0h56v56H0z"/><path d="M12.05 23.42H7.89v-.4h4.16v.4zM12.3 25H9.28v-.4h3v.4zM12.4 27.93H9.43l.2-.4h2.77v.4zM11.1 29.62H8.32v-.39h2.76v.4zM11.2 33.39H8.44v-.4h2.76v.4zM12.12 35.03H9.37v-.4h2.75v.4z" fill="#9F9FA1"/><path d="M9.72 20l1 .65-2.38 2.25c-.23.5-.07.96 2.13 2.25 2.21 1.29 2.77 2.42 2.78 2.82 0 2.36-2.67 2.89-4.2 4.39-1.23 1.2 1.43 3.6 2.91 4.64-.8-.35-4.61-2.97-4.77-4-.12-.83 1.5-2.15 2.32-2.7.7-.47 2.21-1.6 2.56-2.33.34-.72-.3-1.34-.68-1.56-.96-.51-3.08-1.81-3.9-2.87-.83-1.06 1.14-2.8 2.23-3.54z" fill="#23A34D"/><path d="M8.5 21.68l.92-.9c3.6 2.51 4.1 3.17 4.1 3.72-.5 2.7-3.78 2.8-4.87 4.03-1.1 1.24 2.52 3 4.13 4.6 1.3 1.3-.11 2.6-.97 3.01 1.42-2.58-3.16-3.75-4.53-5.66-1.36-1.9 2.25-2.7 4.82-4.28 1.1-1.2-1.94-3.52-3.6-4.52z" fill="#0C64B0"/><path d="M15 26.19v5.02A4.67 4.67 0 0 0 19.53 36h.94c2.5 0 4.53-2.14 4.53-4.79V28h-4.98v2H23v1.18c0 1.54-1.43 2.82-2.89 2.82h-.46C18.18 34 17 32.72 17 31.18v-4.86c0-1.68 1.29-3.32 2.88-3.32h.8c1.14 0 2.32 1.29 2.32 2.5h2c0-2.48-1.9-4.5-4.24-4.5h-.85A5.06 5.06 0 0 0 15 26.19zm22 .07V30h-6v-2h4v-1.53c0-1.72-.96-3.47-3-3.47s-3 1.75-3 3.47v4.37c0 1.71 1.43 3.16 3 3.16 1.2 0 2.54-.5 2.84-2.2l2.07.95A4.22 4.22 0 0 1 32.92 36h-1.85C28.82 36 27 34 27 31.55v-5.29c0-2.9 2.16-5.26 4.81-5.26h.38c2.65 0 4.81 2.36 4.81 5.26zM39 36V25.85c0-2.68 1.97-4.85 4.4-4.85h1.2c2.43 0 4.4 2.17 4.4 4.85V36h-2v-9.72c0-1.76-1.4-3.28-3-3.28s-3 1.52-3 3.28V36h-2z" fill="#1064B0"/></svg>