<svg width="56" height="56" xmlns="http://www.w3.org/2000/svg"><path fill="#F0F3FA" d="M0 0h56v56H0z"/><path d="M27 43.999c-8.376-.546-15-7.493-15-15.982C12 19.17 19.192 12 28.064 12c8.187 0 14.943 6.106 15.938 14h-4.243c-.96-5.574-5.83-9.815-11.695-9.815-6.554 0-11.867 5.297-11.867 11.832 0 6.177 4.748 11.249 10.803 11.785v4.197z" fill="#656366"/><path fill="#E60D2D" d="M29.004 28H44v4H29.004z"/><path fill="#338B25" d="M29.004 34H44v4H29.004z"/><path fill="#0077B8" d="M29.004 40H44v4H29.004z"/></svg>