<svg width="56" height="56" xmlns="http://www.w3.org/2000/svg"><path fill="url(#paint0_linear)" d="M0 0h56v56H0z"/><path d="M7 23c1.067.074 1.778.878 2 1.27l-.784.525c-.424-.591-.987-.785-1.216-.808V23zm-2.98 2.146c.038-1.605 1.334-2.1 1.977-2.146v1.001c-.376.019-.997.493-.997.86v4.226c0 .467.644.918.997.918V31c-1.543-.355-1.96-1.423-1.976-1.913a93.905 93.905 0 010-3.941zM8.998 27H7v1h1c.007.098.017.484 0 1.146-.017.661-.72.845-1 .854v1c1.668-.021 2.027-1.307 1.998-1.947V27zm3.656-4c1.19.02 1.86.622 2.046.92l-.65.546c-.303-.248-.698-.466-1.396-.466-.396 0-1.654.178-1.654 1.286 0 .722 1.024.852 1.745 1.175.72.323 2.28.862 2.258 2.353-.024 1.49-1.14 2.186-2.512 2.186-1.097 0-2.116-.795-2.488-1.192l.71-.738c.65.676 1.169.93 1.581.93.574 0 1.687-.292 1.706-1.186.019-.895-1.706-1.475-2.298-1.714-.511-.207-1.662-.681-1.699-1.814-.046-1.416 1.163-2.31 2.651-2.286zM16 31v-8h1v8h-1zm3.441-8H18v1h1.441c.442.061.551.574.559.804v4.35c0 .654-.366.795-.559.846H18v1h1.273C20.618 30.918 21 29.764 21 29.154v-4.445c-.038-1.267-1.062-1.607-1.559-1.709z" fill="#fff"/><path fill-rule="evenodd" d="M23.25 23h.5v3.75h3.5V23h.5v8h-.5v-3.75h-3.5V31h-.5v-8zM31 25.617a2 2 0 00-2 2V29a2 2 0 004 0v-1.383a2 2 0 00-2-2zm0 .441a1.5 1.5 0 00-1.5 1.5v1.5a1.5 1.5 0 003 0v-1.5a1.5 1.5 0 00-1.5-1.5zm2.98 3.959V23h.5v7.047a.367.367 0 00.104.271c.084.089.261.193.633.185l.01.5c-.471.01-.8-.124-1.006-.34a.868.868 0 01-.24-.646zm5.29-3.863V23h.5v8h-.5v-.803a2.614 2.614 0 01-.11.13c-.32.357-.785.662-1.397.662a1.74 1.74 0 01-1.368-.66c-.294-.356-.452-.798-.452-1.137v-1.774c0-.367.123-.832.41-1.211.294-.389.758-.683 1.41-.683.69 0 1.181.303 1.506.63zm0 .84c-.147-.297-.614-.97-1.507-.97-.482 0-.803.21-1.011.484a1.58 1.58 0 00-.309.91v1.774c0 .207.107.54.338.82.224.273.55.477.982.477.43 0 .768-.21 1.026-.497.249-.277.408-.61.48-.838v-2.16zm1.735 4.011V25h.5v6.005h-.5z" fill="#fff"/><path d="M41.637 23.927a.382.382 0 11-.764 0 .382.382 0 01.764 0z" fill="#fff"/><path fill-rule="evenodd" d="M46.129 27.027c-.11-.34-.501-.933-1.27-.906-.79.028-1.298.604-1.474.929V31h-.5v-5.298h.5v.548c.333-.317.82-.607 1.456-.629 1.123-.04 1.652.86 1.778 1.3l.01.034V31h-.5v-3.973zm3.438 1.497a1.24 1.24 0 100-2.48 1.24 1.24 0 000 2.48zm0 .5a1.74 1.74 0 100-3.48 1.74 1.74 0 000 3.48z" fill="#fff"/><path d="M51.37 26.196a1.51 1.51 0 00-.353.302l-.404-.294a1.96 1.96 0 01.485-.428c.23-.15.536-.292.88-.323l.045.498a1.481 1.481 0 00-.653.245zm-3.339 3.084c.215-.366.522-.659.744-.799l.267.423c-.153.096-.404.33-.58.63-.137.235-.213.484-.182.724.113-.016.264-.036.44-.055a8.658 8.658 0 011.325-.047c.473.024.974.106 1.364.319.406.22.695.588.697 1.14.005.153-.055.366-.19.598-.14.243-.373.525-.738.815l-.31-.392c.321-.256.51-.491.616-.674.11-.189.123-.307.122-.33v-.012c0-.341-.161-.556-.436-.706-.292-.16-.703-.236-1.15-.26a8.157 8.157 0 00-1.248.047c-.176.018-.326.039-.438.054l-.065.01-.074.01h-.004a.816.816 0 01-.097.01h-.172l-.061-.16c-.19-.493-.044-.977.17-1.344z" fill="#fff"/><defs><linearGradient id="paint0_linear" x1="10.418" y1="9.712" x2="68.147" y2="76.017" gradientUnits="userSpaceOnUse"><stop stop-color="#1A1E21"/><stop offset="1" stop-color="#06060A"/></linearGradient></defs></svg>