<svg width="56" height="56" xmlns="http://www.w3.org/2000/svg"><path fill="#F0F3FA" d="M0 0h56v56H0z"/><path d="M20.941 18.004c-6.741.208-10.103 3.76-10.941 5.509 2.206-2.69 9.353-3.514 15.618-.868 5.012 2.117 8.735 2.444 9.97 2.343 5.012-.14 9.03-4.454 10.412-6.594-4.147 3.384-11.559 3.557-16.368 1.605-3.847-1.561-7.397-1.98-8.691-1.995z" fill="#15673F"/><path d="M20.941 24.502C14.2 24.71 10.838 28.262 10 30.011c2.206-2.69 9.353-3.514 15.618-.868 5.012 2.117 8.735 2.444 9.97 2.343 5.012-.139 9.03-4.454 10.412-6.594-4.147 3.384-11.559 3.557-16.368 1.605-3.847-1.561-7.397-1.98-8.691-1.995z" fill="#0B9740"/><path d="M20.941 31C14.2 31.208 10.838 34.76 10 36.509c2.206-2.69 9.353-3.514 15.618-.868 5.012 2.117 8.735 2.444 9.97 2.343C40.6 37.845 44.618 33.53 46 31.39c-4.147 3.384-11.559 3.557-16.368 1.605-3.847-1.561-7.397-1.98-8.691-1.995z" fill="#36B449"/></svg>