<svg xmlns="http://www.w3.org/2000/svg" width="56" height="56"><path fill="#EFEAE6" d="M0 0h56v56H0z"/><path d="M29.14 15.04c2.13-2.8 5.7-3.04 6.35-3.04a.8.8 0 01.1 0 .6.6 0 01.54.35c.07.16 1.78 4.05-.5 7.24-1.74 2.45-4.59 2.76-5.92 2.76-.42 0-.69-.03-.73-.03a.59.59 0 01-.47-.34c-.07-.16-1.7-3.9.63-6.94zm.95.67c-1.57 2.05-.91 4.61-.61 5.5h.2c1.08 0 3.54-.25 4.98-2.27 1.54-2.16.85-4.81.52-5.77-.98.09-3.54.51-5.09 2.54zm-11.28.56l.3-.59a.6.6 0 01.54-.31c.08 0 .15 0 .23.04l.62.23c.73.28 1.46.66 2.16 1.13a7.93 7.93 0 013.16 4.14c.04.1 1.5 3.84-1.75 10.36L22.2 35h2.1c.37.02.65.41.54.76l-2.36 6.7L28.56 34H26.4c-.44 0-.75-.41-.5-.8l4.98-7.92c1.14-1.54 2.62-2.63 3.96-2.95a10.4 10.4 0 014.9.02c.84.2 1.62.46 2.33.8l.6.28c.28.13.4.45.28.72l-.25.6a9.53 9.53 0 01-2.55 3.15 8.05 8.05 0 01-3.4 1.58 9.68 9.68 0 01-4.36-.29.56.56 0 01-.38-.71.6.6 0 01.75-.37c1.17.36 2.6.46 3.75.25 1.03-.2 2-.65 2.88-1.33a8.41 8.41 0 002.21-2.74l.04-.08-.1-.05a9.7 9.7 0 00-2.06-.7 9.13 9.13 0 00-4.35-.02c-1.27.3-2.52 1.47-3.26 2.47L27.48 33h2.2c.45 0 .76.5.5.87l-8.69 11.88a.6.6 0 01-.5.25.63.63 0 01-.25-.06.56.56 0 01-.31-.68L23.55 36h-2.3c-.38-.02-.7-.32-.5-.73L23 30.78c3.04-6.08 1.7-9.47 1.7-9.5a6.83 6.83 0 00-2.72-3.59 9.57 9.57 0 00-1.91-.99l-.12-.04-.05.1a7.84 7.84 0 00-.7 3.35 6 6 0 00.87 2.92 7.8 7.8 0 002.73 2.44c.29.15.39.5.22.77a.61.61 0 01-.82.21 8.88 8.88 0 01-3.16-2.85A7.1 7.1 0 0118 20.14a8.9 8.9 0 01.81-3.87z" fill="url(#apzm32cwv)"/><defs><linearGradient id="apzm32cwv" x1="36.3" y1="12" x2="22.59" y2="45.59" gradientUnits="userSpaceOnUse"><stop offset=".23" stop-color="#F47141"/><stop offset=".43" stop-color="#A7B363"/><stop offset=".66" stop-color="#263A7E"/></linearGradient></defs></svg>