<svg width="56" height="56" xmlns="http://www.w3.org/2000/svg"><path fill="#005696" d="M0 0h56v56H0z"/><path d="M13 36V20h1v16h-1zm2 3V17h1v22h-1zm2 3V14h1v28h-1zm2 3V11h1v34h-1zm24-9V20h-1v16h1zm-2 3V17h-1v22h1zm-2 3V14h-1v28h1zm-2 3V11h-1v34h1zM21 14h1v11h12V14h1v12H21V14z" fill="#fff"/><path d="M25 19h1v2h4v-2h1v3h-6v-3z" fill="#fff"/><path d="M23 17h1v6h8v-6h1v7H23v-7zm-2 24h1V30h12v11h1V29H21v12z" fill="#fff"/><path d="M25 36h1v-2h4v2h1v-3h-6v3z" fill="#fff"/><path d="M23 38h1v-6h8v6h1v-7H23v7zm13.5-10H20v-1h16.5v1z" fill="#fff"/></svg>