<svg width="56" height="56" xmlns="http://www.w3.org/2000/svg"><path fill="#007934" d="M0 0h56v56H0z"/><path d="M13.004 19h9.99l-.978-2h-9.012v-5h30v5h-12.54l.917 2h11.623v25h-30V19z" fill="#fff"/><path fill-rule="evenodd" d="M26.243 18.447h-2.545l.848 1.524 2.545.117-.848-1.641zm1.09 2.11h-2.545l.848 1.64h2.546l-.849-1.64zm1.334 2.227H26l.97 1.64h2.545l-.848-1.64zm1.091 2.227h-2.666l.97 1.641h2.545l-.849-1.641zM21.273 12h.606l2.91 5.744h-.486L21.273 12zm2.182 0h.485l9.939 18.872-.364.234L23.455 12zm2.061 0h.485l2.06 3.868-.242.469L25.516 12zm1.939 5.86l1.454-1.992.849 1.641-1.455 1.993-.848-1.641zm1.212 1.993l1.455-1.992.848 1.64-1.454 2.11-.849-1.758zm1.213 2.227l1.333-1.992.97 1.64-1.576 1.994-.727-1.641zm1.09 2.228l1.455-1.993.848 1.64-1.454 2.11-.849-1.757zM27.455 12h.468l5.939 11.202-.225.402L27.455 12zm-8.138 0h.502l7.636 14.652h-.537L19.317 12zm22.686 27.788c0 1.132-.74 2.038-1.852 2.377-.243 0-.198.862-.37 1.019 0 0-.124.113-.247.113h-.74l.37-1.019c-.508-.155-1.01-.19-1.42-.566v-1.245c.987.453 2.16.68 2.284-.226 0-.453-.864-1.697-.864-1.697-.62-.908-1.17-1.833-1.605-2.83-.287-.789-.124-1.753.617-2.263.37-.34.988-.453 1.728-.453.37 0 .74.114 1.111.227v1.358c-.246-.114-.37-.227-.617-.227-.617 0-.987.453-.987 1.019 0 .266.337.69.493.905 0 0 .865.906 1.482 1.81.404.557.617 1.011.617 1.698zm-7.67-2.234c0-.352.134-.586.4-.586.134 0 .267.234.267.586v2.344c0 .351-.133.586-.267.586-.266 0-.4-.235-.4-.586v-2.344zm-1.804 4.102v-4.688c.371-.653 1.83-.633 2.204-1.29.549-.963-.782-.678-1.466-.678H32v7h-2v-7h-.733l-.667 1.85L29.667 42H27.8l-.8-4.564v4.565h-2V30h2v6.03l.934-3.03H30v-1h2v1h3.934c.708.312 1.066.918 1.066 1.623v7.378h-2v-.345h-.133c0 .352-.616.71-1.016.71-.533 0-1.189-.24-1.322-.71zM17 41.998h2V34.04c0-.475-.16-.832-.645-.95-.707-.174-1.867.353-2.355.712V30h-2v11.998h2v-6.77c0-.12.258-.239.58-.239.162 0 .42.12.42.238v6.771zm4.678-7.312c0-.225.167-.34.425-.34.13 0 .349.115.349.34v1.8c0 .225-.13.337-.387.337-.13 0-.387-.112-.387-.337v-1.8zM22 39.973c0 .506.313.788.839.788.387 0 .903-.217 1.032-.442h.13v.787c0 .563-.904.892-1.936.892-.645 0-1.29-.225-1.549-.45A1.415 1.415 0 0120 40.423v-5.625c0-1.012.774-1.8 1.936-1.8 1.161 0 2.064.788 2.064 1.8V38h-2v1.973z" fill="#007934"/></svg>