<svg width="56" height="56" xmlns="http://www.w3.org/2000/svg"><path fill="#0032A0" d="M0 0h56v56H0z"/><path d="M24 13v1s2 .13 2 1.434v8.927l4 2.215V15.433S30.175 14 32 14v-1h-8z" fill="#fff"/><path d="M30.616 17v.875S32.788 19.004 33 23h1v-6h-1s0 .61-.629.61c-.88 0-1.755-.61-1.755-.61zm-5.125-.595v.766s-3.305.516-3.305 3.535c0 0-.261 2.393 3.736 4.458l4.95 2.768s3.567 1.643 4.659 4.568c1.091 2.925.384 6.835-3.244 8.696-1.476.766-2.798.845-3.275.907 0 0 1.2.61 1.2 2.096 0 1.486-1.63 3.785-2.337 3.801h-.416s-.061-.078.154-.328 1.215-1.47.969-2.175c0 0-.583.263-1.16.263a1.782 1.782 0 01-1.691-1.842c0-1.336.995-1.882 1.353-1.882 0 0-.558-.06-2.328-.709-1.771-.647-2.86-.886-3.756.673h-1v-7h1s1.129 6.287 7.556 6.287c4.457-.02 4.994-3.765 4.994-4.454 0-.688 0-2.793-3.323-4.716s-6.506-3.684-6.506-3.684S20 26.67 20 22.5s3.76-6.096 5.491-6.096z" fill="#fff"/><path d="M26 30.68l4 2.268v3.496S30 38 32 38v.995h-8V38s2-.175 2-1.556V30.68zM30 10a2 2 0 10-4 0 2 2 0 004 0z" fill="#fff"/></svg>