<svg width="56" height="56" viewBox="0 0 56 56" xmlns="http://www.w3.org/2000/svg"><path fill="#0032A0" d="M0 0h56v56H0z"/><path d="M24 13v1s2 .13 2 1.43v8.93l4 2.22V15.43S30.18 14 32 14v-1h-8Z" fill="#fff"/><path d="M30.62 17v.87S32.79 19 33 23h1v-6h-1s0 .6-.63.61c-.88 0-1.75-.61-1.75-.61ZM25.5 16.4v.77s-3.31.52-3.31 3.54c0 0-.27 2.39 3.73 4.45l4.95 2.77s3.57 1.64 4.66 4.57c1.1 2.92.39 6.83-3.24 8.7-1.48.76-2.8.84-3.28.9 0 0 1.2.61 1.2 2.1 0 1.48-1.63 3.78-2.34 3.8h-.41s-.06-.08.15-.33c.22-.25 1.22-1.47.97-2.17 0 0-.58.26-1.16.26s-1.69-.5-1.69-1.84 1-1.88 1.35-1.88c0 0-.55-.06-2.32-.71-1.78-.65-2.86-.89-3.76.67h-1v-7h1s1.13 6.29 7.56 6.29c4.45-.02 4.99-3.77 4.99-4.46s0-2.79-3.32-4.71c-3.33-1.93-6.5-3.69-6.5-3.69S20 26.67 20 22.5s3.76-6.1 5.5-6.1Z" fill="#fff"/><path d="m26 30.68 4 2.27v3.5S30 38 32 38v1h-8v-1s2-.17 2-1.56v-5.76ZM30 10a2 2 0 1 0-4 0 2 2 0 0 0 4 0Z" fill="#fff"/></svg>