<svg width="56" height="56" xmlns="http://www.w3.org/2000/svg"><path fill="#F0F3FA" d="M0 0h56v56H0z"/><path d="M12 24c0-.514.393-1.003 1-1a.995.995 0 011 1c0 .507-.417 1-1 1s-1-.486-1-1zm-2.891 4.047a.39.39 0 01.548.11.395.395 0 01-.11.548.39.39 0 01-.548-.11.391.391 0 01.11-.548zm-1.856-.76a.398.398 0 01.274-.493.398.398 0 01.493.274.398.398 0 01-.274.493.41.41 0 01-.493-.274zm-1.294 1.52a.398.398 0 11.028-.795.398.398 0 01-.028.796zm1.047 1.706a.397.397 0 11-.746-.268.397.397 0 01.746.268zm1.945-.466a.394.394 0 01.069.555.394.394 0 01-.555.068.394.394 0 01-.068-.555.393.393 0 01.554-.068zM4 28.89c0-1.534 1.089-2.596 2.534-2.89-1.24.473-2.123 1.458-2.123 2.862 0 1.527 1.034 2.761 2.438 3.138C5.246 31.843 4 30.533 4 28.89z" fill="#CD0538"/><path d="M10.78 28.91c0-1.326-.856-2.457-2.068-2.91h4.619l-1.165 3.084c-.174.427-.328.75-.455.983-.402.692-.864 1.17-1.379 1.442-.402.206-.79.342-1.171.4A7.509 7.509 0 018.009 32h-.046c1.593-.194 2.817-1.5 2.817-3.09zm-3.815.07c0-.349.295-.633.656-.633.362 0 .656.284.656.634a.645.645 0 01-.656.633.646.646 0 01-.656-.633zm.174 0c0 .26.215.466.482.466a.472.472 0 00.482-.465.472.472 0 00-.482-.466.472.472 0 00-.482.466zm40.831 1.957c-.26.251-.48.428-.658.539a3.313 3.313 0 01-1.794.517c-.747 0-1.288-.155-1.623-.458-.26-.236-.384-.576-.384-1.018 0-.362.103-.783.308-1.27.062-.155.158-.347.288-.583.514-.775 1.294-1.292 2.335-1.542.35-.067.822-.111 1.432-.126h3.28c.336 0 .562.052.678.148a.381.381 0 01.171.332.402.402 0 01-.04.184c-.028.06-1.645 4.31-1.645 4.31H47.49l.48-1.033zm.37-1.395c.061-.14.17-.42.328-.856a13.1 13.1 0 01.192-.539.327.327 0 00-.117-.022h-.137c-.452 0-.856.06-1.219.185-.554.192-.931.516-1.136.981a.328.328 0 00-.055.17c-.062.236-.096.45-.096.642s.041.362.116.502c.09.125.24.185.445.185.144 0 .295-.03.466-.082.322-.11.623-.34.911-.686.082-.11.185-.266.301-.48zm-9.81-2.378c.206-.06.48-.097.809-.127.335-.03.61-.037 1.006-.044.726 0 1.329.044 1.856.126.528.067.795.156.795.253v1.109c-.028-.194-.213-.358-.562-.484a2.839 2.839 0 00-1.116-.208c-.336 0-.61.06-.829.17a.5.5 0 00-.308.484c0 .224.377.491 1.137.796.76.306 1.137.67 1.137 1.094 0 .603-.425 1.042-1.274 1.325-.671.223-1.52.334-2.548.334-.5 0-.958-.037-1.37-.104-.41-.067-.616-.141-.616-.208v-1.176c0 .194.178.358.541.484.377.127.788.186 1.233.186.35 0 .644-.045.89-.126.247-.097.384-.238.425-.417.055-.208-.082-.394-.404-.543-.308-.157-.617-.313-.925-.484-.438-.238-.719-.52-.849-.863a1.42 1.42 0 01-.075-.417 1.61 1.61 0 01.116-.46c.15-.343.466-.574.932-.7zm-7.457.426c.192-.223.808-.545 1.856-.964 1.047-.42 1.677-.63 1.91-.63h.966l-.699 1.587h1.541l-.322.787h-1.527l-.698 1.607a1.593 1.593 0 00-.076.262.979.979 0 00-.04.262c0 .25.102.367.307.367h1.446v.223c-.13.21-.268.36-.405.46-.445.307-1.136.445-2.068.445-.876 0-1.513-.138-1.91-.406-.281-.197-.425-.46-.425-.774 0-.138.034-.295.096-.479l.842-1.967h-1.431l.637-.78zm-4.25 1.712a.556.556 0 00.055-.182c.006-.066.02-.146.02-.226a.677.677 0 00-.157-.451c-.103-.124-.274-.182-.5-.182-.363 0-.665.073-.911.225-.247.139-.411.313-.5.532l-1.199 2.978h-2.78l1.657-4.558a8.017 8.017 0 011.527-.284c2.24-.197 5.561-.583 5.561 1.602 0 .204-.055.459-.157.757l-.911 2.483h-2.78l1.075-2.694zm-9.338.238c.062-.14.171-.42.329-.856.04-.126.102-.303.192-.54a.325.325 0 00-.117-.021h-.137a3.72 3.72 0 00-1.219.184c-.555.192-.931.517-1.137.982a.35.35 0 00-.061.17 2.57 2.57 0 00-.096.643c0 .192.04.362.116.502.09.126.24.185.445.185.144 0 .295-.03.466-.082.322-.11.623-.34.91-.686.09-.111.193-.266.309-.48zm-.363 1.396a4.22 4.22 0 01-.657.54 3.31 3.31 0 01-1.795.517c-.746 0-1.287-.156-1.623-.458-.26-.237-.383-.576-.383-1.02 0-.361.103-.782.308-1.27a3.96 3.96 0 01.288-.583c.589-.96 1.294-1.293 2.335-1.544.35-.066.822-.11 1.431-.125h3.28c.336 0 .562.051.678.147a.381.381 0 01.172.333.403.403 0 01-.041.184c-.028.06-1.644 4.313-1.644 4.313h-2.835l.486-1.034z" fill="#004A99"/></svg>