<svg xmlns="http://www.w3.org/2000/svg" width="56" height="56"><path fill="#193054" d="M0 0h56v56H0z"/><path d="M14 42h28V14H14v28z" fill="#fff"/><path d="M28 23a5 5 0 110 10 5 5 0 010-10z" fill="#D91E2B"/><path fill-rule="evenodd" d="M14 23.55c.24-.03 7.4-.01 7.62-.01h1.9c.19 0 .8.04.9-.04.2-.13.36-.25.58-.37.8-.45 1.77-.8 3-.8a5.9 5.9 0 013.56 1.15c.07.06.06.06.18.06H42v.63h-9.64l.57.75H42v.63h-8.68c.02.1.1.26.15.36l.15.39H42v.62h-8.2c0 .32.1.5.1 1.12 0 .49-.04.68-.1 1.15H42v.62h-8.39c-.11.26-.16.43-.3.75H42v.63h-9.06c-.11.2-.42.54-.58.74H42v.63H31.96c-.2 0-.3-.03-.42.06a6 6 0 01-6.55.35l-.57-.39c-.06-.03-.13-.02-.22-.02h-2.6c-.35 0-7.46.03-7.6-.01v-.61l9.65-.02c-.13-.17-.3-.33-.44-.55-.03-.03-.13-.17-.17-.18L14 31.18v-.61c.13-.04 3.85-.01 4.32-.01h4.37l-.3-.75H14v-.62l8.21-.01c.01-.1-.06-.39-.07-.54-.06-.81-.04-.93.07-1.72L14 26.9v-.61l8.4-.01.3-.73c-.34-.03-1.73-.01-2.18-.01-.66 0-6.4.03-6.52-.01v-.62l9.08-.01c.08-.15.44-.58.58-.73-.38-.03-1.92-.01-2.42-.01-.72 0-7.13.03-7.24-.01v-.61zM23 28a5 5 0 1110 0 5 5 0 01-10 0zm-9-7.54c.1.04.24.08.36.1L20 22.2c.19.06.18.06.35-.01l5.2-2.06c.12-.06.19-.1.38-.08l2.1.17 1.7.13c.48.05 1.26.09 1.7.13.24.03 1.15.07 1.24.13.63.44 1.42 1.06 2.07 1.54.13.1.17.16.29.17a36 36 0 001.78-.04c-.63-.85-1.29-1.68-1.93-2.53a47.19 47.19 0 00-1.1-1.44 3.4 3.4 0 00-.6-.24c-1.35-.48-2.74-1.02-4.1-1.5-.92-.32-1.96-.7-2.88-1.05-.2-.07-.22-.11-.4-.03-.3.13-.5.25-.76.38l-1.51.74-.75.37-1.49.74-.57.29c-.1.04-.09.03-.17-.01-.37-.26-6.01-3.9-6.08-3.99H14v6.46zM42 42v-6.77c-.22.04-.15.04-.37-.03l-2.5-.71-1.42-.4a65.2 65.2 0 00-1.42-.41c-.23-.07-.56-.2-.71-.14-.22.1-.43.17-.65.25-1.53.62-3.06 1.21-4.59 1.82-.14.06-.18.1-.34.09l-2.14-.16c-.56-.06-1.13-.1-1.7-.14-.15-.01-2.88-.2-2.96-.25l-1.82-1.36c-.61-.47-.42-.35-.98-.35-.28 0-1.19 0-1.35.03.48.61 1 1.3 1.47 1.93.47.63 1.04 1.32 1.49 1.94.12.17.14.14.35.22l4.63 1.7 2.53.91c.51.19.36.17.81-.06.25-.1.49-.23.77-.37l3.84-1.9c.27-.15.27-.16.4-.07l.35.22 3.47 2.27c.46.3 2.07 1.38 2.45 1.56.14.06.28.11.39.18z" fill="#193054"/><path fill-rule="evenodd" d="M25 24.5v6h2.83c.75-.02 2.23-.77 2.17-3.21-.06-2.45-1.44-2.79-2.17-2.79H25zm1 1v4h1.7c.45-.01 1.34-.42 1.3-2.03-.04-1.61-.87-1.97-1.3-1.97H26z" fill="#fff"/><path d="M30.85 25.7c.25.28.14.54.04.65-.11.13-.53.19-.7-.07a1.05 1.05 0 00-.93-.43c-.88.01-1.2.58-1.26.86a53.4 53.4 0 000 2.58c.04.66.57 1 1.26.96.55-.03.82-.34.93-.48.13-.17.4-.17.56 0 .16.18.07.47 0 .57-.3.46-.9.67-1.15.72v.52h-1.12v-.52C27.5 30.92 27 30.05 27 29.6v-2.9c0-1.17 1.3-1.72 2.11-1.7.8.03 1.43.37 1.74.7z" fill="#fff"/></svg>