<svg xmlns="http://www.w3.org/2000/svg" width="56" height="56"><path fill="#D5343E" d="M0 0h56v56H0z"/><path d="M9.71 22h1.84l-1.28 12H15l-.2 1.44c-.05.45-.4.56-.57.56H9.1c-.99-.08-1.14-.84-1.1-1.22l1.17-12.23c.05-.44.38-.55.54-.55z" fill="#fff"/><path fill-rule="evenodd" d="M15.16 22h7.6c.4.02 1.2.3 1.24 1.25l-.61 7.3c0 .51-.41 1.37-1.63 1.45h-7.57c-.41 0-1.23-.31-1.19-1.45.04-1.14.44-5.34.63-7.3 0-.45.64-1.25 1.53-1.25zM22 24l-.5 5.4a.69.69 0 01-.7.6H15l.47-5.43c.04-.33.3-.57.9-.57H22zm17.16-2h7.6c.4.02 1.2.3 1.24 1.25l-.61 7.3c0 .51-.41 1.37-1.63 1.45h-7.57c-.42 0-1.23-.31-1.19-1.45.04-1.14.44-5.34.63-7.3 0-.45.63-1.25 1.53-1.25zM46 24l-.5 5.4a.69.69 0 01-.7.6H39l.47-5.43c.04-.33.3-.57.9-.57H46zm-11.24-2h-7.6c-.9 0-1.53.8-1.53 1.25-.2 1.95-.59 6.16-.63 7.3-.04 1.14.77 1.44 1.19 1.45H32v1.3c0 .37-.33.7-.76.7H27.2l-.2 1.53c-.01.15.07.45.47.47h4.8c.5 0 1.73-.34 1.73-1.64v-2.39c1.03-.17 1.39-.94 1.39-1.42l.61-7.3c-.04-.95-.84-1.23-1.24-1.25zm-1.27 7.4L34 24h-5.63c-.6 0-.86.24-.9.57L27 30h5.8a.69.69 0 00.7-.6z" fill="#fff"/></svg>