<svg width="56" height="56" xmlns="http://www.w3.org/2000/svg"><path fill="#03467B" d="M0 0h56v56H0z"/><path d="M5 34.002h4V28.19c0-1.116.511-2.19 1.56-2.19 1.05 0 1.44 1.177 1.44 2.19v5.812h4V28.19c0-1.117.436-2.191 1.485-2.191C18.692 26 19 27.177 19 28.19v5.812h4.003V26.64c0-1.738-.944-3.64-3.735-3.64-2.706 0-3.546 1.551-3.714 1.675C15.051 23.6 13.792 23 12.617 23c-1.51 0-2.778.455-3.617 1.696V23H5v11.002zm25-3.998c-.061 1.09-.708 1.635-1.623 1.635-.733 0-1.262-.485-1.262-.97 0-.706.468-.928 1.363-1.13.55-.12 1.034-.262 1.522-.504v.969zm4-2.907C34 25.08 33.974 23 28.926 23c-2.503 0-5.312.484-5.434 3.431h3.745c.02-.444.265-1.07 1.506-1.07.651 0 1.257.263 1.257.97 0 .665-.484.827-1.033.928-2.056.383-5.963.262-5.963 3.572 0 2.2 1.689 3.169 3.724 3.169 1.303 0 2.544-.283 3.399-1.251h.04c-.02.282.041.968.143 1.251h4.111c-.447-.666-.421-1.816-.421-2.604v-4.299z" fill="#fff"/><path d="M45 23h-4l-1.755 6.698h-.04L37.46 23h-4.132l3.444 11h4.742L45 23zm0 11h4V23h-4v11zm0-12h4v-3h-4v3z" fill="#fff"/></svg>