<svg xmlns="http://www.w3.org/2000/svg" width="56" height="56"><path fill="#013F85" d="M0 0h56v56H0z"/><path d="M21 44l-1-1.02V13.24L21.2 12h13.3l.95 1H21v1h15.46l.97 1H21v1h17.42l.98 1H21v1h19.4l.98 1H21v1h21.36L44 21.69v12.9l-1 1.04V21h-1v15.7l-1 1.03V21h-1v17.78l-1 1.04V21h-1v19.87l-1 1.03V21h-1v21.95L35 44V21H21v23zm-3-28.68v25.53l1 1.05V14.29l-1 1.04zm-2 23.42V17.37l1-1v23.4l-1-1.03zm-2-19.31v17.2l1 1.03V18.42l-1 1.01zM12 34.5V21.56l1-1.05v15.03l-1-1.04zM28 23a5 5 0 100 10 5 5 0 000-10z" fill="#fff"/></svg>