<svg width="56" height="56" xmlns="http://www.w3.org/2000/svg"><path fill="#F0F3FA" d="M0 0h56v56H0z"/><path d="M32.129 14.276a85.127 85.127 0 00-1.987-.206c-4.738-.4-8.519.93-11.354 3.464-1.832 1.638-4.25 4.482-4.732 10.174-.365 4.327 1.055 9.153 3.964 12.511 2.729 3.152 6.336 5.355 11.146 5.781-5.668-7.287-7.67-12.423-7.46-18.336.201-5.543 4.218-12.71 10.423-13.388z" fill="#61A642"/><path d="M30.44 20.722c6.467-.716 10.675 2.661 11.559 4.771.083-6.448-4.426-9.86-8.025-10.768-3.764-.905-9.724 3.572-10.85 11.344 1.621-3.16 3.864-4.967 7.317-5.347z" fill="#E61C28"/><path d="M39.94 32.73c-2.2 3.69-6.336 4.764-10.216 3.794-3.154-.791-5.354-3.288-5.834-6.18-.407-2.436.23-4.707 2.104-6.41-1.48 2.712.363 6.524 3.996 8.395 2.511 1.292 6.988 2.044 9.95.4z" fill="#149ED9"/><path d="M37.855 22.989c-1.711-.957-5.007-1.775-7.916-1.433h.014a4.235 4.235 0 014.202 4.356c-.056 2.404-2.054 4.193-4.461 4.168a4.046 4.046 0 01-2-.57c1 1.073 2.377 1.953 4.192 2.402 5.966 1.48 8.975-1.021 9.525-3.236.437-1.766-.85-4.176-3.556-5.687" fill="#000"/></svg>