<svg width="56" height="56" xmlns="http://www.w3.org/2000/svg"><path fill="#FDC43E" d="M0 0h56v56H0z"/><path fill-rule="evenodd" d="M4 31l2.57-6.214c.031-.063.075-.204 0-.266a.55.55 0 00-.078-.051c-.077-.045-.15-.088-.14-.23.017-.19.119-.239.268-.239h4.586c.382.026 1.145.387 1.145 1.616 0 1.537-1.446 2.615-2.448 2.632-.802.014-1.784.006-2.174 0l-.849 2.046c-.018.05-.042.162 0 .202.01.01.024.02.04.032.066.052.163.128.156.239-.011.172-.128.233-.232.233H4zm5.164-6.234c.281-.018.854.125.89.84.044.895-.763 1.943-1.977 1.816l1.087-2.656z" fill="#E31F26"/><path d="M13.312 24.785L10.752 31h5.894l.344-.657c.053-.085.12-.289-.04-.418s-.312.01-.36.063l-.197.185a.374.374 0 01-.226.085h-2.403l1.002-2.468a181.89 181.89 0 011.5 0c.134.005.183.19.183.245 0 .056.062.207.197.207.134 0 .186-.092.208-.138.135-.295.412-.905.441-.98.037-.095.041-.28-.114-.366-.138-.077-.303.051-.4.193a.33.33 0 01-.279.13h-1.445l.958-2.32h1.653c.114 0 .156.104.182.241.026.137.13.193.224.193a.236.236 0 00.192-.122L18.718 24c-1.758.002-5.301.004-5.406 0-.131-.004-.282.049-.286.246-.004.198.213.272.286.334.058.049.024.157 0 .205z" fill="#E31F26"/><path d="M22.835 24c1.087-.01 2.35.508 2.845.768l-.328.725a.197.197 0 01-.193.134c-.163 0-.204-.21-.25-.283a2.088 2.088 0 00-.148-.18c-.35-.343-.834-.446-1.113-.446-2.719.05-3.742 3.816-3.742 4.395 0 .627.38.973 1.046.959.533-.012.91-.408 1.046-.737.16-.384.488-1.162.516-1.202.036-.05.043-.222-.114-.279-.126-.046-.167-.181-.172-.243.005-.195.17-.239.25-.236h2.874c.223 0 .27.157.265.236-.01.08-.076.243-.265.243-.19 0-.305.186-.339.28L23.86 31h-2.281l-.167-.397c-.687.337-1.414.405-1.692.396-2.091-.061-2.47-1.576-2.331-2.345.794-4.427 4.087-4.641 5.446-4.654zm13.712 0c.91.007 1.78.488 2.101.728-.076.205-.23.628-.243.68-.02.082-.093.316-.263.316-.136 0-.17-.173-.246-.274-.202-.27-.574-.722-1.35-.722-.774 0-1.02.494-1.026.918-.008.483.474 1.058 1.2 1.951.583.714.869 1.38.869 1.766 0 2.04-1.851 2.629-3.073 2.637-.978.007-1.902-.492-2.242-.743.088-.25.272-.77.303-.84.04-.09.123-.199.27-.189.117.008.192.228.215.337.272.355.727.692 1.454.692.68 0 .893-.473.893-.798 0-.326-.35-.896-1.252-1.872-.722-.78-.832-1.668-.797-2.014.22-2.172 2.049-2.582 3.187-2.573zm13.351 0c.911.007 1.78.488 2.102.728-.076.205-.23.628-.244.68-.02.082-.093.316-.262.316-.136 0-.171-.173-.247-.274-.202-.27-.574-.722-1.349-.722s-1.02.494-1.027.918c-.008.483.474 1.058 1.201 1.951.582.714.868 1.38.868 1.766 0 2.04-1.85 2.629-3.073 2.637-.978.007-1.902-.492-2.242-.743.088-.25.272-.77.304-.84.039-.09.122-.199.269-.189.117.008.193.228.216.337.271.355.726.692 1.453.692.68 0 .893-.473.893-.798 0-.326-.35-.896-1.252-1.872-.721-.78-.832-1.668-.797-2.014.22-2.172 2.05-2.582 3.188-2.573zm-10.621.232c0-.173.19-.222.289-.232h2.974c.068.014.206.08.21.232.005.153-.138.229-.21.248-.16 0-.318.231-.377.347-.48 1.11-1.494 3.483-1.714 4.105-.274.778.097 1.187.647 1.187.44 0 .674-.284.824-.575L44.282 24h2.711c.093 0 .21.096.214.255.005.16-.14.232-.214.249-.185.015-.33.221-.379.323l-1.688 3.865c-.644 1.427-1.89 2.35-3.957 2.307-2.583-.054-2.89-1.372-2.898-2.067-.008-.556.224-1.277.341-1.568a157.74 157.74 0 001.1-2.644c.043-.13-.017-.214-.053-.24a.254.254 0 01-.182-.248z" fill="#E31F26"/><path fill-rule="evenodd" d="M28.666 24l-3.757 6.217c-.059.084-.215.259-.37.286a.265.265 0 00-.23.23v.007c-.002.05-.006.247.23.256.2.008.98.003 1.346 0 .076 0 .216-.07.212-.25a.275.275 0 00-.212-.272c-.046-.018-.11-.096 0-.257.111-.162.824-1.364 1.167-1.946h2.065l.454 1.946c.016.06.04.195 0 .257a.323.323 0 01-.087.078c-.07.052-.15.111-.15.21 0 .16.118.237.237.237h.262c.558-.002 1.865-.003 2.605-.003l-1.361-6.18c-.021-.078-.05-.245 0-.29.014-.014.034-.027.056-.042.071-.048.164-.11.164-.23A.257.257 0 0031.04 24h-2.375zm-.108 1.715l-1.006 1.668h1.39l-.384-1.668z" fill="#E31F26"/></svg>