<svg width="56" height="56" viewBox="0 0 56 56" xmlns="http://www.w3.org/2000/svg"><path fill="url(#aih1m10fg)" d="M0 0h56v56H0z"/><path d="M40.03 26c.24 0 .47.09.65.25a1.15 1.15 0 0 1 .32.83v.27h-.6v-.27c0-.31-.2-.48-.47-.48H37a.4.4 0 0 0-.4.4v2c0 .22.18.4.4.4h3a.4.4 0 0 0 .4-.4v-.4H38V28h3v.92a1.12 1.12 0 0 1-.32.83.94.94 0 0 1-.65.25h-3.05a.94.94 0 0 1-.66-.26 1.2 1.2 0 0 1-.32-.82v-1.84c0-.3.1-.6.32-.83a.94.94 0 0 1 .65-.25h3.06Z" fill="url(#bih1m10fg)"/><path d="M42.34 26 44 27.75 45.65 26h.85l-2.2 2.34V30h-.6v-1.66L41.5 26h.84Z" fill="url(#cih1m10fg)"/><path d="M51.03 26c.58-.01.99.52.97 1.08v1.84c.02.56-.39 1.08-.97 1.08h-3.06c-.58 0-.99-.52-.97-1.08v-1.84c-.02-.56.39-1.09.97-1.08h3.06Zm-3.03.6a.4.4 0 0 0-.4.4v2c0 .22.18.4.4.4h2.9a.4.4 0 0 0 .4-.4v-2a.4.4 0 0 0-.4-.4H48Z" fill="url(#dih1m10fg)"/><path fill-rule="evenodd" d="M5.3 26H4v4h1.3v-1h2.34S9 28.94 9 27.47 7.64 26 7.64 26H5.3Zm0 1v1h1.91s.49 0 .49-.5-.49-.5-.49-.5H5.3Zm3.5 3c.09-.04 2.2-4 2.2-4h1.6l2.2 4h-1.5l-.38-.7h-2.24l-.38.7H8.8Zm3-3-.74 1.4h1.5L11.8 27Zm4.83 0h3.07v-1h-3.26c-.74 0-1.24.4-1.4.95-.02.1-.04.2-.04.32 0 .71.68 1.23 1.36 1.23h2.03c.21 0 .31.11.31.27 0 .15-.13.23-.31.23H15l.56 1h3c.87 0 1.44-.48 1.44-1.23 0-.95-.63-1.26-1.45-1.26l-1.94-.01c-.26 0-.31-.16-.31-.23 0-.14.07-.27.33-.27Zm4.07-1H22v1h-1l1 .8V30h-1.3v-4Zm7.3 0h1.3v4H28v-2.2l1-.8h-1v-1Zm-5 0h4v1h-2.7v.7H27v1h-2.7V30H23v-4Zm7 0h1.3v1.5h.48l1.43-1.5h1.52l-1.95 2.03L35 30h-1.6l-1.62-1.5h-.48V30H30v-4Z" fill="#fff"/><defs><linearGradient id="aih1m10fg" x1="3" y1="5.75" x2="61.5" y2="54.25" gradientUnits="userSpaceOnUse"><stop stop-color="#212A33"/><stop offset=".24" stop-color="#263440"/><stop offset=".42" stop-color="#2E4253"/><stop offset=".59" stop-color="#293947"/><stop offset=".88" stop-color="#222C36"/></linearGradient><linearGradient id="bih1m10fg" x1="39.37" y1="26" x2="36.99" y2="30.06" gradientUnits="userSpaceOnUse"><stop offset=".07" stop-color="#C08B28"/><stop offset=".47" stop-color="#E3CD85"/><stop offset=".77" stop-color="#C48F2A"/></linearGradient><linearGradient id="cih1m10fg" x1="45.69" y1="25.56" x2="42.74" y2="28.55" gradientUnits="userSpaceOnUse"><stop offset=".4" stop-color="#BD8626"/><stop offset=".89" stop-color="#EECF73"/></linearGradient><linearGradient id="dih1m10fg" x1="52.38" y1="25.19" x2="47.06" y2="30.06" gradientUnits="userSpaceOnUse"><stop offset=".2" stop-color="#C08928"/><stop offset=".51" stop-color="#F0D57F"/><stop offset=".88" stop-color="#C28C28"/></linearGradient></defs></svg>