<svg xmlns="http://www.w3.org/2000/svg" width="56" height="56"><path fill="#1F2C4D" d="M0 0h56v56H0z"/><path d="M17.7 33.72a7.5 7.5 0 112-2l2.87 2.84h-4.03l-.85-.84zm-.2-4.17a4.5 4.5 0 10-2.02 2l-3.1-3.09 2-2.02 3.13 3.1zM26 20h-3v9a6 6 0 0012 0v-9h-3v9a3 3 0 11-6 0v-9zm17.5 0h-1.18L36 35h3l1.2-3h5.6l1.2 3h3l-6.5-15zm-2.1 9l1.6-4 1.6 4h-3.2z" fill="url(#aa2afbx1j)"/><defs><linearGradient id="aa2afbx1j" x1="6" y1="27.5" x2="50" y2="27.5" gradientUnits="userSpaceOnUse"><stop stop-color="#AA662D"/><stop offset=".52" stop-color="#DC976C"/><stop offset="1" stop-color="#AA662D"/></linearGradient></defs></svg>