<svg width="56" height="56" xmlns="http://www.w3.org/2000/svg"><path fill="#000D9F" d="M0 0h56v56H0z"/><path d="M15.398 24.007c.439.013.602.093.602.425v1.213c0 .355-.488.373-.602.355H7.57c-.199.005-.575 0-.569.5.006.5.38.49.569.5h5.996c.811-.048 2.435.552 2.435 2.5s-1.624 2.486-2.435 2.486c-2.549.01-7.739.025-8.113 0-.374-.026-.457-.256-.452-.369v-1.18c0-.347.301-.442.452-.437h7.95c.204-.048.604 0 .598-.5-.006-.5-.394-.505-.598-.5H7.21c-.747.027-2.235-.539-2.21-2.5.026-1.961 1.484-2.509 2.21-2.493 2.457-.005 7.75-.013 8.188 0zm24 0c.439.013.602.093.602.425v1.213c0 .355-.488.373-.602.355H31.57c-.199.005-.575 0-.569.5.006.5.38.49.569.5h5.996c.811-.048 2.435.552 2.435 2.5s-1.624 2.486-2.435 2.486c-2.549.01-7.739.025-8.113 0-.374-.026-.457-.256-.452-.369v-1.18c0-.347.301-.442.452-.437h7.95c.204-.048.604 0 .598-.5-.006-.5-.394-.505-.598-.5H31.21c-.747.027-2.236-.539-2.21-2.5.026-1.961 1.484-2.509 2.21-2.493 2.457-.005 7.75-.013 8.188 0z" fill="#fff"/><path d="M16.16 31.31l4.654-6.96c.07-.105.26-.32.458-.35h1.482c.151.007.294.11.51.35.108.118.874 1.291 1.803 2.714.939 1.437 2.044 3.13 2.804 4.246.145.212.289.643-.294.674-.582.03-1.379.012-1.445 0a.56.56 0 01-.446-.263 32.971 32.971 0 00-.442-.657c-.134-.195-.273-.4-.383-.564h-5.746l-.904 1.221-.021.024a.616.616 0 01-.52.238h-1.287c-.23 0-.596-.135-.223-.673zM22 26l-2 3h3.998L22 26zm18.16 5.31l4.654-6.96c.07-.105.26-.32.458-.35h1.482c.151.007.294.11.51.35.107.118.874 1.291 1.803 2.714.939 1.437 2.044 3.13 2.804 4.246.145.212.289.643-.294.674-.582.03-1.378.012-1.445 0a.56.56 0 01-.446-.263 32.971 32.971 0 00-.442-.657c-.134-.195-.273-.4-.383-.564h-5.746l-.904 1.221-.021.024a.616.616 0 01-.52.238h-1.287c-.23 0-.596-.135-.223-.673zM46 26l-2 3h3.998L46 26z" fill="#fff"/></svg>