<svg width="56" height="56" xmlns="http://www.w3.org/2000/svg"><path fill="#F0F3FA" d="M0 0h56v56H0z"/><path d="M38.905 16.259c-8.878-8.41-23.059-2.495-26.562 1.81l1.893 1.666c-5.69 10.64.882 18.988 4.231 21.14C29.39 47.89 40.49 41.5 44 37.212l-2.644-1.734c4.965-7.944 1.755-15.235-2.45-19.22z" fill="#334B89"/><path d="M37.55 18.067c-7.798-6.364-15.535-1.343-18.182 1.798L39.039 34c5.312-7.44 1.325-13.637-1.49-15.933zM17.247 36.933c7.798 6.364 15.535 1.343 18.182-1.798L15.758 21c-5.312 7.44-1.324 13.637 1.49 15.933z" fill="#F2892D"/></svg>