<svg xmlns="http://www.w3.org/2000/svg" width="56" height="56"><path fill="#B31F62" d="M0 0h56v56H0z"/><path d="M46.9 34.18l-4.33-5.39a.48.48 0 00-.64-.1 152.32 152.32 0 01-4.4 2.76c-1.75 1.05-4.16 2.71-5.52 3.13-.97.29-1.12-.58-.88-1.76 1-4.95 6.05-8.45 5.04-13.97-.74-4.02-5.24-8.27-7.84-9.85.57 3.46.87 6.46-.07 9.7-1.04 3.62-3.95 6.61-4.06 10.5a9.5 9.5 0 00.21 2.2C22.7 28.7 19.17 25.1 8 24.52c3.2.66 5.5 2.6 7.35 4.93 2.96 3.74 5.39 7.1 10.53 7.88-4.16-.25-4.98 2.79-5.14 4.18-.2.27-.98 1.73.17 2.5.8-1.02 1.98-1.34 3.01-1.76 7.18 1.35 12.3-4.52 13.12-5.52a.49.49 0 01.29-.18 257 257 0 019.25-1.57.49.49 0 00.31-.8z" fill="#fff"/></svg>