<svg width="56" height="56" xmlns="http://www.w3.org/2000/svg"><path fill="#F9E04B" d="M0 0h56v56H0z"/><path d="M21.5 35.5l-.9-1.5-5.6 4.5 6.5-3z" fill="#E30613"/><path d="M19.5 23.5L16 16l9 5 5-3 .5 5.3H39l-7 6.2 1.5 6.5-6.5-1.5-2.5 5-3-6-5.5 1 2.8-4-3.8-5.3 4.5-1.7z" fill="#E30613"/><path d="M19.5 17.5l-2-4 6 6-4-2z" fill="#E30613"/><path d="M16 22.5l-.5-2.5c-2.166.333-6.7 1.5-7.7 4-.8 2 .2 4 2.7 5 1.75.7 3.733 2.412 1.266 3.72-1.122.595-2.752.78-3.766.78l.5 2.5c1.236.124 3.5-.396 3.5-.396L10.3 40l.9.5 3.8-5.664h-1.456c1.213-.749 2.051-1.688 2.456-2.336.824-1.235.75-2.487.374-3.43-.925-2.32-4.44-2.333-4.874-4.07-.346-1.385 2.834-2.333 4.5-2.5z" fill="#0B4395"/><path d="M35 16l-4.5 3.5.9 1.8L35 16zm-4.5 20l-3-.6 4.5 4.1-1.5-3.5z" fill="#E30613"/><path fill-rule="evenodd" d="M25.25 33.5a5.75 5.75 0 100-11.5 5.75 5.75 0 000 11.5zm0-3c1.243 0 2.25-1.231 2.25-2.75S26.493 25 25.25 25 23 26.231 23 27.75s1.007 2.75 2.25 2.75z" fill="#fff"/><path d="M42.902 19l3.035 2.08-3.764 5.492 6.329 5.103-2.309 2.864-8.04-6.483-.175-.12 1.487 7.494-3.609.716-3.065-15.448 3.609-.716 1.309 6.598L42.902 19z" fill="#0B4395"/></svg>