<svg width="56" height="56" xmlns="http://www.w3.org/2000/svg"><path fill="#999B9E" d="M0 0h56v56H0z"/><path fill-rule="evenodd" d="M12.094 18.063c10.775-4.335 21.357-3.825 31.809 0 1.64 6.325 1.275 12.65 0 18.974-10.907 5.36-22.036 5.207-31.81 0-1.547-6.325-1.365-12.65 0-18.974zM13 27h4v1h-1.267v4h-1.519v-4H13v-1zm5 0h4v1h-2.5v1H22v1h-2.5v1H22v1h-4v-5zm5 0h1.5v1.95L26.258 27h2.02l-1.792 1.947L28.359 32h-1.873l-1.038-2.004-.948.83V32H23v-5zm6 0h3v1h-1.5v1H32v1h-1.5l.05 2H29v-5zm4 0h4v1h-2.5v1H37v1h-2.5v1H37v1h-4v-5zm5 0h1.5l2 2.936V27H43v5h-1.5l-2-2.605V32H38v-5zm-12 6c.149 2.767-1.613 4.489-4 5v1h12v-1c-2.54-.584-4.298-2.308-4-5h-4zm-7-14.533h18V25h-1c-.492-3.796-2.239-6.007-6-5.667V25.4h-4v-6.067c-3.578-.067-5.76 1.657-6 5.667h-1v-6.533z" fill="#fff"/></svg>