<svg width="56" height="56" xmlns="http://www.w3.org/2000/svg"><path fill="#FF7708" d="M0 0h56v56H0z"/><path d="M7.72 21H52v10.36c0 2.002-1.674 3.64-3.72 3.64H4V24.64C3.981 22.638 5.674 21 7.72 21z" fill="#fff"/><path d="M30.088 29h.635c.57 0 1.277-.064 1.277-.724v-.553c0-.66-.707-.723-1.277-.723h-.54c-.595 0-1.183.067-1.183.744v.467c0 .655.528.789 1.088.789zm-1.341.938c-.434 0-.747-.326-.747-.65v-2.56c0-.364.352-.668.818-.665h3.306c.49 0 .876.265.876.66v2.552c0 .348-.329.663-.782.663h-3.471zM27 30h-1l-3-2.729V30h-1v-4h1l3 2.782V26h1v4zm-10-2.502h.807L19.592 26H21l-2.253 1.97L21 30h-1.408l-1.785-1.5H17V30h-1v-4h1v1.498zm-2-.499h-3v.501h3v1h-3v.5h3v1h-4v-4h4v.999zM8.5 30h-1v-3.001l-1.5.005V26h4v1.004L8.5 27v3z" fill="#FF7708"/><path d="M37.86 24.151a3.862 3.862 0 013.64 2.56 3.862 3.862 0 013.639-2.56A3.855 3.855 0 0149 28a3.855 3.855 0 01-3.861 3.849 3.862 3.862 0 01-3.64-2.561 3.862 3.862 0 01-3.638 2.56A3.855 3.855 0 0134 28a3.855 3.855 0 013.86-3.849z" fill="#22438C"/><path d="M43.43 30h-1.224l2.15-4h1.533L48 30h-1.162l-.63-1H44l-.57 1zm.926-2h1.468l-.699-1.312-.77 1.312zm-9.009.654l.983-.003c0 .148.028.319.102.37.073.05.227.076.462.076h2.023c.153 0 .261-.025.324-.075.064-.05.09-.132.09-.248 0-.115-.032-.2-.107-.252a.576.576 0 00-.182-.073 1.297 1.297 0 00-.297-.03l-2.175-.04c-.237 0-.436-.024-.598-.07a.885.885 0 01-.378-.198c-.168-.164-.253-.463-.253-.897 0-.226.022-.41.066-.556a.792.792 0 01.216-.359c.115-.106.268-.183.459-.23.19-.046.496-.069.917-.069h1.867c.462 0 .794.082.998.245.204.163.306.431.306.802l-.003.078-.009.137h-.828c0-.13-.027-.242-.094-.308-.068-.064-.168-.096-.303-.096h-2.039c-.235 0-.39.022-.465.068-.075.046-.099.142-.099.239s.02.193.088.243c.069.048.193.08.377.095l2.285.032c.224 0 .418.026.581.076a.918.918 0 01.387.225c.188.19.282.511.282.968 0 .27-.034.478-.102.626a.93.93 0 01-.35.384 1.204 1.204 0 01-.44.143 5.611 5.611 0 01-.798.043h-1.63c-.668 0-1.116-.073-1.341-.22-.226-.145-.339-.417-.339-.816l.003-.112.014-.198z" fill="#FF7708"/></svg>