<svg width="56" height="56" xmlns="http://www.w3.org/2000/svg"><path fill="#7E2B36" d="M0 0h56v56H0z"/><path d="M48.42 28.21c-1.66-1.021-1.94-1.455-1.94-2.017 0-.639.51-1.048 1.2-1.048.842 0 1.507.562 1.94 1.022V23.41a4.535 4.535 0 00-1.837-.41c-2.146 0-3.627 1.38-3.627 3.397v.026c0 1.685 1.073 2.63 2.886 3.729 1.354.817 1.635 1.226 1.635 1.762 0 .69-.511 1.251-1.354 1.251-1.022 0-1.788-.766-2.299-1.251l-1.379 1.788c.97.97 2.043 1.43 3.04 1.558l-1.099 1.66 1.89.74.869-2.451C49.876 34.826 51 33.574 51 31.863v-.026c0-1.66-.868-2.58-2.58-3.627zM5 23v2h2.018v10H9V25h2v-2H5zm27.763 2l-.587-2H27v12h2v-5h3v-2h-3v-3h3.763zm3.959 6l1.175-5.088L39.072 31h-2.35zm2.529-8h-2.657l-3.32 12h2.376l.536-2h3.422l.542 2h2.447L39.25 23z" fill="#fff"/><path fill-rule="evenodd" d="M18.15 35.2a6.15 6.15 0 100-12.3 6.15 6.15 0 000 12.3zm0-2.15a4 4 0 100-8 4 4 0 000 8z" fill="#fff"/></svg>