<svg xmlns="http://www.w3.org/2000/svg" width="56" height="56"><path fill="#F0F3FA" d="M0 0h56v56H0z"/><path d="M11 26v4.11c.02.28.2.51.51.5.3-.02.49-.19.49-.5V26h1.5v6H12v-.93c-.16.46-.73.93-1.26.93-.96 0-1.24-.7-1.24-1.26V26H11zm22.22 0c1.65 0 2.17.45 2.17 1.76v3.39c0 .22.07.64.14.85h-1.55l-.12-.72c-.42.46-.77.72-1.43.72-.95 0-1.54-.72-1.54-1.6 0-1.14.73-1.51 1.46-1.76l.39-.12c.57-.17 1.06-.31 1.06-.84 0-.33-.19-.68-.52-.68-.58 0-.61.45-.64.93V28h-1.67c-.08-1.5.91-2 2.25-2zm12.97 0c1.4 0 2.12.66 2.12 2v2.15c-.09 1.35-.85 1.85-2.12 1.85C45 32 44 31.5 44 30.15V28c0-1.53.9-2 2.2-2zm-3.32-2v2h.98v1.35h-.98v3c0 .35.33.42.55.42.14-.02.21-.02.32-.02h.1v1.2c-.35.05-.7.05-1.06.05-.9 0-1.4-.43-1.4-1.33v-3.32h-.66V26h.65v-2h1.5zm-15.53 0v1.61h-1.59V32h-1.5v-6.39h-1.7V24h4.79zM8.79 24v1.61H7.27V32h-1.5v-6.39H4V24h4.79zm8.54 2v1.9a2.7 2.7 0 00-.5-.05c-.48 0-.8.1-.83.59V32h-1.5v-6H16v1.05c.19-.64.63-1.05 1.33-1.05zm13.02 0v1.9a2.7 2.7 0 00-.5-.05c-.48 0-.82.1-.85.59V32h-1.5v-6H29v1.05c.19-.64.66-1.05 1.35-1.05zM19.5 24v3.83L20.87 26h1.82l-1.65 2.24L22.72 32h-1.55l-1.18-2.5-.49.71V32H18v-8h1.5zm26.7 3.18c-.4 0-.7.3-.7.7v2.37c.03.34.35.52.7.52.34 0 .57-.18.6-.52v-2.38c0-.38-.22-.69-.6-.69zm-12.4 2l-.37.18c-.18.08-.34.16-.47.25-.46.33-.57 1.14.23 1.14.69 0 .65-.71.62-1.27l-.01-.3zM11 24v1.29H9.5V24H11zm2.5 0v1.29H12V24h1.5zm34.67 0v1.19H46.5V24h1.66zm-2.27 0v1.19h-1.66V24h1.66zm6.1 2v1.9a3.03 3.03 0 00-.53-.05c-.5 0-.94.1-.97.59V32H49v-6h1.5v1.05A1.5 1.5 0 0152 26zm-14.5 1.83V24H36v8h1.5v-1.79l.49-.7L39.17 32h1.55l-1.68-3.76L40.69 26h-1.82l-1.37 1.83z"/></svg>