<svg width="56" height="56" xmlns="http://www.w3.org/2000/svg"><path fill="#E4002B" d="M0 0h56v56H0z"/><path d="M48.937 24c1.084 0 2.135.776 1.954 2.564-.054.534-.388 1.913-.538 2.284-.423 1.05-.855 1.173-.855 1.173L50.815 34H45.24l-.66-1.665-.287 1.305H32.05l.113.36H26.87l-.143-.36h-4.723l-.114.36h-8.507l.165-.85s-.56.29-1.59.557a8.614 8.614 0 01-1.735.265c-.695.094-.978.046-1.967 0-3.529-.164-3.492-2.362-3.353-3.006.139-.643 1.224-5.267 1.224-5.267h1.496s-.96-.48-.729-1.567c.232-1.086 1.156-1.524 2.183-1.558 1.348-.044 2.175.799 2.175.799s.709-1.486 2.483-1.485c.626 0 2.362.122 2.465 1.674.08 1.237-1.11 1.438-1.11 1.438h5.558l-1.226 5.78h2.565L23.362 25h5.368l-.369 1.635L30.497 24h4.69l-.551 1h6.534l.2-1h7.567z" fill="#fff"/><path d="M18.035 32h3.667l-.357 1h-6.993l1.624-7h3.495l-1.436 6zm-3.043-6s-1.12 4.756-1.302 5.4c-.181.642-.895 1.6-4.23 1.6-3.333-.001-3.818-.812-3.426-2.564.393-1.751.909-3.982.909-3.982h3.596s-1.033 4.257-1.078 4.412c-.045.155-.184.753.137.731.321-.022.432-.243.524-.642.092-.4 1.264-4.955 1.264-4.955h3.606zm-7.379-1.768c.102-.602.99-.957 1.982-.793.992.164 1.715.784 1.613 1.386-.102.602-.99.957-1.983.793-.992-.164-1.714-.785-1.612-1.386zm4.18-.15c-.074-.625.683-1.25 1.69-1.397 1.008-.146 1.885.242 1.96.867.074.625-.683 1.25-1.69 1.396-1.009.146-1.886-.241-1.96-.866zM36.396 31h3.052l-.413 2h-6.799l1.633-7h6.799l-.46 2h-3.066l-.2.611h2.44l-.392 1.752h-2.462l-.132.637zm-6.304-2.278L31.114 33h-3.89l-.506-2.706L26.12 33h-3.682l1.655-7h3.682l-.758 3.074L30.574 25h3.19l-3.672 3.722zM48.595 25h-6.702l-1.968 8h3.623l1.02-2.99 1.3 2.99h3.62s-.9-2.435-1.227-3.344c.834-.066 1.137-.732 1.32-1.287.2-.604.37-1.306.44-1.75C50.19 25.577 49.6 25 48.596 25zm-2.554 2.635c-.163.798-.372 1.774-1.288 1.618.093-.488.506-2.15.506-2.15s.944-.266.782.532z" fill="#E4002B"/><path d="M31.575 31.315l.829-3.592-1.28 1.175.45 2.417z" fill="#E4002B"/></svg>