<svg xmlns="http://www.w3.org/2000/svg" width="56" height="56"><path fill="#F0F3FA" d="M0 0h56v56H0z"/><path d="M18 24.58l1-5.06.25-.21v.36l.32-.27.02-.43.22-.13v.36l.32-.23v-.4l.29-.25v.43l.35-.25.02-.52.51-.46V19l1.7-1.28V16.3l.5-.44v.72l.5-.4v-.7l.5-.46v.72l.5-.39v-.79l.6-.49v.76l.4-.37v-.85l.6-.61v12.5l-3.59-.71c-.99-.21-2.07-.18-2.71-.16h-.45L18 24.58zm15.57-10v.64l-.44.02.3.33L33 16l.43.46-.31.31h.47v.66l.65.02.01.43.33-.3.42.42.47-.43.31.32v-.46h.66l-.02-.66h.47l-.29-.34.4-.43-.45-.43.29-.35-.41.02v-.66h-.63l-.04-.49-.29.33L35 14l-.46.46-.3-.33v.46h-.67zM32.33 20s-1.49.43-2.1 1.29c-.63.85-.5 1.47-.5 1.47l.6.7s.33-.62.79-.22c.45.4.4 1.35-.47 1.9-.88.56-1.65.6-2.3.61A6.83 6.83 0 0127 25.6V13l1 .75v.87l.5.35v-.83l1 .6v.8l.5.34V15l1 .7v.75l.5.25V16l.74.63.1 3.37zm-16.41 6.2c1.91-.2 5.08.55 5.08.55l-.03-.02c-.1-.08-.48-.35-.88-.5l-.14-.05c-.5-.2-1.4-.56-3.77-.74-2.61-.19-4.57 1.03-6.3 2.15C8.15 28.71 7 28 7 28c.2.23.44.32.73.37.49.1 1.28.18 2.69-.47a19 19 0 015.5-1.7zM22 27.72s-3.65-.76-5.25-.73c-1.6.03-3.33.45-4.3.7-.99.24-1.45.3-1.45.3 2.73-1.35 6.66-2.17 10.42-.62.43.17.58.35.58.35zm15.19-2.26zm0 0l-.64.89s1.24.15 3 .85c1.03.42 2 .75 2.75.96.51.14 1 .23 1.37.15.9-.2.95-.53.95-.53s-.95.43-1.87.04c-.37-.15-.92-.43-1.52-.73-.91-.47-1.94-.99-2.62-1.22a8.9 8.9 0 00-1.42-.41zm-1.5 1.42l-.17.09c-.26.13-.53.25-.82.37l-.05.03c.43.05 3 .39 4.62.93 1.25.41 2.6.7 3.62.69.42 0 .79-.05 1.06-.16.92-.36 1.05-.67 1.05-.67-.96.66-2.04.51-3.08.23-.65-.18-1.3-.44-1.95-.7a17.6 17.6 0 00-3.75-1.13c-.17.12-.34.22-.53.32zm-5.13-4.1zm.96-.02c-.47-.31-.92 0-.96.02.1-.18.26-.32.45-.4.29-.12.98-.23 1.61.39.96.93.74 2.21.06 3.26-1.87 2.88-6.36 2.57-9.16 1.54-.71-.26-1.42-.59-2.14-.91-1.65-.75-3.35-1.53-5.25-1.67 0 0 1.9-.02 3.21 0s3.28.16 5.31.7a12 12 0 002.07.34h.04c1.67.14 4.37.36 5.15-1.56.2-.51.1-1.37-.39-1.7zm-2.23 5.75s2.88-.41 3.84-2.17c1.5-2.76-.2-5.34-2.97-4 .18-.4.4-.78.7-1.1 1.37-1.35 3.9-.46 4.5 1.21a3.99 3.99 0 01-1.93 4.82l-.3.2a8.1 8.1 0 01-1.6.7 6.83 6.83 0 01-2.24.34zM36 23.75c0 .84-.22 2.02-1.06 2.91 1.4-.35 2.05-1.72 2.06-3.1 0-1.97-.99-3.42-3.05-3.54-.58-.03-.97.12-.95.12.02 0 .88.06 1.92.88.8.63 1.07 1.7 1.08 2.73z" fill="#BF9632"/><path d="M7 29h2.82v.18s-.82.19-.82.49v4.2c0 1.2 1 1.61 1.8 1.61.58 0 1.7-.08 1.7-1.61v-1.18H16v.3h-2.5v.28c.02 1.21.04 2.73-2.7 2.73-1.5 0-2.8-.49-2.8-2.13v-4.2c0-.38-1-.49-1-.49V29zm11 3h-1v-2.5h-.17c-.45 0-1.26 0-1.6.1-.38.11-.45.54-.45.7h-.18V29H20v.5h-2V32zm-1 4v-3.3h3.5v.3h-2.52l.01 1.8v.37c0 .55.49.6.83.64a.5.5 0 01.18.02V36h-2zm-4.5-6.98h1V32h-1v-2.98zM43 37h-2.47v-.12s.56-.11.82-.4C41.61 36.21 45 29 45 29l1.98 3.7 2.02.03V33h-1.85l1.46 2.73-.64.27-1.63-3H45v-.3h1.18L45 30.52s-2.7 5.6-2.78 5.96c-.09.36.78.4.78.4V37zm-8.37-7.76l.8-.24 2.05 2.8H36.4l-1.77-2.56zM39 29h2.5v.22s-.51-.03-.82.34c-.85 1-2.68 3.42-2.68 3.42v3.19c0 .61 1 .7 1 .7V37h-2v-4h-3v-.3h3.73s1.95-2.62 2.29-3.14c.21-.34-1.02-.34-1.02-.34V29zm-10 0v.5h2.34C32.7 29.5 33 30.52 33 31c0 .84-.75 1.7-1.66 1.7h-4.81c0 1.51-.8 2.8-2.19 2.8s-2.25-1.11-2.25-3c0-1.68.7-3 2.25-3s2.15 1.86 2.15 2.5h.9c0-1.2-.86-3-3.05-3-1.6 0-2.2.88-2.52 1.38a6.8 6.8 0 01-.08.12v2.2H21c.13 1.64 1.3 3.3 3.34 3.3s3.2-1.58 3.2-3H29v3.34c0 .45-.73.49-1.22.52V37H31v-.14h-.03c-.3-.04-.97-.1-.97-.52V33.2h1.67A2.33 2.33 0 0034 31c0-.94-.51-2-2.11-2H29z" fill="#010101"/></svg>