<svg width="56" height="56" xmlns="http://www.w3.org/2000/svg"><path fill="#DCA438" d="M0 0h56v56H0z"/><path d="M39.286 27.238C46.623 30.448 46.623 40 30.902 40H11l2.608-14.368C14.656 20.281 15.705 16 21.47 16h15.72c8.874 0 11.005 9.632 2.096 11.238zM23.88 19.13c-2.576-.521-5.884.044-7.418 6.261-1.091 4.42-2.37 11.479-2.37 11.479h.343c2.128.014 5.763.035 8.312-3.653.192-.279 2.858-3.694 5.77-7.304l.102-.128c2.506-3.107 5.175-6.415 6.594-6.655-2.576-.521-6.388.94-9.273 4.696-.265.346-7.727 9.391-7.727 9.391l2.06-9.39c.516-2.61 1.546-4.175 3.607-4.697z" fill="#fff"/></svg>