<svg width="56" height="56" xmlns="http://www.w3.org/2000/svg"><path fill="#373935" d="M0 0h56v56H0z"/><path d="M15 26h-1.4l-.572 2.18h-.014L12.448 26H11l.6 1.616c.076.202.597 1.609.629 1.775.038.205.008.41-.164.485-.096.042-.254.028-.41.03h-.127V31h.889c.552-.007.86-.002 1.166-.934L15 26zm2.345 2.267c-.098.026-.366.065-.53.091-.354.058-.51.168-.485.424.013.14.179.29.48.255.273-.035.535-.149.535-.416v-.354zM18.632 30h-1.246v-.447h-.013c-.316.35-.648.447-1.191.447-.588 0-1.185-.326-1.185-1.152 0-1.317 1.298-1.165 1.982-1.3.286-.056.366-.095.366-.337 0-.21-.11-.356-.44-.352-.44.004-.492.158-.501.388h-1.246c.04-1.071.645-1.243 1.807-1.247 1.679-.006 1.667.506 1.667 1.49V30zm5.706-1.733c-.097.026-.366.065-.53.091-.352.058-.509.168-.485.424.014.14.18.29.48.255.274-.035.536-.149.536-.416v-.354zM25.627 30h-1.245v-.447h-.014c-.317.35-.649.447-1.192.447-.587 0-1.185-.326-1.185-1.152 0-1.317 1.299-1.165 1.984-1.3.284-.056.364-.095.364-.337 0-.21-.109-.356-.44-.352-.438.004-.492.158-.5.388h-1.246c.041-1.071.645-1.243 1.808-1.247 1.679-.006 1.666.506 1.666 1.49V30zm2.665-2.797c-.007-.124 0-.25-.087-.317-.082-.073-.258-.079-.366-.079-.25 0-.403.044-.407.294-.002.158.081.162.156.198.223.103.73.132 1.178.294.447.153.84.32.84 1.064 0 1.122-.707 1.343-1.788 1.343-1.167 0-1.753-.137-1.753-1.343h1.28c.006.132-.02.25.085.355.1.1.273.09.436.092.223.002.455-.036.453-.293-.002-.22-.115-.286-.738-.404-1.022-.19-1.435-.394-1.435-1.196 0-1.064.807-1.211 1.659-1.211.85 0 1.705.095 1.705 1.203h-1.218M20.873 26h.777v1h-.777v1.423c0 .351.074.467.413.467.101 0 .202-.007.364-.022v1.083c-.33.05-.655.049-.938.049-.423 0-1.18-.048-1.18-1.087V27h-.586v-1h.587v-1h1.34v1zm7.962 5h-2v1h2v-1z" fill="#fff"/><path d="M4.215 25H6v1H5v4h1v1H4.233A.224.224 0 014 30.766v-5.533c0-.148.083-.233.215-.233zm5.785.228v5.534a.224.224 0 01-.233.234H8v-1h1v-4H8v-1h1.785c.132 0 .215.085.215.232z" fill="#4798CB"/><path d="M32.47 26.618c-.88 0-1.197.776-1.197 1.51 0 .733.317 1.509 1.196 1.509.793 0 1.117-.776 1.117-1.51 0-.733-.324-1.509-1.117-1.509zM30.856 25h.416v2.03h.014c.171-.508.68-.775 1.182-.775 1.038 0 1.533.864 1.533 1.873 0 1.008-.495 1.872-1.533 1.872-.555 0-1.024-.288-1.216-.775h-.013V30h-.383v-5zm5.93 2.935c-.018-.635-.392-1.23-1.02-1.23-.647 0-.99.601-1.058 1.23h2.078zm-2.078.354c0 .614.311 1.357 1.058 1.357.572 0 .884-.355 1.008-.883h.392c-.168.782-.585 1.237-1.4 1.237-1.02 0-1.45-.842-1.45-1.825 0-.909.43-1.825 1.45-1.825 1.026 0 1.443.97 1.412 1.939h-2.47zm4.255 1.348c.828 0 1.126-.776 1.126-1.51 0-.733-.298-1.509-1.126-1.509-.746 0-1.051.776-1.051 1.51 0 .733.305 1.509 1.051 1.509zm1.518.363h-.36v-.775h-.013c-.168.466-.678.775-1.145.775-.977 0-1.443-.864-1.443-1.872 0-1.009.466-1.873 1.443-1.873.473 0 .952.268 1.114.775h.012V25h.392v5zm2.124-.363c.827 0 1.126-.776 1.126-1.51 0-.733-.299-1.509-1.126-1.509-.747 0-1.052.776-1.052 1.51 0 .733.305 1.509 1.052 1.509zm1.518.363h-.361v-.775h-.013c-.168.466-.678.775-1.144.775-.977 0-1.444-.864-1.444-1.872 0-1.009.467-1.873 1.444-1.873.473 0 .952.268 1.113.775h.012V25h.393v5zm.68-3.613h.392V30h-.392v-3.613zm0-1.387h.392v.707h-.392V25zm1.138 1.551h.392v.595h.013c.149-.414.572-.695 1.026-.695.902 0 1.176.508 1.176 1.33V30h-.392v-2.152c0-.588-.18-1.043-.815-1.043-.628 0-.99.508-1.008 1.184V30h-.392v-3.449m5.649 1.71c0-.684-.298-1.451-1.078-1.451s-1.104.726-1.104 1.451c0 .706.344 1.39 1.104 1.39.709 0 1.079-.684 1.079-1.39zm.41 1.506c0 1.05-.403 1.682-1.488 1.682-.67 0-1.339-.32-1.39-1.058h.409c.085.515.533.698.98.698.761 0 1.08-.46 1.08-1.322v-.475h-.013c-.189.434-.579.719-1.066.719-1.072 0-1.514-.793-1.514-1.797 0-.963.546-1.763 1.514-1.763.494 0 .903.318 1.066.705h.013v-.604H52v3.215z" fill="#fff"/></svg>