<svg width="56" height="56" fill="none" xmlns="http://www.w3.org/2000/svg"><path fill="url(#paint0_linear_3745_54070)" d="M0 0h56v56H0z"/><path d="M29 18.727v-6.135c0-.028.012-.055.033-.072l2.952-2.447c.207-.172.515-.021.515.251v1.906l-2.112 1.784v1.753l1.597-1.326c.206-.171.515-.02.515.251v1.741a.093.093 0 01-.033.072l-2.95 2.472c-.207.173-.517.022-.517-.25z" fill="url(#paint1_linear_3745_54070)"/><path d="M26.04 26.853l-6.68 5.9.027.651.43.548 6.787-5.943-.564-1.156z" fill="url(#paint2_linear_3745_54070)"/><path d="M29.5 39.884V26.968l1.5-1.084v12.881l-1.5 1.119z" fill="url(#paint3_linear_3745_54070)"/><path fill-rule="evenodd" clip-rule="evenodd" d="M19 20.445v-5.048c0-.395.531-.608.825-.35l6.543 5.724c.401.35.632.862.632 1.4v5.156c-.003.091-.102.373-.474.772.086-.108-.008-.52-1.026-1.401-.932-.807-3.903-3.282-5.756-4.82C19.32 21.526 19 21 19 20.445zm0 8.502v-4.025c0-.391.452-.605.75-.355l6.756 5.686c.313.264.494.654.494 1.065v4.024a.457.457 0 01-.75.355l-6.756-5.686A1.391 1.391 0 0119 28.947zm8 16.59v-5.049c0-.555-.247-1.08-.674-1.432-1.872-1.539-4.871-4.013-5.811-4.82-1.028-.882-1.204-1.424-1.118-1.532a1.39 1.39 0 00-.397.903v5.155c0 .538.233 1.05.638 1.401l6.605 5.725a.458.458 0 00.757-.35z" fill="url(#paint4_linear_3745_54070)"/><path d="M29 39.902v5.633c0 .393.458.609.76.357l7.24-6.04V28.596a.711.711 0 00-.516-.684c.32-.194.516-.542.516-.917v-11.53a.463.463 0 00-.765-.354l-7.072 6.056a.465.465 0 00-.163.353v5.574c0 .396.463.61.764.354l5.224-4.452a.463.463 0 01.764.354v.767a1.86 1.86 0 01-.66 1.42l-5.762 4.868a.93.93 0 00-.33.71v4.385c0 .397.466.61.766.351l5.22-4.506c.3-.26.766-.046.766.352v1.554a1.86 1.86 0 01-.678 1.437l-5.904 4.853a.465.465 0 00-.17.36z" fill="url(#paint5_linear_3745_54070)"/><path d="M23.5 10.231v2.124l.96.695v1.94l-.416-.34c-.148-.12-.367-.013-.367.18v1.432c0 .273.118.532.322.707l1.785 1.535c.294.252.741.038.741-.354v-1.457l-.525-.56v-1.656l.576.52c.143.132.418.03.424-.166v-1.662a.933.933 0 00-.327-.739l-2.804-2.377c-.147-.124-.369-.017-.369.178z" fill="url(#paint6_linear_3745_54070)"/><defs><linearGradient id="paint0_linear_3745_54070" x1="53.534" y1="8.797" x2="5.541" y2="44.663" gradientUnits="userSpaceOnUse"><stop stop-color="#A8191B"/><stop offset="1" stop-color="#E30713"/></linearGradient><linearGradient id="paint1_linear_3745_54070" x1="28.852" y1="16.13" x2="32.205" y2="16.13" gradientUnits="userSpaceOnUse"><stop stop-color="#D4E2E5"/><stop offset=".577" stop-color="#FDFDFF"/><stop offset="1" stop-color="#E5E5ED"/></linearGradient><linearGradient id="paint2_linear_3745_54070" x1="26.009" y1="27.613" x2="19.755" y2="33.014" gradientUnits="userSpaceOnUse"><stop stop-color="#8F929B"/><stop offset=".117" stop-color="#C7D2D5"/><stop offset=".218" stop-color="#909397"/><stop offset=".708" stop-color="#A8B3B7"/><stop offset=".875" stop-color="#C9D4D6"/><stop offset="1" stop-color="#93A7A8"/></linearGradient><linearGradient id="paint3_linear_3745_54070" x1="28.14" y1="27.815" x2="36.962" y2="38.16" gradientUnits="userSpaceOnUse"><stop stop-color="#98A6A7"/><stop offset=".121" stop-color="#CDD6DF"/><stop offset=".226" stop-color="#98A6A7" stop-opacity=".716"/><stop offset=".568" stop-color="#98A1AA"/><stop offset=".655" stop-color="#D0D7E1"/><stop offset=".769" stop-color="#98A1A6"/><stop offset="1" stop-color="#98A6A7" stop-opacity="0"/></linearGradient><linearGradient id="paint4_linear_3745_54070" x1="17.635" y1="28.182" x2="27.298" y2="28.182" gradientUnits="userSpaceOnUse"><stop stop-color="#DFE9EE"/><stop offset=".495" stop-color="#FFFBFF"/><stop offset="1" stop-color="#D5E2E2"/></linearGradient><linearGradient id="paint5_linear_3745_54070" x1="29.577" y1="22.983" x2="37.247" y2="22.983" gradientUnits="userSpaceOnUse"><stop stop-color="#DAE0EA"/><stop offset=".503" stop-color="#FFFAFF"/><stop offset="1" stop-color="#E3E1EE"/></linearGradient><linearGradient id="paint6_linear_3745_54070" x1="23.707" y1="13.624" x2="27.027" y2="14.667" gradientUnits="userSpaceOnUse"><stop stop-color="#E5EAED"/><stop offset=".563" stop-color="#FAFAFD"/><stop offset="1" stop-color="#E5E4E9"/></linearGradient></defs></svg>